<svg width="10" height="10" viewBox="0 0 10 10" fill="none" xmlns="http://www.w3.org/2000/svg">
<path fill-rule="evenodd" clip-rule="evenodd" d="M5 9.6875C7.41625 9.6875 9.375 7.72875 9.375 5.3125C9.375 2.89625 7.41625 0.9375 5 0.9375C2.58375 0.9375 0.625 2.89625 0.625 5.3125C0.625 6.09715 0.831562 6.83355 1.19327 7.4703L0.625 9.6875L2.91089 9.15744C3.53168 9.49545 4.24341 9.6875 5 9.6875ZM5 9.01442C7.04452 9.01442 8.70192 7.35702 8.70192 5.3125C8.70192 3.26798 7.04452 1.61058 5 1.61058C2.95548 1.61058 1.29808 3.26798 1.29808 5.3125C1.29808 6.1019 1.54516 6.83358 1.9662 7.43444L1.63462 8.67788L2.89998 8.36154C3.49668 8.7733 4.22018 9.01442 5 9.01442Z" fill="#BFC8D0"/>
<path d="M8.75 5C8.75 7.07107 7.07107 8.75 5 8.75C4.21005 8.75 3.47715 8.50575 2.87271 8.08864L1.59091 8.40909L1.9268 7.1495C1.50029 6.54084 1.25 5.79965 1.25 5C1.25 2.92893 2.92893 1.25 5 1.25C7.07107 1.25 8.75 2.92893 8.75 5Z" fill="url(#paint0_linear_5542_3344)"/>
<path fill-rule="evenodd" clip-rule="evenodd" d="M5 9.375C7.41625 9.375 9.375 7.41625 9.375 5C9.375 2.58375 7.41625 0.625 5 0.625C2.58375 0.625 0.625 2.58375 0.625 5C0.625 5.78465 0.831562 6.52105 1.19327 7.1578L0.625 9.375L2.91089 8.84494C3.53168 9.18295 4.24341 9.375 5 9.375ZM5 8.70192C7.04452 8.70192 8.70192 7.04452 8.70192 5C8.70192 2.95548 7.04452 1.29808 5 1.29808C2.95548 1.29808 1.29808 2.95548 1.29808 5C1.29808 5.7894 1.54516 6.52108 1.9662 7.12194L1.63462 8.36538L2.89998 8.04904C3.49668 8.4608 4.22018 8.70192 5 8.70192Z" fill="white"/>
<path d="M3.90626 2.96875C3.80224 2.75981 3.64266 2.77831 3.48146 2.77831C3.19336 2.77831 2.74414 3.1234 2.74414 3.76564C2.74414 4.29199 2.97608 4.86816 3.75763 5.73007C4.51189 6.56187 5.50293 6.99216 6.32569 6.97751C7.14844 6.96286 7.31772 6.25486 7.31772 6.01576C7.31772 5.90978 7.25195 5.8569 7.20665 5.84254C6.92627 5.70798 6.40917 5.45726 6.29151 5.41016C6.17385 5.36305 6.11241 5.42676 6.07422 5.46143C5.96752 5.56311 5.75602 5.86277 5.6836 5.93018C5.61118 5.99758 5.50321 5.96347 5.45828 5.93799C5.29295 5.87164 4.84466 5.67224 4.48733 5.32585C4.04541 4.89746 4.01948 4.75007 3.93622 4.61888C3.86961 4.51392 3.91849 4.44952 3.94288 4.42138C4.03809 4.31152 4.16956 4.1419 4.22852 4.05761C4.28748 3.97332 4.24068 3.84535 4.21259 3.76564C4.0918 3.42285 3.98947 3.13589 3.90626 2.96875Z" fill="white"/>
<defs>
<linearGradient id="paint0_linear_5542_3344" x1="8.28125" y1="2.1875" x2="1.25" y2="8.75" gradientUnits="userSpaceOnUse">
<stop stop-color="#5BD066"/>
<stop offset="1" stop-color="#27B43E"/>
</linearGradient>
</defs>
</svg>
