<svg width="24" height="24" viewBox="0 0 24 24" fill="none" xmlns="http://www.w3.org/2000/svg">
<path fill-rule="evenodd" clip-rule="evenodd" d="M11.9991 2C6.36711 2 2 6.12713 2 11.6991C2 14.6139 3.19489 17.1337 5.13972 18.8735C5.30221 19.0185 5.4022 19.2235 5.4072 19.4435L5.46219 21.2233C5.47969 21.7907 6.06464 22.1607 6.58459 21.9307L8.56942 21.0558C8.7369 20.9808 8.92689 20.9683 9.10437 21.0158C10.0168 21.2658 10.9867 21.4008 11.9991 21.4008C17.6311 21.4008 21.9982 17.2736 21.9982 11.7016C21.9982 6.12963 17.6311 2 11.9991 2Z" fill="url(#paint0_radial_11041_162041)"/>
<path fill-rule="evenodd" clip-rule="evenodd" d="M5.99494 14.5364L8.93218 9.87678C9.39964 9.13435 10.3996 8.95187 11.102 9.47682L13.4393 11.2292C13.6543 11.3892 13.9492 11.3892 14.1617 11.2267L17.3164 8.83188C17.7364 8.51191 18.2864 9.01686 18.0064 9.46432L15.0666 14.1214C14.5992 14.8638 13.5993 15.0463 12.8968 14.5214L10.5595 12.769C10.3446 12.609 10.0496 12.609 9.8371 12.7715L6.68238 15.1663C6.26242 15.4863 5.71247 14.9838 5.99494 14.5364Z" fill="white"/>
<defs>
<radialGradient id="paint0_radial_11041_162041" cx="0" cy="0" r="1" gradientUnits="userSpaceOnUse" gradientTransform="translate(5.84966 21.8893) scale(21.7901 21.79)">
<stop stop-color="#0099FF"/>
<stop offset="0.6098" stop-color="#A033FF"/>
<stop offset="0.9348" stop-color="#FF5280"/>
<stop offset="1" stop-color="#FF7061"/>
</radialGradient>
</defs>
</svg>
