<svg width="20" height="20" viewBox="0 0 20 20" fill="none" xmlns="http://www.w3.org/2000/svg">
<rect x="1.25" y="1.25" width="17.5" height="17.5" rx="5" fill="url(#paint0_radial_17606_165749)"/>
<rect x="1.25" y="1.25" width="17.5" height="17.5" rx="5" fill="url(#paint1_radial_17606_165749)"/>
<rect x="1.75" y="1.75" width="16.5" height="16.5" rx="4.5" fill="url(#paint2_radial_17606_165749)" stroke="white"/>
<path fill-rule="evenodd" clip-rule="evenodd" d="M6.99709 11.2708L8.46585 8.94067C8.69946 8.5699 9.1998 8.47763 9.55035 8.7406L10.7185 9.61664C10.8257 9.69708 10.9732 9.69662 11.0799 9.61561L12.6575 8.41822C12.8681 8.25854 13.143 8.51054 13.0021 8.73415L11.5333 11.0644C11.2997 11.435 10.7994 11.5273 10.4488 11.2645L9.28064 10.3883C9.17347 10.3079 9.02601 10.3083 8.91929 10.3893L7.34159 11.5867C7.13101 11.7465 6.85615 11.4944 6.99709 11.2708Z" fill="white"/>
<path d="M7.49491 15.4232L7.4951 15.4231L8.45469 14.9994C8.94445 15.1309 9.46268 15.2001 9.99997 15.2001C13.0746 15.2001 15.5 12.931 15.5 9.85006C15.5 6.76935 13.0746 4.5 9.99997 4.5C6.92542 4.5 4.5 6.76935 4.5 9.85006C4.5 11.4348 5.14545 12.8186 6.20619 13.7824L6.23208 14.6272C6.23208 14.6272 6.23208 14.6272 6.23208 14.6272C6.25163 15.2655 6.91092 15.6808 7.49491 15.4232Z" stroke="white"/>
<defs>
<radialGradient id="paint0_radial_17606_165749" cx="0" cy="0" r="1" gradientUnits="userSpaceOnUse" gradientTransform="translate(7.5 14.375) rotate(-55.3758) scale(15.9498)">
<stop stop-color="#B13589"/>
<stop offset="0.79309" stop-color="#C62F94"/>
<stop offset="1" stop-color="#8A3AC8"/>
</radialGradient>
<radialGradient id="paint1_radial_17606_165749" cx="0" cy="0" r="1" gradientUnits="userSpaceOnUse" gradientTransform="translate(6.875 19.375) rotate(-65.1363) scale(14.1214)">
<stop stop-color="#E0E8B7"/>
<stop offset="0.444662" stop-color="#FB8A2E"/>
<stop offset="0.71474" stop-color="#E2425C"/>
<stop offset="1" stop-color="#E2425C" stop-opacity="0"/>
</radialGradient>
<radialGradient id="paint2_radial_17606_165749" cx="0" cy="0" r="1" gradientUnits="userSpaceOnUse" gradientTransform="translate(0.312501 1.875) rotate(-8.1301) scale(24.3068 5.19897)">
<stop offset="0.156701" stop-color="#406ADC"/>
<stop offset="0.467799" stop-color="#6A45BE"/>
<stop offset="1" stop-color="#6A45BE" stop-opacity="0"/>
</radialGradient>
</defs>
</svg>
