<svg width="12" height="12" viewBox="0 0 12 12" fill="none" xmlns="http://www.w3.org/2000/svg">
<rect width="12" height="12" rx="6" fill="white"/>
<path d="M5.78 4.64333C5.78 5.26667 5.26667 5.78 4.64333 5.78C4.02 5.78 3.50667 5.26667 3.50667 4.64333C3.50667 4.02 4.02 3.50667 4.64333 3.50667C5.26667 3.50667 5.78 4.02 5.78 4.64333ZM4.64333 6.22C4.02 6.22 3.50667 6.73333 3.50667 7.35667C3.50667 7.98 4.02 8.49333 4.64333 8.49333C5.26667 8.49333 5.78 7.98 5.78 7.35667C5.78 6.73333 5.26667 6.22 4.64333 6.22ZM11.5 6C11.5 9.04333 9.04333 11.5 6 11.5C2.95667 11.5 0.5 9.04333 0.5 6C0.5 2.95667 2.95667 0.5 6 0.5C9.04333 0.5 11.5 2.95667 11.5 6ZM10.0333 6C10.0333 3.76333 8.23667 1.96667 6 1.96667C3.76333 1.96667 1.96667 3.76333 1.96667 6C1.96667 8.23667 3.76333 10.0333 6 10.0333C8.23667 10.0333 10.0333 8.23667 10.0333 6ZM7.35667 6.22C6.73333 6.22 6.22 6.73333 6.22 7.35667C6.22 7.98 6.73333 8.49333 7.35667 8.49333C7.98 8.49333 8.49333 7.98 8.49333 7.35667C8.49333 6.73333 7.98 6.22 7.35667 6.22ZM7.35667 3.50667C6.73333 3.50667 6.22 4.02 6.22 4.64333C6.22 5.26667 6.73333 5.78 7.35667 5.78C7.98 5.78 8.49333 5.26667 8.49333 4.64333C8.49333 4.02 7.98 3.50667 7.35667 3.50667Z" fill="#F22F46"/>
</svg>
