<svg width="107" height="121" viewBox="0 0 107 121" fill="none" xmlns="http://www.w3.org/2000/svg">
<path d="M0 101.355V85.168H6.25733C9.24996 85.168 11.1544 86.9363 11.1544 89.5209C11.1544 91.0852 10.3382 92.3095 9.18195 92.7856C10.8143 93.1937 11.9705 94.622 11.9705 96.5944C11.9705 99.315 9.93011 101.355 7.00549 101.355H0ZM5.98527 88.2286H3.74079V91.5613H5.98527C6.93747 91.5613 7.61762 90.9492 7.61762 89.861C7.61762 88.7727 6.86946 88.2286 5.98527 88.2286ZM6.46137 94.554H3.74079V98.2947H6.46137C7.48159 98.2947 8.16174 97.5466 8.16174 96.4584C8.16174 95.3021 7.41357 94.554 6.46137 94.554Z" fill="#283A5E"/>
<path d="M20.2002 89.1133C24.009 89.1133 26.9337 91.8339 26.9337 95.3706C26.9337 98.9073 24.0771 101.628 20.2002 101.628C16.3914 101.628 13.4668 98.9073 13.4668 95.3706C13.5348 91.8339 16.3914 89.1133 20.2002 89.1133ZM20.2002 98.3632C21.9006 98.3632 23.1929 97.071 23.1929 95.3706C23.1929 93.6702 21.9006 92.378 20.2002 92.378C18.4999 92.378 17.2076 93.6702 17.2076 95.3706C17.2076 97.071 18.4999 98.3632 20.2002 98.3632Z" fill="#283A5E"/>
<path d="M32.8509 85.168H29.1101V101.355H32.8509V85.168Z" fill="#283A5E"/>
<path d="M40.6047 89.1128C42.169 89.1128 43.4613 89.7249 44.4135 90.6771V85.168H48.0863V101.355H44.4135V100.063C43.4613 101.083 42.169 101.627 40.6047 101.627C37.34 101.627 34.9595 98.9069 34.9595 95.3701C34.9595 91.8334 37.34 89.1128 40.6047 89.1128ZM41.5569 98.3628C43.1892 98.3628 44.4135 97.0705 44.4135 95.3701C44.4135 93.6698 43.1212 92.3775 41.5569 92.3775C39.9245 92.3775 38.7003 93.6698 38.7003 95.3701C38.7003 97.0705 39.9245 98.3628 41.5569 98.3628Z" fill="#283A5E"/>
<path d="M59.1046 85.168C64.0016 85.168 67.1983 88.3646 67.1983 93.2617C67.1983 98.1587 63.9336 101.355 59.1046 101.355H53.0513V85.168H59.1046ZM56.9281 88.5007V98.0227H58.0843C58.4924 98.0227 58.9005 98.0227 59.2406 97.9547C61.7571 97.8186 63.3895 96.2543 63.3895 93.1937C63.3895 90.065 61.5531 88.4327 58.9005 88.4327H56.9281V88.5007Z" fill="#283A5E"/>
<path d="M75.768 98.8377C77.3324 98.8377 78.5566 98.3616 79.6449 97.4094L81.2092 99.1778C79.9169 100.606 78.1486 101.694 75.7 101.694C71.5511 101.694 68.8306 98.9738 68.8306 95.437C68.8306 91.9003 71.6872 89.1797 75.428 89.1797C79.1007 89.1797 81.7533 91.9003 81.7533 95.233C81.7533 95.6411 81.6853 96.1172 81.5493 96.4572H72.5714C72.7754 97.8855 73.9997 98.8377 75.768 98.8377ZM72.5714 94.0087H77.9445C77.6724 92.7164 76.7202 91.8322 75.36 91.8322C73.9997 91.9003 72.9114 92.7164 72.5714 94.0087Z" fill="#283A5E"/>
<path d="M84.6099 97.4774C85.5621 98.3616 86.5824 98.8377 87.7386 98.8377C88.6908 98.8377 89.1669 98.4977 89.1669 97.8855C89.1669 97.2734 88.6908 96.9333 87.3305 96.6613C84.814 96.1172 83.4537 94.7569 83.4537 92.7844C83.4537 90.676 85.2901 89.1797 87.8746 89.1797C90.7312 89.1797 92.2956 90.812 92.6356 93.0565H89.439C89.3029 92.3764 88.8268 91.9683 88.0787 91.9683C87.3985 91.9683 86.9224 92.3083 86.9224 92.7844C86.9224 93.3286 87.3985 93.7366 88.6908 94.0087C91.4114 94.5528 92.7037 95.9131 92.7037 97.8855C92.7037 100.062 90.7993 101.626 87.8746 101.626C86.1063 101.626 84.4739 100.742 83.1816 99.1098L84.6099 97.4774Z" fill="#283A5E"/>
<path d="M105.354 89.3849C105.354 92.4455 104.538 94.4859 103.11 95.5062L106.171 101.355H102.158L99.7093 96.3903H98.689V101.355H94.9482V85.168H98.689V93.2617H99.4372C100.661 93.2617 101.75 92.5135 101.75 89.3849H105.354Z" fill="#283A5E"/>
<path d="M19.5626 115.504C18.7465 115.504 18.0663 115.163 17.5902 114.619V115.367H16.366V107.342H17.5902V110.47C18.0663 109.926 18.7465 109.586 19.5626 109.586C21.195 109.586 22.3512 110.879 22.3512 112.579C22.3512 114.143 21.195 115.504 19.5626 115.504ZM19.3586 110.675C18.3384 110.675 17.5902 111.491 17.5902 112.511C17.5902 113.531 18.3384 114.347 19.3586 114.347C20.3788 114.347 21.127 113.531 21.127 112.511C21.059 111.491 20.3788 110.675 19.3586 110.675Z" fill="#283A5E"/>
<path d="M23.9155 117.884L24.9357 115.299L22.7593 109.654H24.0516L25.5479 113.735L27.0442 109.654H28.3365L25.2078 117.884H23.9155Z" fill="#283A5E"/>
<path d="M33.0296 113.394C33.5737 114.006 34.2539 114.414 35.002 114.414C35.8862 114.414 36.4983 114.006 36.4983 113.326C36.4983 112.714 36.0903 112.238 34.798 111.966C33.2337 111.626 32.4175 110.878 32.4175 109.721C32.4175 108.429 33.4377 107.545 34.934 107.545C36.2943 107.545 37.5186 108.293 37.6546 109.789H36.3623C36.2943 109.041 35.7502 108.633 35.002 108.633C34.2539 108.633 33.7778 109.041 33.7778 109.585C33.7778 110.197 34.2539 110.606 35.4101 110.878C37.1105 111.286 37.8586 112.034 37.8586 113.258C37.8586 114.55 36.8384 115.503 35.07 115.503C34.0498 115.503 33.0976 114.958 32.4175 114.074L33.0296 113.394Z" fill="#283A5E"/>
<path d="M39.4228 117.884L40.4431 115.299L38.2666 109.654H39.5589L41.0552 113.735L42.5515 109.654H43.8438L40.7151 117.884H39.4228Z" fill="#283A5E"/>
<path d="M49.9651 111.832V115.301H48.7409V111.9C48.7409 111.152 48.1968 110.608 47.4486 110.608C46.7004 110.608 45.9523 111.288 45.9523 112.172V115.301H44.728V109.656H45.9523V110.404C46.3604 109.86 46.9725 109.52 47.6527 109.52C49.081 109.52 49.9651 110.472 49.9651 111.832Z" fill="#283A5E"/>
<path d="M56.6304 113.94C56.0863 114.961 55.2021 115.505 54.1139 115.505C52.4135 115.505 51.0532 114.213 51.0532 112.512C51.0532 110.812 52.3455 109.52 53.9778 109.52C55.4061 109.52 56.4264 110.268 56.7664 111.56H55.4061C55.2021 111.016 54.726 110.608 54.0459 110.608C53.1617 110.608 52.3455 111.356 52.3455 112.444C52.3455 113.6 53.2297 114.281 54.1819 114.281C54.862 114.281 55.4742 113.94 55.9503 113.328L56.6304 113.94Z" fill="#283A5E"/>
<path d="M60.9835 108.43C60.8474 108.43 60.6434 108.43 60.5074 108.43C59.7592 108.43 59.4871 108.77 59.4871 109.382V109.722H60.9835V110.743H59.4871V115.299H58.2629V110.743H57.2427V109.654H58.2629V109.314C58.2629 107.954 58.943 107.342 60.3713 107.342C60.5754 107.342 60.8474 107.342 60.9835 107.41V108.43Z" fill="#283A5E"/>
<path d="M61.8677 113.191V109.723H63.0919V113.123C63.0919 113.872 63.6361 114.416 64.3842 114.416C65.2004 114.416 65.8805 113.736 65.8805 112.783V109.723H67.1048V115.368H65.8805V114.62C65.4724 115.164 64.8603 115.504 64.1802 115.504C62.7519 115.436 61.8677 114.552 61.8677 113.191Z" fill="#283A5E"/>
<path d="M68.8732 113.735C69.2813 114.143 69.7574 114.483 70.3695 114.483C70.9817 114.483 71.3898 114.211 71.3898 113.803C71.3898 113.395 71.0497 113.123 70.3015 112.987C69.0773 112.715 68.4651 112.102 68.4651 111.218C68.4651 110.266 69.2133 109.586 70.4376 109.586C71.5938 109.586 72.41 110.198 72.546 111.286H71.3217C71.2537 110.878 70.9817 110.606 70.5056 110.606C70.0295 110.606 69.6894 110.878 69.6894 111.218C69.6894 111.558 70.0295 111.898 70.7096 112.034C72.0019 112.307 72.614 112.851 72.614 113.803C72.614 114.755 71.7978 115.503 70.4376 115.503C69.5534 115.503 68.8732 115.095 68.3291 114.415L68.8732 113.735Z" fill="#283A5E"/>
<path d="M74.4503 107.342C74.8584 107.342 75.1985 107.682 75.1985 108.09C75.1985 108.498 74.8584 108.838 74.4503 108.838C74.0422 108.838 73.7021 108.498 73.7021 108.09C73.7021 107.682 74.0422 107.342 74.4503 107.342ZM73.8382 109.654H75.0624V115.299H73.8382V109.654Z" fill="#283A5E"/>
<path d="M79.4153 109.52C81.1837 109.52 82.544 110.812 82.544 112.512C82.544 114.213 81.2517 115.505 79.4153 115.505C77.6469 115.505 76.2866 114.213 76.2866 112.512C76.2866 110.812 77.6469 109.52 79.4153 109.52ZM79.4153 114.349C80.4355 114.349 81.2517 113.532 81.2517 112.512C81.2517 111.492 80.4355 110.676 79.4153 110.676C78.3951 110.676 77.5789 111.492 77.5789 112.512C77.5789 113.532 78.3951 114.349 79.4153 114.349Z" fill="#283A5E"/>
<path d="M88.9373 111.832V115.301H87.713V111.9C87.713 111.152 87.1689 110.608 86.4208 110.608C85.6726 110.608 84.9245 111.288 84.9245 112.172V115.301H83.7002V109.656H84.9245V110.404C85.3325 109.86 85.9447 109.52 86.6248 109.52C88.0531 109.52 88.9373 110.472 88.9373 111.832Z" fill="#283A5E"/>
<path d="M37.4735 75.8138H65.431C79.2129 75.8138 90.4353 64.5915 90.4353 50.8096V26.0023C90.4353 12.2204 79.2129 0.998047 65.431 0.998047H37.4735C23.6916 0.998047 12.4692 12.2204 12.4692 26.0023V51.0065C12.4692 64.5915 23.6916 75.8138 37.4735 75.8138ZM26.448 3.55753L40.4268 16.5519H67.0061C72.1251 16.5519 76.2596 20.6864 76.2596 25.8054V52.3847C76.2596 57.5037 72.1251 61.6382 67.0061 61.6382H35.8984C30.7794 61.6382 26.6449 57.5037 26.6449 52.3847V3.55753H26.448Z" fill="#FF4800"/>
<path d="M62.2809 52.3842L55.9806 46.084H42.0018C41.2143 46.084 40.4268 45.2964 40.4268 44.5089V30.5301C40.4268 29.7426 41.2143 28.9551 42.0018 28.9551H60.7058C61.4933 28.9551 62.2809 29.7426 62.2809 30.5301V52.3842Z" fill="#FF4800"/>
</svg>
