<svg width="236" height="218" viewBox="0 0 236 218" fill="none" xmlns="http://www.w3.org/2000/svg">
<g clip-path="url(#clip0_2502_26369)">
<path opacity="0.5" d="M48.386 92.0426C53.2459 106.717 63.7183 122.799 79.1335 128.038C102.42 135.949 104.499 154.992 146.765 154.841C152.935 154.851 159.089 154.193 165.116 152.878C168.063 152.225 170.966 151.387 173.806 150.366C198.844 141.371 212.551 119.979 214.514 97.1193C217.094 67.0554 196.548 51.8848 183.172 42.9397C169.796 33.9947 154.521 0.797944 112.969 0.600601C106.626 0.547157 100.298 1.22137 94.1097 2.60991C80.0023 5.83917 65.4834 13.6145 56.762 25.4659C56.1111 26.3557 55.483 27.2671 54.8778 28.2C43.101 46.4381 41.7572 72.0353 48.386 92.0426Z" fill="#D1F2FA"/>
<path d="M216.349 32.5742C218.109 32.5742 219.536 33.9951 219.536 35.7477V118.763C219.536 120.515 218.109 121.936 216.349 121.936H78.3598C76.6002 121.936 75.1738 120.515 75.1738 118.763V35.7477C75.1738 33.9951 76.6002 32.5742 78.3598 32.5742H216.349Z" fill="white" stroke="#7DACC5" stroke-width="0.619732"/>
<path d="M211.967 69.6905C211.967 69.1301 212.423 68.6758 212.986 68.6758C213.549 68.6758 214.005 69.1301 214.005 69.6905C214.005 70.2509 213.549 70.7052 212.986 70.7052C212.423 70.7052 211.967 70.2509 211.967 69.6905Z" fill="white" stroke="#6631FE" stroke-width="0.479409"/>
<path d="M211.967 76.3741C211.967 75.8137 212.423 75.3594 212.986 75.3594C213.549 75.3594 214.005 75.8137 214.005 76.3741C214.005 76.9345 213.549 77.3888 212.986 77.3888C212.423 77.3888 211.967 76.9345 211.967 76.3741Z" fill="white" stroke="#6631FE" stroke-width="0.479409"/>
<path d="M156.872 112.741L156.872 99.3711L188.964 99.3711L188.964 112.741L156.872 112.741Z" fill="white"/>
<path d="M133.59 111.906L133.59 99.7891L146.804 99.7891L146.804 111.906L133.59 111.906Z" fill="white"/>
<path d="M111.775 84.3291L111.775 70.959L143.868 70.959L143.868 84.3291L111.775 84.3291Z" fill="white"/>
<path d="M174.701 110.234C174.238 110.234 173.862 110.609 173.862 111.07C173.862 111.532 174.238 111.906 174.701 111.906H188.964V110.234H174.701Z" fill="#2E5CFF"/>
<path d="M179.733 110.234C179.27 110.234 178.895 110.609 178.895 111.07C178.895 111.532 179.27 111.906 179.733 111.906H188.962V110.234H179.733Z" fill="#FFD600"/>
<path d="M184.77 110.234C184.306 110.234 183.931 110.609 183.931 111.07C183.931 111.532 184.306 111.906 184.77 111.906H188.965V110.234H184.77Z" fill="#FF4800"/>
<path d="M168.828 107.727C168.364 107.727 167.988 108.1 167.988 108.562C167.988 109.024 168.364 109.397 168.828 109.397H188.964V107.727H168.828Z" fill="#2E5CFF"/>
<path d="M177.636 107.727C177.173 107.727 176.797 108.1 176.797 108.562C176.797 109.024 177.173 109.397 177.636 109.397H188.963V107.727H177.636Z" fill="#FFD600"/>
<path d="M181.413 107.727C180.95 107.727 180.574 108.1 180.574 108.562C180.574 109.024 180.95 109.397 181.413 109.397H188.964V107.727H181.413Z" fill="#FF4800"/>
<path d="M163.375 105.221C162.912 105.221 162.536 105.595 162.536 106.057C162.536 106.518 162.912 106.892 163.375 106.892H188.965V105.221H163.375Z" fill="#2E5CFF"/>
<path d="M166.94 105.221C166.477 105.221 166.102 105.595 166.102 106.057C166.102 106.518 166.477 106.892 166.94 106.892H188.964V105.221H166.94Z" fill="#FFD600"/>
<path d="M175.12 105.221C174.657 105.221 174.281 105.595 174.281 106.057C174.281 106.518 174.657 106.892 175.12 106.892H188.964V105.221H175.12Z" fill="#FF4800"/>
<path d="M166.31 102.715C165.846 102.715 165.471 103.089 165.471 103.55C165.471 104.012 165.846 104.386 166.31 104.386H188.962V102.715H166.31Z" fill="#2E5CFF"/>
<path d="M173.023 102.715C172.56 102.715 172.185 103.089 172.185 103.55C172.185 104.012 172.56 104.386 173.023 104.386H188.964V102.715H173.023Z" fill="#FFD600"/>
<path d="M177.009 102.715C176.545 102.715 176.17 103.089 176.17 103.55C176.17 104.012 176.545 104.386 177.009 104.386H188.965V102.715H177.009Z" fill="#FF4800"/>
<path d="M160.855 100.207C160.392 100.207 160.017 100.581 160.017 101.042C160.017 101.504 160.392 101.879 160.855 101.879H188.962V100.207H160.855Z" fill="#2E5CFF"/>
<path d="M171.764 100.207C171.3 100.207 170.925 100.581 170.925 101.042C170.925 101.504 171.3 101.879 171.764 101.879H188.964V100.207H171.764Z" fill="#FFD600"/>
<path d="M174.492 100.207C174.028 100.207 173.652 100.581 173.652 101.042C173.652 101.504 174.028 101.879 174.492 101.879H188.964V100.207H174.492Z" fill="#FF4800"/>
<path d="M213.132 36.6504H216.074C216.19 36.6504 216.284 36.7441 216.284 36.8597C216.284 36.9753 216.19 37.069 216.074 37.069H213.132C213.016 37.069 212.922 36.9753 212.922 36.8597C212.922 36.7441 213.016 36.6504 213.132 36.6504Z" fill="#6631FE"/>
<path d="M216.229 37.9066C216.229 37.791 216.135 37.6973 216.019 37.6973H213.917C213.801 37.6973 213.707 37.791 213.707 37.9066C213.707 38.0222 213.801 38.1159 213.917 38.1159H216.019C216.135 38.1159 216.229 38.0222 216.229 37.9066Z" fill="#6631FE"/>
<path d="M213.552 38.7441H216.074C216.19 38.7441 216.284 38.8378 216.284 38.9534C216.284 39.069 216.19 39.1627 216.074 39.1627H213.552C213.436 39.1627 213.342 39.069 213.342 38.9534C213.342 38.8378 213.436 38.7441 213.552 38.7441Z" fill="#6631FE"/>
<path d="M193.587 37.0703H208.718C209.182 37.0703 209.559 37.4451 209.559 37.9075V37.9075C209.559 38.3699 209.182 38.7447 208.718 38.7447H193.587C193.123 38.7447 192.747 38.3699 192.747 37.9075C192.747 37.4451 193.123 37.0703 193.587 37.0703Z" fill="#6631FE"/>
<path d="M110.79 37.9062C110.79 37.2126 111.354 36.6504 112.051 36.6504C112.747 36.6504 113.312 37.2126 113.312 37.9062C113.312 38.5998 112.747 39.162 112.051 39.162C111.354 39.162 110.79 38.5998 110.79 37.9062Z" fill="#6631FE"/>
<path d="M212.922 48.6113H212.922C213.486 48.6113 213.943 49.0667 213.943 49.6284V49.6284C213.943 50.1901 213.486 50.6455 212.922 50.6455H212.922C212.358 50.6455 211.901 50.1901 211.901 49.6284V49.6284C211.901 49.0667 212.358 48.6113 212.922 48.6113Z" fill="white" stroke="#6631FE" stroke-width="0.479409"/>
<path d="M212.922 55.3086H212.922C213.486 55.3086 213.943 55.764 213.943 56.3257V56.3257C213.943 56.8874 213.486 57.3428 212.922 57.3428H212.922C212.358 57.3428 211.901 56.8874 211.901 56.3257V56.3257C211.901 55.764 212.358 55.3086 212.922 55.3086Z" fill="white" stroke="#6631FE" stroke-width="0.479409"/>
<path d="M212.922 62.0059H212.922C213.486 62.0059 213.943 62.4612 213.943 63.0229V63.0229C213.943 63.5847 213.486 64.04 212.922 64.04H212.922C212.358 64.04 211.901 63.5847 211.901 63.0229V63.0229C211.901 62.4612 212.358 62.0059 212.922 62.0059Z" fill="white" stroke="#6631FE" stroke-width="0.479409"/>
<path d="M104.065 37.9062C104.065 37.2126 104.63 36.6504 105.326 36.6504C106.022 36.6504 106.587 37.2126 106.587 37.9062C106.587 38.5998 106.022 39.162 105.326 39.162C104.63 39.162 104.065 38.5998 104.065 37.9062Z" fill="#6631FE"/>
<path d="M97.3395 37.9062C97.3395 37.2126 97.9041 36.6504 98.6004 36.6504C99.2968 36.6504 99.8613 37.2126 99.8613 37.9062C99.8613 38.5998 99.2968 39.162 98.6004 39.162C97.9041 39.162 97.3395 38.5998 97.3395 37.9062Z" fill="#6631FE"/>
<path d="M83.8901 37.0703H92.2961C92.7604 37.0703 93.1367 37.4451 93.1367 37.9075V37.9075C93.1367 38.3699 92.7604 38.7447 92.2961 38.7447H83.8901C83.4259 38.7447 83.0496 38.3699 83.0496 37.9075C83.0496 37.4451 83.4259 37.0703 83.8901 37.0703Z" fill="#6631FE"/>
<path d="M152.399 110.745L152.399 97.3496L184.342 97.3496L184.342 110.745L152.399 110.745Z" fill="white"/>
<path d="M200.171 66.833C200.171 64.1324 200.171 62.7817 199.328 61.9426C198.486 61.1035 197.13 61.1035 194.418 61.1035H154.085C151.373 61.1035 150.017 61.1035 149.175 61.9426C148.332 62.7817 148.332 64.1324 148.332 66.833V80.4787C148.332 83.1794 148.332 84.53 149.175 85.3691C150.017 86.2082 151.373 86.2082 154.085 86.2082H194.418C197.13 86.2082 198.486 86.2082 199.328 85.3691C200.171 84.53 200.171 83.1794 200.171 80.4787V66.833Z" fill="#F1F4FA"/>
<path d="M188.219 64.4414H195.744C195.933 64.4414 196.086 64.5939 196.086 64.7821V64.7821C196.086 64.9702 195.933 65.1228 195.744 65.1228H188.219C188.03 65.1228 187.877 64.9702 187.877 64.7821C187.877 64.5939 188.03 64.4414 188.219 64.4414Z" fill="#B8C3D9"/>
<path d="M194.659 74.5805V81.9888H154.453V73.8747L157.394 72.3944C160.834 70.6625 164.894 70.6546 168.341 72.3731L169.664 73.0319C171.939 74.1664 174.594 74.2754 176.956 73.3315C179.278 72.4041 181.884 72.493 184.136 73.5763L185.306 74.1384C187.944 75.4074 190.96 75.6565 193.772 74.8386L194.659 74.5805Z" fill="#30D7F4"/>
<path d="M194.659 75.9593V81.9884H154.453V75.9593L157.876 74.3383C160.978 72.8695 164.621 73.0954 167.516 74.9362C169.905 76.4555 172.832 76.8891 175.562 76.1285L179.011 75.1676C181.39 74.5045 183.929 74.7329 186.149 75.8082L186.289 75.8758C188.926 77.1528 191.998 77.1832 194.659 75.9593Z" fill="#8B91FF"/>
<path d="M194.659 78.2596V81.9888H154.453V76.7446L158.024 75.8677C161.241 75.0779 164.632 75.4019 167.639 76.7872L168.449 77.1605C171.434 78.5361 174.845 78.6762 177.934 77.5502L178.389 77.3846C181.154 76.3774 184.205 76.4901 186.887 77.6994C189.197 78.7413 191.794 78.9745 194.253 78.3607L194.659 78.2596Z" fill="#3066F0"/>
<path d="M168.699 65.2793L166.182 65.2793C166.067 65.2793 165.973 65.1858 165.973 65.0704L165.973 65.0704C165.973 64.955 166.067 64.8615 166.182 64.8615L168.699 64.8615C168.815 64.8615 168.909 64.955 168.909 65.0704C168.909 65.1858 168.815 65.2793 168.699 65.2793Z" fill="#547AFF"/>
<path d="M162.406 65.2793L159.889 65.2793C159.774 65.2793 159.68 65.1858 159.68 65.0704L159.68 65.0704C159.68 64.955 159.774 64.8615 159.889 64.8615L162.406 64.8615C162.522 64.8615 162.616 64.955 162.616 65.0704C162.616 65.1858 162.522 65.2793 162.406 65.2793Z" fill="#7392FF"/>
<path d="M156.114 65.2793L153.597 65.2793C153.482 65.2793 153.388 65.1858 153.388 65.0704L153.388 65.0704C153.388 64.955 153.482 64.8615 153.597 64.8615L156.114 64.8615C156.23 64.8615 156.324 64.955 156.324 65.0704C156.324 65.1858 156.23 65.2793 156.114 65.2793Z" fill="#F1F4FA"/>
<path d="M170.588 65.0705C170.588 65.3012 170.4 65.4883 170.169 65.4883C169.937 65.4883 169.749 65.3012 169.749 65.0705C169.749 64.8397 169.937 64.6526 170.169 64.6526C170.4 64.6526 170.588 64.8397 170.588 65.0705Z" fill="#547AFF"/>
<path d="M164.294 65.0705C164.294 65.3012 164.106 65.4883 163.875 65.4883C163.643 65.4883 163.455 65.3012 163.455 65.0705C163.455 64.8397 163.643 64.6526 163.875 64.6526C164.106 64.6526 164.294 64.8397 164.294 65.0705Z" fill="#7392FF"/>
<path d="M158.001 65.0705C158.001 65.3012 157.813 65.4883 157.582 65.4883C157.35 65.4883 157.162 65.3012 157.162 65.0705C157.162 64.8397 157.35 64.6526 157.582 64.6526C157.813 64.6526 158.001 64.8397 158.001 65.0705Z" fill="#F1F4FA"/>
<path d="M200.647 52.1291C200.647 50.117 200.647 49.111 200.162 48.3883C199.952 48.0757 199.682 47.8072 199.368 47.5982C198.642 47.1152 197.632 47.1152 195.612 47.1152H183.828C181.808 47.1152 180.798 47.1152 180.072 47.5982C179.758 47.8072 179.488 48.0757 179.279 48.3883C178.794 49.111 178.794 50.117 178.794 52.1291C178.794 54.1411 178.794 55.1471 179.279 55.8698C179.488 56.1825 179.758 56.451 180.072 56.6599C180.798 57.1429 181.808 57.1429 183.828 57.1429H195.612C197.632 57.1429 198.642 57.1429 199.368 56.6599C199.682 56.451 199.952 56.1825 200.162 55.8698C200.647 55.1471 200.647 54.1411 200.647 52.1291Z" fill="#F1F4FA"/>
<path d="M193.135 52.0735C193.135 53.1084 193.977 53.9473 195.016 53.9473C196.055 53.9473 196.897 53.1084 196.897 52.0735C196.897 51.0387 196.055 50.1998 195.016 50.1998C193.977 50.1998 193.135 51.0387 193.135 52.0735Z" fill="#6631FE" fill-opacity="0.36"/>
<path d="M185.267 50.8809H191.082C191.271 50.8809 191.424 51.0334 191.424 51.2215V51.2215C191.424 51.4097 191.271 51.5622 191.082 51.5622H185.267C185.078 51.5622 184.925 51.4097 184.925 51.2215C184.925 51.0334 185.078 50.8809 185.267 50.8809Z" fill="#B8C3D9"/>
<path d="M183.043 52.9258H191.253C191.347 52.9258 191.424 53.0017 191.424 53.0953C191.424 53.1889 191.347 53.2647 191.253 53.2647H183.043C182.949 53.2647 182.872 53.1889 182.872 53.0953C182.872 53.0017 182.949 52.9258 183.043 52.9258Z" fill="#B8C3D9"/>
<path d="M170.683 52.1291C170.683 50.117 170.683 49.111 170.198 48.3883C169.989 48.0757 169.719 47.8072 169.405 47.5982C168.68 47.1152 167.67 47.1152 165.65 47.1152H153.53C151.51 47.1152 150.5 47.1152 149.774 47.5982C149.46 47.8072 149.191 48.0757 148.981 48.3883C148.496 49.111 148.496 50.117 148.496 52.1291C148.496 54.1411 148.496 55.1471 148.981 55.8698C149.191 56.1825 149.46 56.451 149.774 56.6599C150.5 57.1429 151.51 57.1429 153.53 57.1429H165.65C167.67 57.1429 168.68 57.1429 169.405 56.6599C169.719 56.451 169.989 56.1825 170.198 55.8698C170.683 55.1471 170.683 54.1411 170.683 52.1291Z" fill="#F1F4FA"/>
<path d="M163.172 52.0735C163.172 53.1084 164.014 53.9473 165.053 53.9473C166.092 53.9473 166.935 53.1084 166.935 52.0735C166.935 51.0387 166.092 50.1998 165.053 50.1998C164.014 50.1998 163.172 51.0387 163.172 52.0735Z" fill="#00C69A" fill-opacity="0.58"/>
<path d="M155.305 50.8809H161.12C161.309 50.8809 161.462 51.0334 161.462 51.2215V51.2215C161.462 51.4097 161.309 51.5622 161.12 51.5622H155.305C155.116 51.5622 154.963 51.4097 154.963 51.2215C154.963 51.0334 155.116 50.8809 155.305 50.8809Z" fill="#B8C3D9"/>
<path d="M153.081 52.9258H161.291C161.385 52.9258 161.462 53.0017 161.462 53.0953C161.462 53.1889 161.385 53.2647 161.291 53.2647H153.081C152.987 53.2647 152.91 53.1889 152.91 53.0953C152.91 53.0017 152.987 52.9258 153.081 52.9258Z" fill="#B8C3D9"/>
<path d="M141.197 52.1291C141.197 50.117 141.197 49.111 140.712 48.3883C140.502 48.0757 140.233 47.8072 139.919 47.5982C139.193 47.1152 138.183 47.1152 136.163 47.1152H124.379C122.358 47.1152 121.348 47.1152 120.623 47.5982C120.309 47.8072 120.039 48.0757 119.83 48.3883C119.345 49.111 119.345 50.117 119.345 52.1291C119.345 54.1411 119.345 55.1471 119.83 55.8698C120.039 56.1825 120.309 56.451 120.623 56.6599C121.348 57.1429 122.358 57.1429 124.379 57.1429H136.163C138.183 57.1429 139.193 57.1429 139.919 56.6599C140.233 56.451 140.502 56.1825 140.712 55.8698C141.197 55.1471 141.197 54.1411 141.197 52.1291Z" fill="#F1F4FA"/>
<path d="M134.357 52.0735C134.357 53.1084 135.199 53.9473 136.238 53.9473C137.277 53.9473 138.119 53.1084 138.119 52.0735C138.119 51.0387 137.277 50.1998 136.238 50.1998C135.199 50.1998 134.357 51.0387 134.357 52.0735Z" fill="#F53867" fill-opacity="0.36"/>
<path d="M126.488 50.8809H132.303C132.492 50.8809 132.646 51.0334 132.646 51.2215V51.2215C132.646 51.4097 132.492 51.5622 132.303 51.5622H126.488C126.3 51.5622 126.146 51.4097 126.146 51.2215C126.146 51.0334 126.3 50.8809 126.488 50.8809Z" fill="#B8C3D9"/>
<path d="M124.265 52.9258H132.474C132.569 52.9258 132.646 53.0017 132.646 53.0953C132.646 53.1889 132.569 53.2647 132.474 53.2647H124.265C124.171 53.2647 124.094 53.1889 124.094 53.0953C124.094 53.0017 124.171 52.9258 124.265 52.9258Z" fill="#B8C3D9"/>
<path d="M110.761 52.1291C110.761 50.117 110.761 49.111 110.276 48.3883C110.066 48.0757 109.797 47.8072 109.483 47.5982C108.757 47.1152 107.747 47.1152 105.727 47.1152H94.9477C92.9276 47.1152 91.9176 47.1152 91.1919 47.5982C90.8782 47.8072 90.6086 48.0757 90.3989 48.3883C89.9141 49.111 89.9141 50.117 89.9141 52.1291C89.9141 54.1411 89.9141 55.1471 90.3989 55.8698C90.6086 56.1825 90.8782 56.451 91.1919 56.6599C91.9176 57.1429 92.9276 57.1429 94.9477 57.1429H105.727C107.747 57.1429 108.757 57.1429 109.483 56.6599C109.797 56.451 110.066 56.1825 110.276 55.8698C110.761 55.1471 110.761 54.1411 110.761 52.1291Z" fill="#F1F4FA"/>
<path d="M103.92 52.0735C103.92 53.1084 104.762 53.9473 105.801 53.9473C106.84 53.9473 107.683 53.1084 107.683 52.0735C107.683 51.0387 106.84 50.1998 105.801 50.1998C104.762 50.1998 103.92 51.0387 103.92 52.0735Z" fill="#F5C545" fill-opacity="0.61"/>
<path d="M96.0539 50.8809H101.869C102.058 50.8809 102.211 51.0334 102.211 51.2215V51.2215C102.211 51.4097 102.058 51.5622 101.869 51.5622H96.0539C95.865 51.5622 95.7118 51.4097 95.7118 51.2215C95.7118 51.0334 95.865 50.8809 96.0539 50.8809Z" fill="#B8C3D9"/>
<path d="M93.8305 52.9258H102.04C102.134 52.9258 102.211 53.0017 102.211 53.0953C102.211 53.1889 102.134 53.2647 102.04 53.2647H93.8305C93.7361 53.2647 93.6595 53.1889 93.6595 53.0953C93.6595 53.0017 93.7361 52.9258 93.8305 52.9258Z" fill="#B8C3D9"/>
<path d="M151.207 89.998H197.769C199.358 89.998 200.646 91.2807 200.646 92.8629V112.712C200.646 114.294 199.358 115.577 197.769 115.577H151.207C149.619 115.577 148.331 114.294 148.331 112.712V92.8629C148.331 91.2807 149.619 89.998 151.207 89.998Z" fill="#F1F4FA"/>
<path d="M186.035 93.998H195.613C195.802 93.998 195.955 94.1506 195.955 94.3387V94.3387C195.955 94.5269 195.802 94.6794 195.613 94.6794H186.035C185.847 94.6794 185.693 94.5269 185.693 94.3387C185.693 94.1506 185.847 93.998 186.035 93.998Z" fill="#B8C3D9"/>
<path d="M169.466 94.1348L166.949 94.1348C166.833 94.1348 166.739 94.0412 166.739 93.9259L166.739 93.9259C166.739 93.8105 166.833 93.7169 166.949 93.7169L169.466 93.7169C169.582 93.7169 169.676 93.8105 169.676 93.9259C169.676 94.0412 169.582 94.1348 169.466 94.1348Z" fill="#3066F0"/>
<path d="M163.173 94.1348L160.656 94.1348C160.54 94.1348 160.446 94.0412 160.446 93.9259L160.446 93.9259C160.446 93.8105 160.54 93.7169 160.656 93.7169L163.173 93.7169C163.289 93.7169 163.383 93.8105 163.383 93.9259C163.383 94.0412 163.289 94.1348 163.173 94.1348Z" fill="#8B91FF"/>
<path d="M156.879 94.1348L154.362 94.1348C154.246 94.1348 154.152 94.0412 154.152 93.9259L154.152 93.9259C154.152 93.8105 154.246 93.7169 154.362 93.7169L156.879 93.7169C156.995 93.7169 157.089 93.8105 157.089 93.9259C157.089 94.0412 156.995 94.1348 156.879 94.1348Z" fill="#30D7F4"/>
<path d="M171.355 93.924C171.355 94.1547 171.167 94.3418 170.935 94.3418C170.703 94.3418 170.516 94.1547 170.516 93.924C170.516 93.6932 170.703 93.5062 170.935 93.5062C171.167 93.5062 171.355 93.6932 171.355 93.924Z" fill="#3066F0"/>
<path d="M165.062 93.924C165.062 94.1547 164.874 94.3418 164.642 94.3418C164.41 94.3418 164.223 94.1547 164.223 93.924C164.223 93.6932 164.41 93.5062 164.642 93.5062C164.874 93.5062 165.062 93.6932 165.062 93.924Z" fill="#8B91FF"/>
<path d="M158.768 93.924C158.768 94.1547 158.58 94.3418 158.348 94.3418C158.117 94.3418 157.929 94.1547 157.929 93.924C157.929 93.6932 158.117 93.5062 158.348 93.5062C158.58 93.5062 158.768 93.6932 158.768 93.924Z" fill="#30D7F4"/>
<path d="M175.135 110.742C174.606 110.742 174.177 111.17 174.177 111.697V111.79C174.177 112.317 174.606 112.744 175.135 112.744H195.62V110.742H175.135Z" fill="#30D7F4"/>
<path d="M182.506 110.742C181.976 110.742 181.547 111.17 181.547 111.697V111.79C181.547 112.317 181.976 112.744 182.506 112.744H195.619V110.742H182.506Z" fill="#8B91FF"/>
<path d="M189.544 110.742C189.014 110.742 188.585 111.17 188.585 111.697V111.79C188.585 112.317 189.014 112.744 189.544 112.744H195.621V110.742H189.544Z" fill="#3066F0"/>
<path d="M167.093 107.738C166.564 107.738 166.135 108.166 166.135 108.693V108.786C166.135 109.313 166.564 109.74 167.093 109.74H195.619V107.738H167.093Z" fill="#30D7F4"/>
<path d="M179.157 107.738C178.627 107.738 178.197 108.166 178.197 108.693V108.786C178.197 109.313 178.627 109.74 179.157 109.74H195.62V107.738H179.157Z" fill="#8B91FF"/>
<path d="M184.853 107.738C184.324 107.738 183.895 108.166 183.895 108.693V108.786C183.895 109.313 184.324 109.74 184.853 109.74H195.621V107.738H184.853Z" fill="#3066F0"/>
<path d="M159.388 104.736C158.859 104.736 158.43 105.164 158.43 105.692V105.784C158.43 106.311 158.859 106.739 159.388 106.739H195.62V104.736H159.388Z" fill="#30D7F4"/>
<path d="M164.078 104.736C163.548 104.736 163.119 105.164 163.119 105.692V105.784C163.119 106.311 163.548 106.739 164.078 106.739H195.619V104.736H164.078Z" fill="#8B91FF"/>
<path d="M175.807 104.736C175.278 104.736 174.849 105.164 174.849 105.692V105.784C174.849 106.311 175.278 106.739 175.807 106.739H195.622V104.736H175.807Z" fill="#3066F0"/>
<path d="M163.409 101.732C162.879 101.732 162.45 102.16 162.45 102.687V102.78C162.45 103.307 162.879 103.735 163.409 103.735H195.62V101.732H163.409Z" fill="#30D7F4"/>
<path d="M173.127 101.732C172.597 101.732 172.168 102.16 172.168 102.687V102.78C172.168 103.307 172.597 103.735 173.127 103.735H195.621V101.732H173.127Z" fill="#8B91FF"/>
<path d="M178.821 101.732C178.292 101.732 177.862 102.16 177.862 102.687V102.78C177.862 103.307 178.292 103.735 178.821 103.735H195.62V101.732H178.821Z" fill="#3066F0"/>
<path d="M156.037 98.7285C155.507 98.7285 155.078 99.156 155.078 99.6833V99.7753C155.078 100.303 155.507 100.731 156.037 100.731H195.619V98.7285H156.037Z" fill="#30D7F4"/>
<path d="M171.114 98.7285C170.584 98.7285 170.155 99.156 170.155 99.6833V99.7753C170.155 100.303 170.584 100.731 171.114 100.731H195.619V98.7285H171.114Z" fill="#8B91FF"/>
<path d="M175.135 98.7285C174.605 98.7285 174.176 99.156 174.176 99.6833V99.7753C174.176 100.303 174.605 100.731 175.135 100.731H195.619V98.7285H175.135Z" fill="#3066F0"/>
<path d="M144.526 66.833C144.526 64.1324 144.526 62.7817 143.683 61.9426C142.841 61.1035 141.485 61.1035 138.772 61.1035H95.5857C92.8741 61.1035 91.518 61.1035 90.6755 61.9426C89.833 62.7817 89.833 64.1324 89.833 66.833V80.4787C89.833 83.1794 89.833 84.53 90.6755 85.3691C91.518 86.2082 92.8741 86.2082 95.5857 86.2082H138.772C141.485 86.2082 142.841 86.2082 143.683 85.3691C144.526 84.53 144.526 83.1794 144.526 80.4787V66.833Z" fill="#F1F4FA"/>
<path d="M131.744 64.4727H139.269C139.458 64.4727 139.611 64.6252 139.611 64.8133V64.8133C139.611 65.0015 139.458 65.154 139.269 65.154H131.744C131.555 65.154 131.402 65.0015 131.402 64.8133C131.402 64.6252 131.555 64.4727 131.744 64.4727Z" fill="#B8C3D9"/>
<path d="M105.806 65.418L103.289 65.418C103.173 65.418 103.079 65.3244 103.079 65.2091L103.079 65.2091C103.079 65.0937 103.173 65.0002 103.289 65.0002L105.806 65.0002C105.922 65.0002 106.016 65.0937 106.016 65.2091C106.016 65.3244 105.922 65.418 105.806 65.418Z" fill="#547AFF"/>
<path d="M99.5129 65.418L96.9959 65.418C96.88 65.418 96.7861 65.3244 96.7861 65.2091L96.7861 65.2091C96.7861 65.0937 96.88 65.0002 96.9959 65.0002L99.5129 65.0002C99.6288 65.0002 99.7227 65.0937 99.7227 65.2091C99.7227 65.3244 99.6288 65.418 99.5129 65.418Z" fill="#FFD600"/>
<path d="M107.694 65.2111C107.694 65.4418 107.506 65.6289 107.274 65.6289C107.042 65.6289 106.854 65.4418 106.854 65.2111C106.854 64.9803 107.042 64.7933 107.274 64.7933C107.506 64.7933 107.694 64.9803 107.694 65.2111Z" fill="#547AFF"/>
<path d="M101.401 65.2111C101.401 65.4418 101.213 65.6289 100.981 65.6289C100.749 65.6289 100.562 65.4418 100.562 65.2111C100.562 64.9803 100.749 64.7933 100.981 64.7933C101.213 64.7933 101.401 64.9803 101.401 65.2111Z" fill="#FFD600"/>
<path d="M133.938 77.062C133.938 76.6005 133.563 76.2266 133.1 76.2266C132.636 76.2266 132.261 76.6005 132.261 77.062V81.6583H133.938V77.062Z" fill="#30D7F4"/>
<path d="M128.486 78.9429C128.486 78.4813 128.111 78.1074 127.647 78.1074C127.184 78.1074 126.809 78.4813 126.809 78.9429V81.6588H128.486V78.9429Z" fill="#30D7F4"/>
<path d="M123.032 72.2573C123.032 71.7958 122.656 71.4219 122.193 71.4219C121.73 71.4219 121.354 71.7958 121.354 72.2573V81.6581H123.032V72.2573Z" fill="#30D7F4"/>
<path d="M117.579 75.1831C117.579 74.7215 117.203 74.3477 116.739 74.3477C116.276 74.3477 115.9 74.7215 115.9 75.1831V81.6592H117.579V75.1831Z" fill="#30D7F4"/>
<path d="M112.125 77.273C112.125 76.8114 111.75 76.4375 111.286 76.4375C110.823 76.4375 110.447 76.8114 110.447 77.273V81.6604H112.125V77.273Z" fill="#30D7F4"/>
<path d="M106.671 78.7339C106.671 78.2723 106.295 77.8984 105.832 77.8984C105.369 77.8984 104.993 78.2723 104.993 78.7339V81.6586H106.671V78.7339Z" fill="#30D7F4"/>
<path d="M131.841 76.0191C131.841 75.5575 131.465 75.1836 131.002 75.1836C130.538 75.1836 130.163 75.5575 130.163 76.0191V81.6597H131.841V76.0191Z" fill="#3066F0"/>
<path d="M126.388 77.898C126.388 77.4364 126.012 77.0625 125.549 77.0625C125.086 77.0625 124.71 77.4364 124.71 77.898V81.6582H126.388V77.898Z" fill="#3066F0"/>
<path d="M120.935 75.5991C120.935 75.1376 120.559 74.7637 120.096 74.7637C119.632 74.7637 119.257 75.1376 119.257 75.5991V81.6575H120.935V75.5991Z" fill="#3066F0"/>
<path d="M115.483 70.379C115.483 69.9175 115.108 69.543 114.644 69.543C114.181 69.543 113.806 69.9175 113.806 70.379V81.6596H115.483V70.379Z" fill="#3066F0"/>
<path d="M110.03 72.6759C110.03 72.2143 109.654 71.8398 109.191 71.8398C108.728 71.8398 108.352 72.2143 108.352 72.6759V81.659H110.03V72.6759Z" fill="#3066F0"/>
<path d="M104.575 73.7202C104.575 73.2587 104.199 72.8848 103.736 72.8848C103.272 72.8848 102.896 73.2587 102.896 73.7202V81.659H104.575V73.7202Z" fill="#3066F0"/>
<path d="M144.526 95.7282C144.526 93.0269 144.526 91.6763 143.683 90.8372C142.841 89.9981 141.485 89.998 138.773 89.998H124.166C121.454 89.998 120.098 89.9981 119.256 90.8372C118.413 91.6763 118.413 93.0269 118.413 95.7282V109.297C118.413 111.997 118.413 113.348 119.256 114.187C120.098 115.026 121.454 115.026 124.166 115.026H138.773C141.485 115.026 142.841 115.026 143.683 114.187C144.526 113.348 144.526 111.997 144.526 109.297V95.7282Z" fill="#F1F4FA"/>
<path d="M135.914 93.0508H140.703C140.892 93.0508 141.045 93.2033 141.045 93.3915V93.3915C141.045 93.5796 140.892 93.7321 140.703 93.7321H135.914C135.725 93.7321 135.572 93.5796 135.572 93.3915C135.572 93.2033 135.725 93.0508 135.914 93.0508Z" fill="#B8C3D9"/>
<path d="M134.704 112.424L132.187 112.424C132.071 112.424 131.978 112.33 131.978 112.215L131.978 112.215C131.978 112.1 132.071 112.006 132.187 112.006L134.704 112.006C134.82 112.006 134.914 112.1 134.914 112.215C134.914 112.33 134.82 112.424 134.704 112.424Z" fill="#547AFF"/>
<path d="M136.593 112.215C136.593 112.446 136.405 112.633 136.173 112.633C135.942 112.633 135.754 112.446 135.754 112.215C135.754 111.984 135.942 111.797 136.173 111.797C136.405 111.797 136.593 111.984 136.593 112.215Z" fill="#547AFF"/>
<path d="M130.3 112.215C130.3 112.446 130.112 112.633 129.88 112.633C129.649 112.633 129.461 112.446 129.461 112.215C129.461 111.984 129.649 111.797 129.88 111.797C130.112 111.797 130.3 111.984 130.3 112.215Z" fill="#547AFF"/>
<path d="M131.786 108.816C128.427 108.816 125.703 106.103 125.703 102.758C125.703 99.4116 128.427 96.6992 131.786 96.6992C135.146 96.6992 137.869 99.4116 137.869 102.758C137.869 106.103 135.146 108.816 131.786 108.816Z" fill="#30D7F4"/>
<path d="M130.874 96.3594L131.729 102.662C129.124 102.662 127.664 102.662 125.059 102.662" stroke="#F1F4FA" stroke-width="1.43822" stroke-linecap="round" stroke-linejoin="round"/>
<path d="M125.703 102.757C125.703 103.992 126.082 105.197 126.788 106.212C127.495 107.226 128.496 108.001 129.657 108.433C130.819 108.865 132.085 108.933 133.286 108.629C134.487 108.324 135.566 107.661 136.379 106.729C137.192 105.797 137.699 104.64 137.833 103.412C137.967 102.184 137.721 100.946 137.128 99.8613C136.536 98.7768 135.625 97.8987 134.517 97.3446C133.409 96.7898 132.158 96.5858 130.931 96.7594L131.786 102.757H125.703Z" fill="#3066F0"/>
<path d="M114.564 95.7275C114.564 93.0269 114.564 91.6763 113.721 90.8372C112.879 89.9981 111.523 89.998 108.811 89.998H95.7712C93.0597 89.998 91.7036 89.9981 90.8611 90.8372C90.0185 91.6763 90.0186 93.0269 90.0186 95.7275V109.296C90.0186 111.997 90.0185 113.348 90.8611 114.187C91.7036 115.026 93.0597 115.026 95.7712 115.026H108.811C111.523 115.026 112.879 115.026 113.721 114.187C114.564 113.348 114.564 111.997 114.564 109.296V102.512V95.7275Z" fill="#F1F4FA"/>
<path d="M106.029 92.5762H110.818C111.007 92.5762 111.16 92.7287 111.16 92.9169V92.9169C111.16 93.105 111.007 93.2575 110.818 93.2575H106.029C105.84 93.2575 105.687 93.105 105.687 92.9169C105.687 92.7287 105.84 92.5762 106.029 92.5762Z" fill="#B8C3D9"/>
<path d="M102.436 107.997C99.6781 107.997 97.4423 105.664 97.4423 102.787C97.4423 99.909 99.6781 97.5762 102.436 97.5762C105.194 97.5762 107.43 99.909 107.43 102.787C107.43 105.664 105.194 107.997 102.436 107.997Z" stroke="#30D7F4" stroke-width="1.91763"/>
<path d="M102.435 97.5781C101.417 97.5781 100.424 97.9027 99.5879 98.508C98.7521 99.1133 98.1132 99.9706 97.7567 100.966C97.4009 101.96 97.3447 103.045 97.5959 104.074C97.8466 105.103 98.3932 106.027 99.1617 106.723C99.9296 107.419 100.884 107.854 101.895 107.968C102.907 108.083 103.928 107.873 104.822 107.365C105.716 106.857 106.44 106.077 106.897 105.128C107.354 104.18 107.522 103.108 107.379 102.056" stroke="#3066F0" stroke-width="2.87645"/>
<path d="M105.217 112.424L102.7 112.424C102.584 112.424 102.49 112.33 102.49 112.215L102.49 112.215C102.49 112.1 102.584 112.006 102.7 112.006L105.217 112.006C105.333 112.006 105.427 112.1 105.427 112.215C105.427 112.33 105.333 112.424 105.217 112.424Z" fill="#547AFF"/>
<path d="M98.925 112.424L96.408 112.424C96.2922 112.424 96.1982 112.33 96.1982 112.215L96.1982 112.215C96.1982 112.1 96.2922 112.006 96.408 112.006L98.925 112.006C99.0409 112.006 99.1348 112.1 99.1348 112.215C99.1348 112.33 99.0409 112.424 98.925 112.424Z" fill="#547AFF"/>
<path d="M107.107 112.215C107.107 112.446 106.919 112.633 106.687 112.633C106.455 112.633 106.268 112.446 106.268 112.215C106.268 111.984 106.455 111.797 106.687 111.797C106.919 111.797 107.107 111.984 107.107 112.215Z" fill="#547AFF"/>
<path d="M100.814 112.215C100.814 112.446 100.626 112.633 100.394 112.633C100.162 112.633 99.9746 112.446 99.9746 112.215C99.9746 111.984 100.162 111.797 100.394 111.797C100.626 111.797 100.814 111.984 100.814 112.215Z" fill="#547AFF"/>
<path d="M218.806 41.6738H75.9043" stroke="#E7ECFF" stroke-width="0.479409"/>
<path d="M207.458 41.6738V121.209" stroke="#E7ECFF" stroke-width="0.479409"/>
<path d="M26.0391 48.6793C26.0391 49.2827 26.5281 49.7707 27.13 49.7707C27.7318 49.7707 28.2209 49.2827 28.2209 48.6793C28.2209 48.0758 27.7318 47.5879 27.13 47.5879C26.5281 47.5879 26.0391 48.0758 26.0391 48.6793Z" stroke="#424242" stroke-width="0.360256"/>
<path d="M141.115 14.6897L142.366 15.9355L141.115 17.1814L139.864 15.9355L141.115 14.6897Z" fill="#F53867"/>
<path d="M138.257 15.9355H136.291" stroke="#F53867" stroke-width="0.360256"/>
<path d="M145.762 15.9355H143.796" stroke="#F53867" stroke-width="0.360256"/>
<path d="M141.115 18.959V20.9167" stroke="#F53867" stroke-width="0.360256"/>
<path d="M141.115 11.1289V13.0866" stroke="#F53867" stroke-width="0.360256"/>
<path d="M86.0355 27.1134C85.2515 27.0274 84.6859 26.3247 84.7722 25.5439C84.8586 24.7631 85.5641 24.1998 86.348 24.2858C87.132 24.3717 87.6976 25.0744 87.6113 25.8552C87.525 26.6361 86.8195 27.1994 86.0355 27.1134Z" stroke="#006DFB" stroke-width="0.360256"/>
<path d="M30.0199 123.533C29.2359 123.447 28.6703 122.745 28.7566 121.964C28.8429 121.183 29.5484 120.62 30.3324 120.706C31.1164 120.792 31.682 121.494 31.5957 122.275C31.5094 123.056 30.8038 123.619 30.0199 123.533Z" stroke="#006DFB" stroke-width="0.360256"/>
<path d="M227.909 72.0626C227.125 71.9766 226.559 71.274 226.645 70.4931C226.732 69.7123 227.437 69.149 228.221 69.235C229.005 69.3209 229.571 70.0236 229.484 70.8044C229.398 71.5853 228.693 72.1486 227.909 72.0626Z" stroke="#006DFB" stroke-width="0.360256"/>
<path d="M55.7237 74.7288L56.9746 75.9746L55.7237 77.2204L54.4729 75.9746L55.7237 74.7288Z" fill="#F53867"/>
<path d="M52.8641 75.9746H50.8984" stroke="#F53867" stroke-width="0.360256"/>
<path d="M60.369 75.9746H58.4033" stroke="#F53867" stroke-width="0.360256"/>
<path d="M55.7236 79V80.9577" stroke="#F53867" stroke-width="0.360256"/>
<path d="M55.7236 71.168V73.1257" stroke="#F53867" stroke-width="0.360256"/>
<path d="M223.42 158.186L224.671 159.432L223.42 160.677L222.169 159.432L223.42 158.186Z" fill="#F53867"/>
<path d="M220.56 159.432H218.595" stroke="#F53867" stroke-width="0.360256"/>
<path d="M228.065 159.432H226.1" stroke="#F53867" stroke-width="0.360256"/>
<path d="M223.419 162.457V164.415" stroke="#F53867" stroke-width="0.360256"/>
<path d="M223.419 154.625V156.583" stroke="#F53867" stroke-width="0.360256"/>
<path opacity="0.5" d="M206.715 205.134C190 203.925 133.14 205.974 115.847 206.772C98.5538 207.57 78.481 205.718 68.0536 202.995C57.6265 200.271 -2.64474 203.227 0.0902282 210.55C2.82519 217.874 26.944 213.827 54.2953 216.771C81.6468 219.714 143.16 216.403 157.035 216.771C170.91 217.138 183.634 216.034 201.515 214.563C219.396 213.092 216.404 205.835 206.715 205.134Z" fill="#D1F2FA"/>
<path d="M130.292 148.519H39.3739C38.8275 148.519 38.3848 148.078 38.3848 147.533V146.055C38.3848 145.51 38.8275 145.068 39.3739 145.068H130.292C130.838 145.068 131.281 145.51 131.281 146.055V147.533C131.281 148.078 130.838 148.519 130.292 148.519Z" fill="#2370ED"/>
<path d="M145.094 210.072C144.995 210.114 144.775 210.172 144.445 210.239C144.122 210.303 143.713 210.371 143.252 210.437C142.331 210.568 141.208 210.687 140.158 210.75C139.103 210.812 138.14 210.814 137.527 210.719C137.375 210.695 137.252 210.666 137.158 210.633C137.065 210.601 137.016 210.571 136.994 210.552C137.002 210.536 137.018 210.507 137.058 210.463C137.489 209.985 137.835 209.778 138.172 209.576C138.324 209.485 138.473 209.395 138.628 209.282C139.132 208.915 139.516 208.39 139.85 207.072C140.177 205.779 140.572 203.907 140.731 202.228C140.811 201.39 140.833 200.588 140.755 199.927C140.678 199.281 140.499 198.702 140.114 198.388C139.829 198.153 139.149 197.421 138.273 196.429C137.404 195.446 136.359 194.228 135.351 193.04C134.343 191.853 133.374 190.697 132.656 189.837C132.297 189.408 132.001 189.052 131.795 188.803C131.71 188.702 131.64 188.618 131.588 188.555L135.119 183.164C135.165 183.235 135.219 183.318 135.28 183.411C135.514 183.772 135.851 184.288 136.258 184.909C137.073 186.152 138.171 187.815 139.305 189.495C140.439 191.175 141.611 192.875 142.57 194.193C143.05 194.851 143.48 195.416 143.826 195.836C143.999 196.046 144.155 196.222 144.287 196.357C144.412 196.485 144.537 196.597 144.65 196.654C144.933 196.795 145.308 196.91 145.678 197.023C145.712 197.034 145.747 197.045 145.782 197.055C146.198 197.183 146.61 197.316 146.951 197.492C147.293 197.669 147.525 197.871 147.628 198.117C147.727 198.352 147.729 198.685 147.48 199.182C147.193 199.753 146.96 200.716 146.754 201.811C146.568 202.793 146.4 203.909 146.236 204.996C146.216 205.132 146.195 205.267 146.175 205.402C145.991 206.619 145.811 207.771 145.615 208.646C145.516 209.084 145.417 209.442 145.314 209.699C145.262 209.828 145.214 209.924 145.169 209.989C145.122 210.058 145.094 210.072 145.094 210.072Z" fill="white" stroke="#424242" stroke-width="0.494917"/>
<path d="M80.2851 207.037C80.5517 206.825 80.9393 206.368 81.4022 205.762C81.8711 205.147 82.4336 204.356 83.0535 203.451C84.2929 201.643 85.7645 199.378 87.175 197.161C88.5861 194.944 89.9373 192.775 90.9351 191.161C91.4346 190.353 91.8455 189.684 92.1316 189.217C92.2747 188.984 92.3866 188.801 92.463 188.676L92.4893 188.633C92.5247 188.64 92.5651 188.649 92.6103 188.658C92.7925 188.699 93.0499 188.761 93.3489 188.845C93.9493 189.015 94.7056 189.273 95.3555 189.633C96.0152 189.997 96.5153 190.437 96.681 190.946C96.8382 191.427 96.722 192.057 95.9314 192.88H95.9308C94.2446 194.635 93.2419 196.892 92.8549 199.023C92.4691 201.146 92.6874 203.187 93.4962 204.497C93.8496 205.069 93.8533 205.476 93.6919 205.793C93.5182 206.134 93.1221 206.437 92.5253 206.717C91.9359 206.994 91.1937 207.227 90.3854 207.453C90.0614 207.544 89.7239 207.634 89.3834 207.725C88.8857 207.858 88.3813 207.992 87.9001 208.133C87.0729 208.376 86.297 208.691 85.5254 209.016C85.405 209.066 85.2845 209.117 85.1641 209.168C84.5105 209.445 83.8539 209.723 83.1544 209.972C81.5067 210.559 79.6297 210.98 77.0893 210.793C76.451 210.746 76.0078 210.67 75.7174 210.577C75.4117 210.478 75.3456 210.383 75.3352 210.354C75.3291 210.338 75.3175 210.268 75.4551 210.105C75.5853 209.951 75.8005 209.772 76.0885 209.573C76.6088 209.213 77.3107 208.822 78.0236 208.426C78.0957 208.386 78.1679 208.345 78.24 208.305C79.0146 207.873 79.7875 207.434 80.2851 207.037Z" fill="white" stroke="#424242" stroke-width="0.494917"/>
<path d="M145.061 149.023C145.061 149.023 119.5 148.356 109.366 156.646C105.94 159.448 89.098 192.034 87.9834 194.946C88.7483 195.709 93.0507 197.085 94.9625 196.894C100.603 190.189 108.059 184.394 111.024 179.135C114.678 172.654 115.804 169.414 121.732 168.842C127.66 168.27 141.045 166.365 145.061 166.365C149.076 166.365 145.061 149.023 145.061 149.023Z" fill="#383838"/>
<path d="M167.351 211.083H166.011L156.403 171.127H159.35L167.351 211.083Z" fill="#2370ED"/>
<path d="M127.214 211.084H128.554L139.579 169.715H136.632L127.214 211.084Z" fill="#2370ED"/>
<path d="M159.623 147.277L144.761 149.835C144.761 149.835 125.013 150.015 115.986 151.691C107.774 153.216 106.564 162.517 115.986 175.324C121.339 182.599 125.865 188.403 135.12 194.946C137.475 193.223 138.375 192.571 139.026 188.426C138.356 187.511 136.622 181.782 136.083 180.661C130.965 169.994 124.131 166.115 124.037 165.066C125.184 163.208 154.426 174.752 160.24 167.961C165.792 161.478 159.623 147.277 159.623 147.277Z" fill="#424242"/>
<path d="M142.223 134.391C141.999 125.513 145.621 120.14 148.827 116.875C152.416 114.293 156.243 113.554 160.013 114.041C160.251 114.58 160.524 115.097 160.798 115.601C160.865 115.722 160.931 115.843 160.997 115.963C161.234 116.395 161.466 116.818 161.678 117.247C165.003 123.988 164.61 129.618 163.695 135.133C163.55 136.005 163.392 136.877 163.233 137.751C162.391 142.387 161.537 147.082 162.652 152.329C163.101 154.442 163.25 156.019 163.162 157.161C163.074 158.308 162.753 158.961 162.32 159.302C161.891 159.642 161.273 159.738 160.437 159.582C159.602 159.427 158.607 159.029 157.491 158.459C155.538 157.461 153.282 155.971 150.971 154.443C150.642 154.225 150.311 154.006 149.979 153.788C147.376 152.074 144.745 150.393 142.487 149.448C142.005 148.728 141.768 148.156 141.668 147.548C141.562 146.906 141.604 146.202 141.709 145.199C141.734 144.965 141.762 144.717 141.791 144.452C142.016 142.444 142.349 139.463 142.223 134.391Z" fill="#FF4800"/>
<path d="M162.652 152.329C161.537 147.082 162.391 142.387 163.233 137.751C163.392 136.877 163.55 136.005 163.695 135.133C164.61 129.618 165.003 123.988 161.678 117.247C161.466 116.818 161.234 116.395 160.997 115.963C160.931 115.843 160.865 115.722 160.798 115.601C160.524 115.097 160.251 114.58 160.013 114.041C156.243 113.554 152.416 114.293 148.827 116.875C145.621 120.14 141.999 125.513 142.223 134.391C142.349 139.463 142.016 142.444 141.791 144.452C141.762 144.717 141.734 144.965 141.709 145.199C141.604 146.202 141.562 146.906 141.668 147.548C141.768 148.156 142.005 148.728 142.487 149.448C144.745 150.393 147.376 152.074 149.979 153.788C150.311 154.006 150.642 154.225 150.971 154.443C153.282 155.971 155.538 157.461 157.491 158.459C158.607 159.029 159.602 159.427 160.437 159.582C161.273 159.738 161.891 159.642 162.32 159.302C162.753 158.961 163.074 158.308 163.162 157.161C163.25 156.019 163.101 154.442 162.652 152.329ZM162.652 152.329L162.973 152.261" stroke="#424242" stroke-width="0.655377"/>
<path fill-rule="evenodd" clip-rule="evenodd" d="M153.767 102.689C154.061 101.456 154.076 100.135 153.704 98.8257C152.471 94.498 148.786 91.748 145.472 92.6852C142.157 93.6223 140.47 97.891 141.702 102.22C142.933 106.55 145.298 109.491 148.612 108.554C149.815 108.213 150.978 107.409 151.912 106.316C152.644 108.909 153.193 112.625 151.071 114.388C150.339 114.995 149.491 115.733 148.61 116.627C152.341 113.937 156.326 113.195 160.24 113.743C157.83 108.056 157.238 101.667 157.238 101.667L153.767 102.689Z" fill="white"/>
<mask id="mask0_2502_26369" style="mask-type:luminance" maskUnits="userSpaceOnUse" x="141" y="92" width="20" height="25">
<path fill-rule="evenodd" clip-rule="evenodd" d="M153.766 102.689C154.06 101.456 154.075 100.135 153.703 98.8257C152.47 94.498 148.785 91.748 145.471 92.6852C142.156 93.6223 140.469 97.891 141.701 102.22C142.932 106.55 145.297 109.491 148.611 108.554C149.814 108.213 150.977 107.409 151.911 106.316C152.643 108.909 153.192 112.625 151.07 114.388C150.338 114.995 149.49 115.733 148.609 116.627C152.34 113.937 156.325 113.195 160.239 113.743C157.829 108.056 157.237 101.667 157.237 101.667L153.766 102.689Z" fill="#424242"/>
</mask>
<g mask="url(#mask0_2502_26369)">
<path d="M153.766 102.689L153.129 102.538L152.866 103.635L153.952 103.315L153.766 102.689ZM151.911 106.316L152.542 106.14L152.208 104.961L151.412 105.894L151.911 106.316ZM148.61 116.628L148.142 116.171L148.994 117.157L148.61 116.628ZM160.239 113.744L160.148 114.39L161.293 114.55L160.843 113.49L160.239 113.744ZM157.237 101.668L157.89 101.607L157.816 100.816L157.051 101.042L157.237 101.668ZM153.073 99.0041C153.412 100.196 153.399 101.404 153.129 102.538L154.403 102.84C154.721 101.511 154.74 100.075 154.334 98.6485L153.073 99.0041ZM145.65 93.3142C147.069 92.9129 148.611 93.2868 149.975 94.3043C151.34 95.3225 152.492 96.966 153.073 99.0047L154.334 98.6485C153.682 96.3595 152.375 94.4639 150.761 93.2594C149.146 92.0543 147.188 91.5221 145.292 92.058L145.65 93.3142ZM142.331 102.043C141.751 100.003 141.866 98.0012 142.491 96.4204C143.116 94.8402 144.232 93.7149 145.65 93.3142L145.292 92.058C143.396 92.5938 142.011 94.0717 141.271 95.9424C140.532 97.8124 140.419 100.109 141.07 102.399L142.331 102.043ZM148.433 107.926C147.039 108.32 145.858 107.92 144.839 106.901C143.791 105.853 142.932 104.155 142.331 102.043L141.07 102.399C141.701 104.615 142.64 106.553 143.911 107.823C145.212 109.123 146.87 109.725 148.791 109.182L148.433 107.926ZM151.412 105.894C150.544 106.909 149.487 107.628 148.433 107.926L148.791 109.182C150.143 108.8 151.41 107.91 152.41 106.739L151.412 105.894ZM151.28 106.493C151.639 107.762 151.94 109.268 151.906 110.648C151.872 112.036 151.503 113.18 150.651 113.887L151.49 114.89C152.76 113.835 153.178 112.239 153.217 110.68C153.255 109.113 152.916 107.463 152.542 106.14L151.28 106.493ZM150.651 113.887C149.91 114.502 149.044 115.255 148.142 116.171L149.078 117.085C149.938 116.212 150.768 115.49 151.49 114.89L150.651 113.887ZM148.994 117.157C152.577 114.573 156.388 113.863 160.148 114.39L160.33 113.097C156.263 112.527 152.104 113.302 148.226 116.099L148.994 117.157ZM160.843 113.49C159.662 110.704 158.922 107.733 158.478 105.449C158.256 104.309 158.108 103.345 158.017 102.668C157.971 102.329 157.939 102.062 157.918 101.881C157.909 101.79 157.901 101.721 157.896 101.675C157.894 101.652 157.892 101.634 157.891 101.623C157.891 101.618 157.89 101.613 157.89 101.611C157.89 101.61 157.89 101.608 157.89 101.607C157.89 101.607 157.89 101.607 157.237 101.668C156.584 101.727 156.584 101.728 156.584 101.728C156.584 101.729 156.584 101.729 156.585 101.73C156.585 101.73 156.585 101.732 156.585 101.733C156.585 101.737 156.586 101.743 156.587 101.749C156.588 101.763 156.59 101.781 156.592 101.807C156.597 101.857 156.605 101.931 156.616 102.026C156.637 102.216 156.67 102.493 156.718 102.842C156.812 103.54 156.963 104.529 157.191 105.697C157.644 108.029 158.406 111.096 159.635 113.997L160.843 113.49ZM157.051 101.042L153.58 102.063L153.952 103.315L157.423 102.294L157.051 101.042Z" fill="#424242"/>
</g>
<path d="M152.458 172.792C152.054 172.792 151.641 172.787 151.216 172.776C145.92 172.646 142.315 171.915 139.417 171.33C136.035 170.644 134.172 170.267 132.003 171.3C131.17 171.696 130.174 171.345 129.775 170.515C129.377 169.684 129.73 168.692 130.563 168.294C133.741 166.78 136.401 167.319 140.082 168.066C142.85 168.627 146.296 169.324 151.299 169.448C156.897 169.587 160.311 168.759 162.041 166.847C163.582 165.143 164.034 162.28 163.461 157.838C163.265 156.318 163.068 155.052 162.895 153.936C162.407 150.789 162.084 148.71 162.484 145.495C162.855 142.51 163.846 138.533 166.143 130.822C166.406 129.941 167.335 129.439 168.22 129.699C169.104 129.961 169.61 130.888 169.347 131.77C165.067 146.138 165.284 147.538 166.197 153.428C166.373 154.564 166.573 155.85 166.774 157.413C167.481 162.892 166.766 166.598 164.523 169.078C162.212 171.629 158.462 172.792 152.458 172.792Z" fill="#2370ED"/>
<path d="M93.0691 202.652C86.2178 205.992 82.531 207.906 80.3343 207.724C79.8152 207.681 79.3854 207.627 79.0253 207.571C76.5815 209.011 72.682 210.712 77.0694 211.036C82.2327 211.417 84.718 209.321 87.9682 208.367C91.2184 207.414 95.2353 206.842 93.7056 204.365C93.4127 203.891 93.2005 203.308 93.0691 202.652Z" fill="#FF4800"/>
<path d="M145.508 196.711C145.342 202.117 144.596 207.475 141.278 208.487C140.398 208.756 139.596 208.794 138.888 208.7C138.366 209.343 137.729 209.351 136.875 210.296C135.584 211.726 144.188 210.726 145.192 210.296C146.197 209.867 146.627 201.434 147.702 199.29C148.585 197.529 146.807 197.118 145.508 196.711Z" fill="#FF4800"/>
<path d="M119.118 145.541H97.3525C96.702 145.541 96.1114 145.165 95.8368 144.578L87.0407 125.71C86.6518 124.876 87.0156 123.885 87.852 123.497C88.6896 123.109 89.6825 123.472 90.0714 124.306L98.4182 142.211H119.118C120.04 142.211 120.788 142.957 120.788 143.876C120.788 144.796 120.042 145.541 119.118 145.541Z" fill="#424242"/>
<path fill-rule="evenodd" clip-rule="evenodd" d="M148.695 124.766C150.507 120.128 151.753 116.944 155.805 115.532C159.077 114.391 161.027 118.814 160.239 124.721C159.669 128.993 148.632 145.404 142.179 146.119C136.648 146.732 129.977 144.646 123.327 142.307C118.659 141.033 117.859 141.567 117.239 141.981C116.863 142.232 116.553 142.439 115.487 142.171C113.215 141.6 111.97 140.283 111.417 139.699C111.24 139.512 111.135 139.4 111.088 139.411C111.047 139.42 110.746 139.566 110.293 139.786C108.673 140.572 105.093 142.31 104.396 142.162C103.503 141.971 110.579 137.079 112.746 136.698C113.769 136.518 115.279 137.005 117.051 137.575C118.311 137.981 119.703 138.43 121.146 138.711C121.426 138.735 121.722 138.766 122.034 138.804C130.815 139.874 138.075 139.816 138.075 139.816C138.075 139.816 140.95 139.893 144.046 134.685C146.297 130.896 147.6 127.566 148.695 124.766Z" fill="white"/>
<mask id="mask1_2502_26369" style="mask-type:luminance" maskUnits="userSpaceOnUse" x="104" y="115" width="57" height="32">
<path fill-rule="evenodd" clip-rule="evenodd" d="M148.697 124.764C150.509 120.127 151.755 116.942 155.807 115.53C159.079 114.389 161.029 118.812 160.24 124.719C159.671 128.991 148.634 145.402 142.181 146.117C136.65 146.73 129.979 144.644 123.329 142.305C118.661 141.031 117.861 141.565 117.241 141.979C116.865 142.23 116.555 142.437 115.489 142.169C113.217 141.598 111.972 140.281 111.419 139.697C111.242 139.51 111.137 139.398 111.09 139.409C111.049 139.418 110.748 139.564 110.295 139.784C108.674 140.57 105.095 142.308 104.398 142.16C103.505 141.969 110.581 137.078 112.748 136.696C113.77 136.516 115.281 137.003 117.053 137.573C118.313 137.979 119.705 138.428 121.148 138.709C121.428 138.733 121.724 138.764 122.036 138.802C130.817 139.872 138.077 139.814 138.077 139.814C138.077 139.814 140.952 139.891 144.048 134.683C146.299 130.894 147.602 127.564 148.697 124.764Z" fill="#424242"/>
</mask>
<g mask="url(#mask1_2502_26369)">
<path d="M123.329 142.305L123.547 141.69L123.525 141.682L123.502 141.676L123.329 142.305ZM115.488 142.169L115.327 142.802L115.328 142.803L115.488 142.169ZM112.747 136.696L112.633 136.053L112.633 136.054L112.747 136.696ZM121.147 138.71L121.021 139.351L121.056 139.357L121.091 139.36L121.147 138.71ZM138.076 139.815L138.094 139.162H138.082H138.071L138.076 139.815ZM155.59 114.914C151.21 116.441 149.877 119.944 148.085 124.528L149.306 125.002C151.141 120.31 152.298 117.444 156.022 116.146L155.59 114.914ZM160.89 124.806C161.293 121.78 161.009 119.06 160.14 117.205C159.704 116.276 159.097 115.517 158.307 115.083C157.497 114.637 156.565 114.574 155.59 114.914L156.022 116.146C156.683 115.916 157.223 115.978 157.674 116.226C158.145 116.484 158.59 116.987 158.952 117.758C159.679 119.307 159.975 121.752 159.59 124.634L160.89 124.806ZM142.253 146.767C144.079 146.564 146.109 145.285 148.077 143.564C150.071 141.821 152.102 139.533 153.937 137.15C155.773 134.764 157.425 132.264 158.656 130.085C159.273 128.996 159.787 127.98 160.168 127.093C160.544 126.217 160.807 125.428 160.89 124.806L159.59 124.634C159.531 125.079 159.324 125.738 158.963 126.58C158.606 127.411 158.114 128.384 157.514 129.444C156.315 131.567 154.698 134.015 152.896 136.356C151.094 138.698 149.12 140.915 147.212 142.583C145.278 144.275 143.508 145.314 142.108 145.469L142.253 146.767ZM123.11 142.921C129.734 145.251 136.548 147.398 142.253 146.767L142.108 145.469C136.751 146.062 130.224 144.038 123.547 141.69L123.11 142.921ZM117.606 142.522C117.759 142.419 117.871 142.347 118.028 142.288C118.185 142.229 118.415 142.173 118.786 142.162C119.548 142.139 120.839 142.303 123.156 142.935L123.502 141.676C121.15 141.034 119.707 140.828 118.747 140.857C118.256 140.872 117.879 140.948 117.566 141.066C117.253 141.184 117.032 141.333 116.876 141.437L117.606 142.522ZM115.328 142.803C115.906 142.948 116.357 142.985 116.747 142.911C117.15 142.833 117.421 142.646 117.606 142.522L116.876 141.437C116.685 141.565 116.612 141.607 116.499 141.629C116.375 141.652 116.137 141.659 115.648 141.537L115.328 142.803ZM110.941 140.145C111.515 140.751 112.868 142.183 115.327 142.802L115.648 141.537C113.565 141.012 112.427 139.812 111.895 139.25L110.941 140.145ZM111.238 140.045C111.093 140.078 110.975 140.053 110.913 140.033C110.85 140.014 110.806 139.988 110.789 139.977C110.755 139.957 110.742 139.942 110.761 139.958C110.794 139.989 110.846 140.044 110.941 140.145L111.895 139.25C111.814 139.164 111.725 139.069 111.65 139C111.614 138.966 111.555 138.914 111.483 138.87C111.447 138.848 111.23 138.707 110.942 138.773L111.238 140.045ZM110.582 140.371C110.81 140.26 110.995 140.17 111.129 140.107C111.197 140.075 111.247 140.052 111.281 140.036C111.299 140.028 111.308 140.024 111.31 140.023C111.329 140.016 111.291 140.033 111.238 140.045L110.942 138.773C110.878 138.788 110.822 138.812 110.814 138.815C110.791 138.825 110.766 138.835 110.742 138.846C110.695 138.867 110.633 138.896 110.564 138.929C110.424 138.996 110.233 139.088 110.008 139.198L110.582 140.371ZM104.26 142.798C104.491 142.848 104.739 142.809 104.918 142.772C105.122 142.73 105.353 142.662 105.594 142.58C106.08 142.418 106.663 142.181 107.262 141.922C108.461 141.401 109.773 140.763 110.582 140.371L110.008 139.198C109.195 139.592 107.908 140.217 106.738 140.724C106.152 140.979 105.608 141.198 105.176 141.344C104.958 141.417 104.782 141.467 104.65 141.494C104.494 141.526 104.478 141.51 104.534 141.522L104.26 142.798ZM112.633 136.054C111.974 136.17 111.041 136.597 110.091 137.11C109.114 137.638 108.036 138.303 107.059 138.958C106.084 139.613 105.191 140.27 104.592 140.785C104.302 141.035 104.041 141.284 103.882 141.501C103.819 141.586 103.684 141.779 103.666 142.025C103.655 142.179 103.689 142.379 103.838 142.552C103.976 142.713 104.148 142.775 104.26 142.798L104.534 141.522C104.59 141.534 104.722 141.574 104.835 141.705C104.958 141.849 104.981 142.011 104.974 142.118C104.963 142.271 104.89 142.339 104.939 142.272C105.004 142.183 105.167 142.016 105.449 141.774C105.992 141.307 106.837 140.681 107.791 140.041C108.742 139.403 109.784 138.761 110.715 138.258C111.673 137.741 112.436 137.414 112.861 137.339L112.633 136.054ZM117.254 136.953C116.376 136.67 115.527 136.396 114.769 136.218C114.021 136.043 113.28 135.94 112.633 136.053L112.861 137.339C113.237 137.273 113.763 137.323 114.469 137.489C115.164 137.652 115.958 137.907 116.851 138.195L117.254 136.953ZM121.274 138.069C119.875 137.796 118.519 137.361 117.254 136.953L116.851 138.195C118.105 138.599 119.534 139.06 121.021 139.351L121.274 138.069ZM122.116 138.155C121.795 138.116 121.491 138.084 121.203 138.06L121.091 139.36C121.363 139.384 121.651 139.413 121.956 139.451L122.116 138.155ZM138.076 139.815C138.071 139.162 138.071 139.162 138.071 139.162H138.07C138.069 139.162 138.068 139.162 138.066 139.162C138.063 139.162 138.058 139.162 138.051 139.162C138.038 139.162 138.017 139.162 137.991 139.162C137.936 139.162 137.855 139.162 137.748 139.162C137.535 139.162 137.22 139.16 136.814 139.154C136.001 139.143 134.825 139.117 133.376 139.058C130.476 138.939 126.484 138.687 122.116 138.155L121.956 139.451C126.368 139.988 130.397 140.242 133.322 140.362C134.784 140.422 135.972 140.448 136.795 140.46C137.207 140.465 137.528 140.467 137.745 140.467C137.854 140.468 137.938 140.468 137.994 140.467C138.022 140.467 138.044 140.467 138.058 140.467C138.066 140.467 138.071 140.467 138.075 140.467C138.077 140.467 138.079 140.467 138.08 140.467C138.08 140.467 138.08 140.467 138.081 140.467C138.081 140.467 138.082 140.467 138.076 139.815ZM143.483 134.351C141.982 136.877 140.565 138.07 139.575 138.636C139.078 138.92 138.682 139.05 138.425 139.11C138.295 139.14 138.2 139.153 138.143 139.158C138.115 139.161 138.096 139.161 138.088 139.162C138.083 139.162 138.082 139.162 138.082 139.162C138.083 139.162 138.085 139.162 138.087 139.162C138.087 139.162 138.088 139.162 138.09 139.162C138.09 139.162 138.091 139.162 138.091 139.162C138.092 139.162 138.093 139.162 138.093 139.162C138.093 139.162 138.094 139.162 138.076 139.815C138.058 140.467 138.059 140.467 138.06 140.467C138.06 140.467 138.06 140.467 138.061 140.467C138.062 140.467 138.063 140.467 138.064 140.467C138.066 140.467 138.068 140.467 138.07 140.467C138.074 140.467 138.08 140.467 138.086 140.467C138.098 140.467 138.113 140.467 138.131 140.466C138.165 140.466 138.212 140.463 138.268 140.458C138.381 140.447 138.534 140.425 138.723 140.381C139.101 140.293 139.617 140.117 140.227 139.768C141.448 139.071 143.017 137.699 144.611 135.016L143.483 134.351ZM148.085 124.528C146.991 127.327 145.705 130.612 143.483 134.351L144.611 135.016C146.892 131.177 148.211 127.803 149.306 125.002L148.085 124.528Z" fill="#424242"/>
</g>
<path d="M146.349 119.678L148.404 116.151L148.437 116.094L148.446 116.029L148.911 112.482L159.318 108.99L159.873 113.443C159.717 113.456 159.515 113.473 159.275 113.496C158.692 113.553 157.885 113.646 156.989 113.789C155.209 114.072 153.027 114.56 151.557 115.385C150.1 116.201 148.321 117.772 146.922 119.118C146.723 119.31 146.531 119.497 146.349 119.678Z" fill="#FFEDE6" stroke="#424242" stroke-width="0.655377"/>
<path d="M124.482 139.368C124.494 139.232 124.505 139.112 124.514 139.013C124.603 139.018 124.711 139.025 124.834 139.032C125.24 139.056 125.82 139.09 126.52 139.128C127.918 139.204 129.794 139.294 131.699 139.355C133.603 139.415 135.542 139.445 137.065 139.4C137.826 139.377 138.492 139.335 139.001 139.267C139.255 139.233 139.479 139.192 139.66 139.139C139.826 139.091 140.012 139.02 140.135 138.893C140.393 138.625 140.876 137.949 141.484 137.022C142.1 136.083 142.861 134.86 143.677 133.475C145.309 130.707 147.17 127.284 148.548 124.187C149.923 121.096 151.079 118.657 152.403 117.083C153.061 116.302 153.747 115.751 154.505 115.437C155.259 115.126 156.108 115.04 157.111 115.227C159.019 115.584 161.426 118.312 160.797 123.891C160.644 125.247 159.905 127.25 158.846 129.53C157.792 131.8 156.438 134.308 155.086 136.663C153.734 139.016 152.386 141.212 151.344 142.854C150.824 143.676 150.38 144.358 150.051 144.852C149.886 145.099 149.751 145.299 149.65 145.444C149.599 145.517 149.557 145.576 149.525 145.62C149.509 145.641 149.496 145.658 149.486 145.672C149.48 145.679 149.477 145.683 149.474 145.687L149.47 145.691C149.469 145.693 149.469 145.693 149.469 145.693C149.453 145.71 149.398 145.755 149.262 145.812C149.133 145.867 148.961 145.922 148.743 145.976C148.308 146.085 147.728 146.182 147.036 146.269C145.654 146.442 143.863 146.568 141.985 146.663C140.137 146.757 137.198 146.506 134.589 146.149C133.287 145.97 132.077 145.766 131.134 145.568C130.663 145.469 130.263 145.372 129.954 145.281C129.632 145.186 129.447 145.109 129.374 145.06C128.903 144.743 128.415 144.383 128.042 144.102C127.856 143.961 127.7 143.841 127.59 143.756C127.536 143.713 127.493 143.679 127.463 143.656L127.43 143.63L127.422 143.623L127.419 143.621H127.419L127.326 143.547L127.206 143.55H127.205H127.2L127.18 143.55C127.162 143.55 127.135 143.551 127.101 143.551C127.032 143.552 126.933 143.552 126.812 143.552C126.57 143.549 126.244 143.541 125.907 143.518C125.566 143.495 125.224 143.457 124.944 143.396C124.805 143.365 124.689 143.331 124.602 143.295C124.519 143.26 124.481 143.232 124.469 143.22C124.466 143.215 124.461 143.204 124.453 143.184C124.44 143.147 124.426 143.093 124.412 143.021C124.386 142.877 124.368 142.686 124.357 142.458C124.337 142.002 124.351 141.435 124.378 140.875C124.406 140.316 124.447 139.772 124.482 139.368Z" fill="#FF4800" stroke="#424242" stroke-width="0.655377"/>
<path d="M144.707 88.9857C136.712 89.3675 137.966 101.355 137.966 101.355C137.966 101.355 140.042 101.993 144.392 101.279C144.059 99.9917 144.202 96.7046 144.202 96.7046C144.202 96.7046 144.708 99.3736 145.35 100.993C146.269 101.413 147.31 101.041 149.078 100.615C149.987 104.425 152.553 106.034 154.311 106.584C156.252 107.193 158.308 107.919 160.602 106.775C162.897 105.63 161.636 93.9419 160.417 91.5908C158.587 88.062 155.548 84.904 150.289 86.5719C147.651 87.4092 144.707 88.9857 144.707 88.9857Z" fill="#424242"/>
<path d="M48.1299 211.083H50.2777L58.6337 147.418H53.9086L48.1299 211.083Z" fill="#2370ED"/>
<path d="M121.017 211.083H118.869L110.513 147.418H115.239L121.017 211.083Z" fill="#2370ED"/>
<path d="M154.829 118.824C154.793 118.894 154.774 119.131 154.985 119.529C155.249 120.026 154.829 120.639 154.829 120.669" stroke="white" stroke-width="0.327687"/>
<path d="M157.488 110.664C157.452 110.733 157.433 110.971 157.644 111.368C157.908 111.865 157.488 112.479 157.488 112.508" stroke="#FF4800" stroke-width="0.327687"/>
<path d="M133.467 141.838C133.431 141.907 133.411 142.145 133.623 142.542C133.887 143.039 133.467 143.653 133.467 143.682" stroke="white" stroke-width="0.327687"/>
<path d="M145.142 142.76C145.105 142.829 145.086 143.067 145.297 143.464C145.561 143.961 145.142 144.574 145.142 144.604" stroke="white" stroke-width="0.327687"/>
<path d="M147.81 148.52C147.774 148.589 147.754 148.826 147.966 149.224C148.23 149.721 147.81 150.334 147.81 150.363" stroke="white" stroke-width="0.327687"/>
<path d="M156.019 149.441C155.982 149.511 155.963 149.748 156.174 150.146C156.438 150.643 156.019 151.256 156.019 151.285" stroke="white" stroke-width="0.327687"/>
<path d="M146.386 135.344C146.35 135.413 146.33 135.651 146.541 136.048C146.805 136.545 146.386 137.158 146.386 137.188" stroke="white" stroke-width="0.327687"/>
<path d="M154.829 129.867C154.793 129.936 154.774 130.174 154.985 130.572C155.249 131.068 154.829 131.682 154.829 131.711" stroke="white" stroke-width="0.327687"/>
<path d="M158.191 138.389C158.155 138.458 158.135 138.696 158.347 139.093C158.611 139.59 158.191 140.204 158.191 140.233" stroke="white" stroke-width="0.327687"/>
<path d="M146.12 123.447C146.084 123.516 146.065 123.754 146.276 124.151C146.54 124.648 146.12 125.262 146.12 125.291" stroke="white" stroke-width="0.327687"/>
<path d="M162.294 127.139C162.258 127.207 162.238 127.446 162.45 127.843C162.714 128.34 162.294 128.953 162.294 128.983" stroke="white" stroke-width="0.327687"/>
<path d="M150.213 127.137C150.394 127.137 150.541 126.991 150.541 126.811C150.541 126.63 150.394 126.484 150.213 126.484C150.032 126.484 149.886 126.63 149.886 126.811C149.886 126.991 150.032 127.137 150.213 127.137Z" fill="white"/>
<path d="M152.415 136.534C152.596 136.534 152.742 136.387 152.742 136.207C152.742 136.027 152.596 135.881 152.415 135.881C152.234 135.881 152.087 136.027 152.087 136.207C152.087 136.387 152.234 136.534 152.415 136.534Z" fill="white"/>
<path d="M157.404 124.698C157.585 124.698 157.732 124.552 157.732 124.371C157.732 124.191 157.585 124.045 157.404 124.045C157.223 124.045 157.076 124.191 157.076 124.371C157.076 124.552 157.223 124.698 157.404 124.698Z" fill="white"/>
<path d="M150.541 114.227C150.722 114.227 150.868 114.081 150.868 113.901C150.868 113.72 150.722 113.574 150.541 113.574C150.36 113.574 150.213 113.72 150.213 113.901C150.213 114.081 150.36 114.227 150.541 114.227Z" fill="#FF4800"/>
<path d="M144.26 128.711C144.441 128.711 144.588 128.565 144.588 128.385C144.588 128.205 144.441 128.059 144.26 128.059C144.079 128.059 143.933 128.205 143.933 128.385C143.933 128.565 144.079 128.711 144.26 128.711Z" fill="white"/>
<path d="M139.52 142.643C139.701 142.643 139.848 142.497 139.848 142.317C139.848 142.136 139.701 141.99 139.52 141.99C139.339 141.99 139.192 142.136 139.192 142.317C139.192 142.497 139.339 142.643 139.52 142.643Z" fill="white"/>
<path d="M128.178 141.723C128.359 141.723 128.506 141.577 128.506 141.397C128.506 141.216 128.359 141.07 128.178 141.07C127.997 141.07 127.851 141.216 127.851 141.397C127.851 141.577 127.997 141.723 128.178 141.723Z" fill="white"/>
<path d="M155.401 144.93C155.582 144.93 155.729 144.784 155.729 144.604C155.729 144.423 155.582 144.277 155.401 144.277C155.22 144.277 155.073 144.423 155.073 144.604C155.073 144.784 155.22 144.93 155.401 144.93Z" fill="white"/>
<path d="M159.168 155.248C159.349 155.248 159.496 155.102 159.496 154.922C159.496 154.742 159.349 154.596 159.168 154.596C158.988 154.596 158.841 154.742 158.841 154.922C158.841 155.102 158.988 155.248 159.168 155.248Z" fill="white"/>
<path d="M161.553 133.922C161.734 133.922 161.881 133.776 161.881 133.596C161.881 133.416 161.734 133.27 161.553 133.27C161.372 133.27 161.226 133.416 161.226 133.596C161.226 133.776 161.372 133.922 161.553 133.922Z" fill="white"/>
<path d="M188.812 197.481C188.812 197.356 188.912 197.256 189.037 197.256H201.462C201.587 197.256 201.688 197.356 201.688 197.481V198.971C201.688 199.095 201.587 199.196 201.462 199.196H189.037C188.912 199.196 188.812 199.095 188.812 198.971V197.481Z" fill="white" stroke="#424242" stroke-width="0.45101"/>
<path d="M190.855 209.998L189.88 199.197H200.796L199.503 209.998H190.855Z" fill="white" stroke="#424242" stroke-width="0.45101" stroke-linejoin="round"/>
<path d="M195.249 197.033C195.013 188.278 196.781 167.492 205.741 154.389" stroke="#424242" stroke-width="0.45101" stroke-linejoin="round"/>
<path d="M200.354 193.644C196.384 195.225 195.013 192.231 194.824 190.537C194.731 189.749 194.986 187.692 196.727 185.687C196.781 185.626 196.841 185.57 196.905 185.518C197.287 185.214 197.489 184.737 197.44 184.252L197.38 183.651C197.289 182.755 197.681 181.879 198.408 181.345L198.817 181.045C199.53 180.521 200.014 179.744 200.168 178.875L200.29 178.187C200.332 177.952 200.429 177.729 200.573 177.537C200.709 177.357 200.881 177.207 201.082 177.104C201.356 176.962 201.693 176.802 202.055 176.708C202.764 176.523 203.331 176.708 204.082 177.405C204.182 177.544 204.277 177.704 204.366 177.889C204.435 178.033 204.465 178.194 204.465 178.354C204.465 178.565 204.41 178.773 204.306 178.957L203.965 179.561C203.467 180.442 203.335 181.482 203.597 182.459L203.638 182.613C203.716 182.905 203.756 183.206 203.756 183.508V183.853C203.756 184.603 203.441 185.319 202.888 185.828C202.273 186.393 201.956 187.211 202.029 188.041L202.167 189.593C202.278 190.848 202.041 192.164 201.155 193.063C200.881 193.34 200.601 193.562 200.354 193.644Z" fill="#FFD600" stroke="#424242" stroke-width="0.45101" stroke-linejoin="round"/>
<path d="M196.242 197.033C197.329 192.844 199.815 184.042 201.062 182.348" stroke="#424242" stroke-width="0.45101" stroke-linejoin="round"/>
<path d="M188.899 187.507C193.646 188.707 194.743 185.091 194.698 183.132C194.683 182.221 194.078 179.916 191.795 177.897C191.725 177.835 191.649 177.779 191.568 177.731C191.087 177.442 190.786 176.931 190.767 176.372L190.744 175.676C190.708 174.642 190.129 173.702 189.219 173.203L188.714 172.926C187.824 172.437 187.155 171.627 186.849 170.661L186.604 169.894C186.52 169.632 186.376 169.393 186.183 169.197C186.002 169.012 185.782 168.867 185.538 168.779C185.205 168.659 184.798 168.528 184.374 168.477C183.541 168.374 182.926 168.67 182.18 169.577C182.088 169.75 182.005 169.947 181.932 170.171C181.875 170.347 181.866 170.533 181.891 170.716C181.923 170.956 182.017 171.184 182.163 171.378L182.643 172.014C183.343 172.943 183.652 174.107 183.505 175.258L183.481 175.442C183.437 175.786 183.438 176.135 183.485 176.479L183.538 176.874C183.652 177.727 184.119 178.494 184.825 178.99C185.61 179.541 186.094 180.421 186.138 181.376L186.219 183.169C186.285 184.615 186.756 186.077 187.901 186.968C188.255 187.242 188.606 187.452 188.899 187.507Z" fill="#4BE477" stroke="#424242" stroke-width="0.45101" stroke-linejoin="round"/>
<path d="M185.893 173.311C188.256 177.406 192.953 187.911 192.84 197.174" stroke="#424242" stroke-width="0.45101" stroke-linejoin="round"/>
<path d="M200.289 173.597C193.531 174.799 192.353 169.649 192.608 166.923C192.718 165.654 193.791 162.502 197.182 159.914C197.287 159.835 197.399 159.765 197.516 159.706C198.217 159.35 198.689 158.666 198.77 157.887L198.872 156.923C199.022 155.486 199.923 154.234 201.241 153.629L201.981 153.29C203.274 152.698 204.288 151.633 204.814 150.316L205.229 149.274C205.372 148.917 205.597 148.598 205.887 148.343C206.158 148.104 206.479 147.924 206.828 147.826C207.305 147.691 207.888 147.55 208.486 147.519C209.661 147.458 210.493 147.932 211.446 149.27C211.558 149.52 211.655 149.804 211.735 150.123C211.798 150.374 211.792 150.634 211.74 150.886C211.671 151.218 211.517 151.527 211.294 151.782L210.56 152.622C209.49 153.846 208.943 155.439 209.036 157.06L209.051 157.316C209.078 157.8 209.042 158.287 208.944 158.762L208.832 159.303C208.587 160.483 207.858 161.507 206.822 162.128C205.671 162.818 204.907 164 204.751 165.328L204.462 167.814C204.227 169.823 203.425 171.815 201.738 172.942C201.216 173.29 200.704 173.548 200.289 173.597Z" stroke="#424242" stroke-width="0.45101" stroke-linejoin="round"/>
<path d="M233.022 120.583C234.252 120.583 235.249 119.59 235.249 118.365C235.249 117.14 234.252 116.146 233.022 116.146C231.792 116.146 230.795 117.14 230.795 118.365C230.795 119.59 231.792 120.583 233.022 120.583Z" stroke="#FF4800" stroke-width="0.494917"/>
</g>
<defs>
<clipPath id="clip0_2502_26369">
<rect width="236" height="218" fill="white"/>
</clipPath>
</defs>
</svg>
