<svg width="768" height="584" viewBox="0 0 768 584" fill="none" xmlns="http://www.w3.org/2000/svg">
<defs>
<filter id="filter0_f_1325_975" x="-77.9887" y="-485.139" width="1022.5" height="926.128" filterUnits="userSpaceOnUse" color-interpolation-filters="sRGB">
<feFlood flood-opacity="0" result="BackgroundImageFix"/>
<feBlend mode="normal" in="SourceGraphic" in2="BackgroundImageFix" result="shape"/>
<feGaussianBlur stdDeviation="55.6853" result="effect1_foregroundBlur_1325_975"/>
</filter>
<filter id="filter1_f_1325_975" x="-268.483" y="-69.2808" width="1179.39" height="1136.27" filterUnits="userSpaceOnUse" color-interpolation-filters="sRGB">
<feFlood flood-opacity="0" result="BackgroundImageFix"/>
<feBlend mode="normal" in="SourceGraphic" in2="BackgroundImageFix" result="shape"/>
<feGaussianBlur stdDeviation="50" result="effect1_foregroundBlur_1325_975"/>
</filter>
<filter id="filter2_bii_1325_975" x="-61.0667" y="-27.0667" width="856.133" height="1420.13" filterUnits="userSpaceOnUse" color-interpolation-filters="sRGB">
<feFlood flood-opacity="0" result="BackgroundImageFix"/>
<feGaussianBlur in="BackgroundImageFix" stdDeviation="4.06"/>
<feComposite in2="SourceAlpha" operator="in" result="effect1_backgroundBlur_1325_975"/>
<feBlend mode="normal" in="SourceGraphic" in2="effect1_backgroundBlur_1325_975" result="shape"/>
<feColorMatrix in="SourceAlpha" type="matrix" values="0 0 0 0 0 0 0 0 0 0 0 0 0 0 0 0 0 0 127 0" result="hardAlpha"/>
<feOffset dx="-27.0667" dy="27.0667"/>
<feGaussianBlur stdDeviation="13.5333"/>
<feComposite in2="hardAlpha" operator="arithmetic" k2="-1" k3="1"/>
<feColorMatrix type="matrix" values="0 0 0 0 1 0 0 0 0 1 0 0 0 0 1 0 0 0 0.085 0"/>
<feBlend mode="normal" in2="shape" result="effect2_innerShadow_1325_975"/>
<feColorMatrix in="SourceAlpha" type="matrix" values="0 0 0 0 0 0 0 0 0 0 0 0 0 0 0 0 0 0 127 0" result="hardAlpha"/>
<feOffset dx="27.0667" dy="-27.0667"/>
<feGaussianBlur stdDeviation="13.5333"/>
<feComposite in2="hardAlpha" operator="arithmetic" k2="-1" k3="1"/>
<feColorMatrix type="matrix" values="0 0 0 0 0.76 0 0 0 0 0.76 0 0 0 0 0.76 0 0 0 0.085 0"/>
<feBlend mode="normal" in2="effect2_innerShadow_1325_975" result="effect3_innerShadow_1325_975"/>
</filter>
<linearGradient id="paint0_linear_1325_975" x1="707.686" y1="117.103" x2="598.596" y2="109.848" gradientUnits="userSpaceOnUse">
<stop stop-color="#CEB7FB"/>
<stop offset="1" stop-color="#DECDFF" stop-opacity="0.2"/>
</linearGradient>
<linearGradient id="paint1_linear_1325_975" x1="59.3488" y1="157.297" x2="108.149" y2="160.542" gradientUnits="userSpaceOnUse">
<stop stop-color="#CEB7FB"/>
<stop offset="1" stop-color="#DECDFF" stop-opacity="0.2"/>
</linearGradient>
<linearGradient id="paint2_linear_1325_975" x1="174.863" y1="453.43" x2="202.363" y2="477.93" gradientUnits="userSpaceOnUse">
<stop stop-color="#FFD2C0"/>
<stop offset="1" stop-color="#FFD2C0" stop-opacity="0.34"/>
</linearGradient>
<clipPath id="clip0_1325_975">
<rect width="584" height="768" fill="white" transform="translate(768) rotate(90)"/>
</clipPath>
<clipPath id="clip1_1325_975">
<rect width="332" height="306.678" fill="white" transform="translate(218 139)"/>
</clipPath>
</defs>
<g clip-path="url(#clip0_1325_975)">
<g opacity="0.1" filter="url(#filter0_f_1325_975)">
<path fill-rule="evenodd" clip-rule="evenodd" d="M782.726 -341.646C866.867 -260.384 832.621 -111.066 774.861 14.1896C718.833 135.69 617.894 249.365 485.704 302.458C360.922 352.577 233.197 328.756 142.102 268.337C65.2013 217.332 71.3788 114.664 61.5208 21.118C50.6082 -82.4335 -7.1579 -197.99 83.6813 -286.032C174.285 -373.845 303.489 -318.069 421.142 -327.429C548.899 -337.593 704.75 -416.955 782.726 -341.646Z" fill="#D3BCFF"/>
</g>
<path opacity="0.7" d="M700.293 125.042C704.489 96.957 685.126 70.7925 657.041 66.5967C628.957 62.4008 602.792 81.7635 598.596 109.848C594.4 137.933 613.763 164.097 641.848 168.293C669.933 172.489 696.097 153.126 700.293 125.042ZM618.563 112.831C621.111 95.7746 637.002 84.0148 654.058 86.563C671.115 89.1113 682.875 105.002 680.327 122.059C677.778 139.115 661.887 150.875 644.831 148.327C627.774 145.779 616.014 129.888 618.563 112.831Z" fill="url(#paint0_linear_1325_975)"/>
<path opacity="0.7" d="M62.6561 153.746C60.7791 166.309 69.4408 178.014 82.0042 179.89C94.5675 181.767 106.272 173.106 108.149 160.542C110.026 147.979 101.364 136.275 88.8008 134.398C76.2374 132.521 64.5331 141.182 62.6561 153.746ZM99.2171 159.208C98.0772 166.838 90.9686 172.099 83.3386 170.959C75.7085 169.819 70.4479 162.71 71.5878 155.08C72.7277 147.45 79.8363 142.19 87.4664 143.329C95.0964 144.469 100.357 151.578 99.2171 159.208Z" fill="url(#paint1_linear_1325_975)"/>
<path opacity="0.5" d="M214.833 472.134C216.938 458.044 207.224 444.917 193.133 442.812C179.043 440.707 165.916 450.421 163.811 464.511C161.706 478.602 171.42 491.729 185.511 493.834C199.601 495.939 212.728 486.225 214.833 472.134ZM173.828 466.008C175.107 457.451 183.079 451.551 191.637 452.829C200.194 454.107 206.094 462.08 204.816 470.638C203.537 479.195 195.565 485.095 187.007 483.817C178.45 482.538 172.55 474.565 173.828 466.008Z" fill="url(#paint2_linear_1325_975)"/>
<g opacity="0.1" filter="url(#filter1_f_1325_975)">
<path fill-rule="evenodd" clip-rule="evenodd" d="M720.807 126.653C838.455 252.329 823.156 449.519 774.736 609.745C727.768 765.168 624.355 901.912 471.817 950.588C327.826 996.537 167.019 941.285 44.5717 842.746C-58.7966 759.562 -69.566 620.874 -98.3604 491.744C-130.235 348.801 -221.682 181.142 -126.069 77.4948C-30.705 -25.8838 137.623 73.1418 280.158 81.4154C434.932 90.3994 611.779 10.1844 720.807 126.653Z" fill="#92BCFF"/>
</g>
<g filter="url(#filter2_bii_1325_975)">
<rect x="768" width="1366" height="802" transform="rotate(90 768 0)" fill="white" fill-opacity="0.085"/>
</g>
<g clip-path="url(#clip1_1325_975)">
<path opacity="0.5" d="M286.069 268.485C292.905 289.13 307.638 311.754 329.324 319.122C362.083 330.253 365.008 357.041 424.466 356.828C433.147 356.843 441.803 355.917 450.283 354.067C454.428 353.149 458.511 351.969 462.506 350.534C497.729 337.879 517.013 307.786 519.775 275.627C523.403 233.334 494.501 211.992 475.683 199.408C456.866 186.825 435.377 140.124 376.923 139.847C368 139.771 359.097 140.72 350.392 142.673C330.546 147.216 310.121 158.154 297.852 174.827C296.936 176.078 296.053 177.36 295.201 178.673C278.634 204.33 276.743 240.34 286.069 268.485Z" fill="#D1F2FA"/>
<path d="M522.356 184.824C524.831 184.824 526.838 186.823 526.838 189.289V306.072C526.838 308.538 524.831 310.537 522.356 310.537H328.235C325.76 310.537 323.753 308.538 323.753 306.072V189.289C323.753 186.823 325.76 184.824 328.235 184.824H522.356Z" fill="white" stroke="#7DACC5" stroke-width="0.871827"/>
<path d="M516.191 237.04C516.191 236.251 516.833 235.612 517.624 235.612C518.416 235.612 519.057 236.251 519.057 237.04C519.057 237.828 518.416 238.467 517.624 238.467C516.833 238.467 516.191 237.828 516.191 237.04Z" fill="white" stroke="#6631FE" stroke-width="0.674423"/>
<path d="M516.191 246.442C516.191 245.654 516.833 245.015 517.624 245.015C518.416 245.015 519.057 245.654 519.057 246.442C519.057 247.231 518.416 247.87 517.624 247.87C516.833 247.87 516.191 247.231 516.191 246.442Z" fill="white" stroke="#6631FE" stroke-width="0.674423"/>
<path d="M438.684 297.602L438.684 278.793L483.831 278.793L483.831 297.602L438.684 297.602Z" fill="white"/>
<path d="M405.932 296.427L405.932 279.382L424.522 279.382L424.522 296.427L405.932 296.427Z" fill="white"/>
<path d="M375.244 257.634L375.244 238.825L420.39 238.825L420.39 257.634L375.244 257.634Z" fill="white"/>
<path d="M463.766 294.077C463.115 294.077 462.586 294.603 462.586 295.253C462.586 295.902 463.115 296.428 463.766 296.428H483.832V294.077H463.766Z" fill="#2E5CFF"/>
<path d="M470.846 294.077C470.194 294.077 469.666 294.603 469.666 295.253C469.666 295.902 470.194 296.428 470.846 296.428H483.829V294.077H470.846Z" fill="#FFD600"/>
<path d="M477.929 294.077C477.277 294.077 476.749 294.603 476.749 295.253C476.749 295.902 477.277 296.428 477.929 296.428H483.831V294.077H477.929Z" fill="#FF4800"/>
<path d="M455.503 290.548C454.852 290.548 454.323 291.074 454.323 291.723C454.323 292.372 454.852 292.898 455.503 292.898H483.83V290.548H455.503Z" fill="#2E5CFF"/>
<path d="M467.895 290.548C467.243 290.548 466.714 291.074 466.714 291.723C466.714 292.372 467.243 292.898 467.895 292.898H483.829V290.548H467.895Z" fill="#FFD600"/>
<path d="M473.208 290.548C472.557 290.548 472.028 291.074 472.028 291.723C472.028 292.372 472.557 292.898 473.208 292.898H483.831V290.548H473.208Z" fill="#FF4800"/>
<path d="M447.833 287.022C447.181 287.022 446.653 287.549 446.653 288.198C446.653 288.847 447.181 289.374 447.833 289.374H483.832V287.022H447.833Z" fill="#2E5CFF"/>
<path d="M452.849 287.022C452.197 287.022 451.669 287.549 451.669 288.198C451.669 288.847 452.197 289.374 452.849 289.374H483.831V287.022H452.849Z" fill="#FFD600"/>
<path d="M464.355 287.022C463.704 287.022 463.175 287.549 463.175 288.198C463.175 288.847 463.704 289.374 464.355 289.374H483.831V287.022H464.355Z" fill="#FF4800"/>
<path d="M451.961 283.496C451.309 283.496 450.781 284.022 450.781 284.672C450.781 285.321 451.309 285.847 451.961 285.847H483.829V283.496H451.961Z" fill="#2E5CFF"/>
<path d="M461.406 283.496C460.754 283.496 460.226 284.022 460.226 284.672C460.226 285.321 460.754 285.847 461.406 285.847H483.831V283.496H461.406Z" fill="#FFD600"/>
<path d="M467.012 283.496C466.36 283.496 465.832 284.022 465.832 284.672C465.832 285.321 466.36 285.847 467.012 285.847H483.832V283.496H467.012Z" fill="#FF4800"/>
<path d="M444.288 279.969C443.636 279.969 443.108 280.495 443.108 281.145C443.108 281.794 443.636 282.321 444.288 282.321H483.828V279.969H444.288Z" fill="#2E5CFF"/>
<path d="M459.634 279.969C458.982 279.969 458.454 280.495 458.454 281.145C458.454 281.794 458.982 282.321 459.634 282.321H483.83V279.969H459.634Z" fill="#FFD600"/>
<path d="M463.472 279.969C462.82 279.969 462.291 280.495 462.291 281.145C462.291 281.794 462.82 282.321 463.472 282.321H483.831V279.969H463.472Z" fill="#FF4800"/>
<path d="M517.83 190.56H521.969C522.132 190.56 522.264 190.692 522.264 190.854C522.264 191.017 522.132 191.149 521.969 191.149H517.83C517.667 191.149 517.534 191.017 517.534 190.854C517.534 190.692 517.667 190.56 517.83 190.56Z" fill="#6631FE"/>
<path d="M522.186 192.327C522.186 192.164 522.054 192.032 521.891 192.032H518.934C518.771 192.032 518.638 192.164 518.638 192.327C518.638 192.489 518.771 192.621 518.934 192.621H521.891C522.054 192.621 522.186 192.489 522.186 192.327Z" fill="#6631FE"/>
<path d="M518.421 193.505H521.969C522.132 193.505 522.264 193.636 522.264 193.799C522.264 193.962 522.132 194.093 521.969 194.093H518.421C518.258 194.093 518.126 193.962 518.126 193.799C518.126 193.636 518.258 193.505 518.421 193.505Z" fill="#6631FE"/>
<path d="M490.334 191.151H511.62C512.273 191.151 512.803 191.678 512.803 192.328V192.328C512.803 192.979 512.273 193.506 511.62 193.506H490.334C489.681 193.506 489.152 192.979 489.152 192.328C489.152 191.678 489.681 191.151 490.334 191.151Z" fill="#6631FE"/>
<path d="M373.856 192.327C373.856 191.351 374.65 190.56 375.63 190.56C376.609 190.56 377.404 191.351 377.404 192.327C377.404 193.302 376.609 194.093 375.63 194.093C374.65 194.093 373.856 193.302 373.856 192.327Z" fill="#6631FE"/>
<path d="M517.535 207.385H517.535C518.328 207.385 518.971 208.026 518.971 208.816V208.816C518.971 209.606 518.328 210.247 517.535 210.247H517.535C516.741 210.247 516.098 209.606 516.098 208.816V208.816C516.098 208.026 516.741 207.385 517.535 207.385Z" fill="white" stroke="#6631FE" stroke-width="0.674423"/>
<path d="M517.535 216.808H517.535C518.328 216.808 518.971 217.448 518.971 218.238V218.238C518.971 219.029 518.328 219.669 517.535 219.669H517.535C516.741 219.669 516.098 219.029 516.098 218.238V218.238C516.098 217.448 516.741 216.808 517.535 216.808Z" fill="white" stroke="#6631FE" stroke-width="0.674423"/>
<path d="M517.535 226.229H517.535C518.328 226.229 518.971 226.869 518.971 227.66V227.66C518.971 228.45 518.328 229.09 517.535 229.09H517.535C516.741 229.09 516.098 228.45 516.098 227.66V227.66C516.098 226.869 516.741 226.229 517.535 226.229Z" fill="white" stroke="#6631FE" stroke-width="0.674423"/>
<path d="M364.396 192.327C364.396 191.351 365.191 190.56 366.17 190.56C367.15 190.56 367.944 191.351 367.944 192.327C367.944 193.302 367.15 194.093 366.17 194.093C365.191 194.093 364.396 193.302 364.396 192.327Z" fill="#6631FE"/>
<path d="M354.935 192.327C354.935 191.351 355.73 190.56 356.709 190.56C357.689 190.56 358.483 191.351 358.483 192.327C358.483 193.302 357.689 194.093 356.709 194.093C355.73 194.093 354.935 193.302 354.935 192.327Z" fill="#6631FE"/>
<path d="M336.015 191.151H347.84C348.493 191.151 349.023 191.678 349.023 192.328V192.328C349.023 192.979 348.493 193.506 347.84 193.506H336.015C335.362 193.506 334.832 192.979 334.832 192.328V192.328C334.832 191.678 335.362 191.151 336.015 191.151Z" fill="#6631FE"/>
<path d="M432.392 294.795L432.392 275.95L477.329 275.95L477.329 294.795L432.392 294.795Z" fill="white"/>
<path d="M499.596 233.02C499.596 229.221 499.596 227.321 498.41 226.141C497.225 224.96 495.318 224.96 491.503 224.96H434.763C430.947 224.96 429.04 224.96 427.855 226.141C426.67 227.321 426.67 229.221 426.67 233.02V252.217C426.67 256.016 426.67 257.916 427.855 259.096C429.04 260.277 430.947 260.277 434.763 260.277H491.503C495.318 260.277 497.225 260.277 498.41 259.096C499.596 257.916 499.596 256.016 499.596 252.217V233.02Z" fill="#F1F4FA"/>
<path d="M482.782 229.656H493.369C493.634 229.656 493.85 229.87 493.85 230.135V230.135C493.85 230.4 493.634 230.614 493.369 230.614H482.782C482.517 230.614 482.301 230.4 482.301 230.135C482.301 229.87 482.517 229.656 482.782 229.656Z" fill="#B8C3D9"/>
<path d="M491.843 243.919V254.34H435.281V242.926L439.418 240.843C444.257 238.407 449.969 238.396 454.819 240.813L456.679 241.74C459.88 243.336 463.616 243.489 466.938 242.162C470.204 240.857 473.87 240.982 477.039 242.506L478.684 243.297C482.395 245.082 486.638 245.432 490.594 244.282L491.843 243.919Z" fill="#30D7F4"/>
<path d="M491.843 245.858V254.339H435.281V245.858L440.096 243.577C444.46 241.511 449.585 241.829 453.657 244.419C457.019 246.556 461.136 247.166 464.977 246.096L469.829 244.744C473.175 243.811 476.747 244.133 479.871 245.645L480.068 245.741C483.777 247.537 488.099 247.58 491.843 245.858Z" fill="#8B91FF"/>
<path d="M491.843 249.094V254.34H435.281V246.963L440.305 245.729C444.83 244.618 449.6 245.074 453.83 247.023L454.971 247.548C459.17 249.483 463.968 249.68 468.314 248.096L468.954 247.863C472.843 246.447 477.136 246.605 480.909 248.306C484.158 249.772 487.811 250.1 491.272 249.237L491.843 249.094Z" fill="#3066F0"/>
<path d="M455.323 230.834L451.782 230.834C451.619 230.834 451.487 230.702 451.487 230.54L451.487 230.54C451.487 230.377 451.619 230.246 451.782 230.246L455.323 230.246C455.486 230.246 455.618 230.377 455.618 230.54C455.618 230.702 455.486 230.834 455.323 230.834Z" fill="#547AFF"/>
<path d="M446.47 230.834L442.929 230.834C442.766 230.834 442.634 230.702 442.634 230.54L442.634 230.54C442.634 230.377 442.766 230.246 442.929 230.246L446.47 230.246C446.633 230.246 446.765 230.377 446.765 230.54C446.765 230.702 446.633 230.834 446.47 230.834Z" fill="#7392FF"/>
<path d="M437.618 230.834L434.078 230.834C433.915 230.834 433.782 230.702 433.782 230.54L433.782 230.54C433.782 230.377 433.915 230.246 434.078 230.246L437.618 230.246C437.781 230.246 437.914 230.377 437.914 230.54C437.914 230.702 437.781 230.834 437.618 230.834Z" fill="#F1F4FA"/>
<path d="M457.98 230.54C457.98 230.865 457.716 231.128 457.39 231.128C457.064 231.128 456.8 230.865 456.8 230.54C456.8 230.216 457.064 229.953 457.39 229.953C457.716 229.953 457.98 230.216 457.98 230.54Z" fill="#547AFF"/>
<path d="M449.126 230.54C449.126 230.865 448.862 231.128 448.536 231.128C448.21 231.128 447.945 230.865 447.945 230.54C447.945 230.216 448.21 229.953 448.536 229.953C448.862 229.953 449.126 230.216 449.126 230.54Z" fill="#7392FF"/>
<path d="M440.272 230.54C440.272 230.865 440.008 231.128 439.682 231.128C439.356 231.128 439.092 230.865 439.092 230.54C439.092 230.216 439.356 229.953 439.682 229.953C440.008 229.953 440.272 230.216 440.272 230.54Z" fill="#F1F4FA"/>
<path d="M500.266 212.335C500.266 209.504 500.266 208.089 499.584 207.072C499.289 206.633 498.909 206.255 498.467 205.961C497.446 205.281 496.026 205.281 493.184 205.281H476.606C473.764 205.281 472.343 205.281 471.323 205.961C470.88 206.255 470.501 206.633 470.206 207.072C469.524 208.089 469.524 209.504 469.524 212.335C469.524 215.165 469.524 216.581 470.206 217.597C470.501 218.037 470.88 218.415 471.323 218.709C472.343 219.388 473.764 219.388 476.606 219.388H493.184C496.026 219.388 497.446 219.388 498.467 218.709C498.909 218.415 499.289 218.037 499.584 217.597C500.266 216.581 500.266 215.165 500.266 212.335Z" fill="#F1F4FA"/>
<path d="M489.698 212.256C489.698 213.712 490.883 214.892 492.345 214.892C493.807 214.892 494.992 213.712 494.992 212.256C494.992 210.8 493.807 209.62 492.345 209.62C490.883 209.62 489.698 210.8 489.698 212.256Z" fill="#6631FE" fill-opacity="0.36"/>
<path d="M478.629 210.579H486.81C487.076 210.579 487.291 210.793 487.291 211.058V211.058C487.291 211.323 487.076 211.537 486.81 211.537H478.629C478.364 211.537 478.148 211.323 478.148 211.058C478.148 210.793 478.364 210.579 478.629 210.579Z" fill="#B8C3D9"/>
<path d="M475.502 213.456H487.05C487.183 213.456 487.291 213.563 487.291 213.694C487.291 213.826 487.183 213.933 487.05 213.933H475.502C475.369 213.933 475.261 213.826 475.261 213.694C475.261 213.563 475.369 213.456 475.502 213.456Z" fill="#B8C3D9"/>
<path d="M458.113 212.335C458.113 209.504 458.113 208.089 457.431 207.072C457.136 206.633 456.757 206.255 456.316 205.961C455.295 205.281 453.874 205.281 451.032 205.281H433.983C431.14 205.281 429.72 205.281 428.699 205.961C428.257 206.255 427.878 206.633 427.583 207.072C426.901 208.089 426.901 209.504 426.901 212.335C426.901 215.165 426.901 216.581 427.583 217.597C427.878 218.037 428.257 218.415 428.699 218.709C429.72 219.388 431.14 219.388 433.983 219.388H451.032C453.874 219.388 455.295 219.388 456.316 218.709C456.757 218.415 457.136 218.037 457.431 217.597C458.113 216.581 458.113 215.165 458.113 212.335Z" fill="#F1F4FA"/>
<path d="M447.547 212.256C447.547 213.712 448.732 214.892 450.193 214.892C451.655 214.892 452.84 213.712 452.84 212.256C452.84 210.8 451.655 209.62 450.193 209.62C448.732 209.62 447.547 210.8 447.547 212.256Z" fill="#00C69A" fill-opacity="0.58"/>
<path d="M436.479 210.579H444.66C444.926 210.579 445.141 210.793 445.141 211.058V211.058C445.141 211.323 444.926 211.537 444.66 211.537H436.479C436.214 211.537 435.998 211.323 435.998 211.058C435.998 210.793 436.214 210.579 436.479 210.579Z" fill="#B8C3D9"/>
<path d="M433.352 213.456H444.901C445.033 213.456 445.141 213.563 445.141 213.694C445.141 213.826 445.033 213.933 444.901 213.933H433.352C433.219 213.933 433.111 213.826 433.111 213.694C433.111 213.563 433.219 213.456 433.352 213.456Z" fill="#B8C3D9"/>
<path d="M416.633 212.335C416.633 209.504 416.633 208.089 415.951 207.072C415.656 206.633 415.277 206.255 414.835 205.961C413.814 205.281 412.394 205.281 409.552 205.281H392.974C390.132 205.281 388.711 205.281 387.69 205.961C387.248 206.255 386.869 206.633 386.574 207.072C385.892 208.089 385.892 209.504 385.892 212.335C385.892 215.165 385.892 216.581 386.574 217.597C386.869 218.037 387.248 218.415 387.69 218.709C388.711 219.388 390.132 219.388 392.974 219.388H409.552C412.394 219.388 413.814 219.388 414.835 218.709C415.277 218.415 415.656 218.037 415.951 217.597C416.633 216.581 416.633 215.165 416.633 212.335Z" fill="#F1F4FA"/>
<path d="M407.01 212.256C407.01 213.712 408.195 214.892 409.657 214.892C411.118 214.892 412.303 213.712 412.303 212.256C412.303 210.8 411.118 209.62 409.657 209.62C408.195 209.62 407.01 210.8 407.01 212.256Z" fill="#F53867" fill-opacity="0.36"/>
<path d="M395.941 210.579H404.122C404.387 210.579 404.603 210.793 404.603 211.058V211.058C404.603 211.323 404.387 211.537 404.122 211.537H395.941C395.675 211.537 395.46 211.323 395.46 211.058C395.46 210.793 395.675 210.579 395.941 210.579Z" fill="#B8C3D9"/>
<path d="M392.813 213.456H404.362C404.495 213.456 404.603 213.563 404.603 213.694C404.603 213.826 404.495 213.933 404.362 213.933H392.813C392.68 213.933 392.573 213.826 392.573 213.694C392.573 213.563 392.68 213.456 392.813 213.456Z" fill="#B8C3D9"/>
<path d="M373.817 212.335C373.817 209.504 373.817 208.089 373.135 207.072C372.84 206.633 372.461 206.255 372.019 205.961C370.998 205.281 369.577 205.281 366.736 205.281H351.571C348.729 205.281 347.308 205.281 346.288 205.961C345.846 206.255 345.467 206.633 345.172 207.072C344.49 208.089 344.49 209.504 344.49 212.335C344.49 215.165 344.49 216.581 345.172 217.597C345.467 218.037 345.846 218.415 346.288 218.709C347.308 219.388 348.729 219.388 351.571 219.388H366.736C369.577 219.388 370.998 219.388 372.019 218.709C372.461 218.415 372.84 218.037 373.135 217.597C373.817 216.581 373.817 215.165 373.817 212.335Z" fill="#F1F4FA"/>
<path d="M364.192 212.256C364.192 213.712 365.377 214.892 366.839 214.892C368.3 214.892 369.485 213.712 369.485 212.256C369.485 210.8 368.3 209.62 366.839 209.62C365.377 209.62 364.192 210.8 364.192 212.256Z" fill="#F5C545" fill-opacity="0.61"/>
<path d="M353.127 210.579H361.307C361.573 210.579 361.789 210.793 361.789 211.058V211.058C361.789 211.323 361.573 211.537 361.307 211.537H353.127C352.861 211.537 352.646 211.323 352.646 211.058C352.646 210.793 352.861 210.579 353.127 210.579Z" fill="#B8C3D9"/>
<path d="M349.999 213.456H361.548C361.681 213.456 361.789 213.563 361.789 213.694C361.789 213.826 361.681 213.933 361.548 213.933H349.999C349.866 213.933 349.759 213.826 349.759 213.694C349.759 213.563 349.866 213.456 349.999 213.456Z" fill="#B8C3D9"/>
<path d="M430.716 265.608H496.218C498.453 265.608 500.265 267.412 500.265 269.638V297.561C500.265 299.787 498.453 301.591 496.218 301.591H430.716C428.481 301.591 426.669 299.787 426.669 297.561V269.638C426.669 267.412 428.481 265.608 430.716 265.608Z" fill="#F1F4FA"/>
<path d="M479.711 271.236H493.185C493.45 271.236 493.666 271.45 493.666 271.715V271.715C493.666 271.98 493.45 272.194 493.185 272.194H479.711C479.445 272.194 479.23 271.98 479.23 271.715C479.23 271.45 479.445 271.236 479.711 271.236Z" fill="#B8C3D9"/>
<path d="M456.401 271.427L452.86 271.427C452.697 271.427 452.565 271.295 452.565 271.133L452.565 271.133C452.565 270.971 452.697 270.839 452.86 270.839L456.401 270.839C456.564 270.839 456.696 270.971 456.696 271.133C456.696 271.295 456.564 271.427 456.401 271.427Z" fill="#3066F0"/>
<path d="M447.549 271.427L444.008 271.427C443.845 271.427 443.713 271.295 443.713 271.133L443.713 271.133C443.713 270.971 443.845 270.839 444.008 270.839L447.549 270.839C447.712 270.839 447.844 270.971 447.844 271.133C447.844 271.295 447.712 271.427 447.549 271.427Z" fill="#8B91FF"/>
<path d="M438.694 271.427L435.153 271.427C434.99 271.427 434.858 271.295 434.858 271.133L434.858 271.133C434.858 270.971 434.99 270.839 435.153 270.839L438.694 270.839C438.857 270.839 438.989 270.971 438.989 271.133C438.989 271.295 438.857 271.427 438.694 271.427Z" fill="#30D7F4"/>
<path d="M459.058 271.132C459.058 271.456 458.793 271.72 458.467 271.72C458.141 271.72 457.877 271.456 457.877 271.132C457.877 270.807 458.141 270.544 458.467 270.544C458.793 270.544 459.058 270.807 459.058 271.132Z" fill="#3066F0"/>
<path d="M450.206 271.132C450.206 271.456 449.942 271.72 449.616 271.72C449.29 271.72 449.025 271.456 449.025 271.132C449.025 270.807 449.29 270.544 449.616 270.544C449.942 270.544 450.206 270.807 450.206 271.132Z" fill="#8B91FF"/>
<path d="M441.352 271.132C441.352 271.456 441.087 271.72 440.761 271.72C440.435 271.72 440.171 271.456 440.171 271.132C440.171 270.807 440.435 270.544 440.761 270.544C441.087 270.544 441.352 270.807 441.352 271.132Z" fill="#30D7F4"/>
<path d="M464.377 294.789C463.632 294.789 463.028 295.391 463.028 296.133V296.263C463.028 297.005 463.632 297.606 464.377 297.606H493.194V294.789H464.377Z" fill="#30D7F4"/>
<path d="M474.745 294.789C474 294.789 473.397 295.391 473.397 296.133V296.263C473.397 297.005 474 297.606 474.745 297.606H493.193V294.789H474.745Z" fill="#8B91FF"/>
<path d="M484.646 294.789C483.902 294.789 483.298 295.391 483.298 296.133V296.263C483.298 297.005 483.902 297.606 484.646 297.606H493.196V294.789H484.646Z" fill="#3066F0"/>
<path d="M453.063 290.565C452.319 290.565 451.715 291.166 451.715 291.908V292.038C451.715 292.78 452.319 293.382 453.063 293.382H493.193V290.565H453.063Z" fill="#30D7F4"/>
<path d="M470.033 290.565C469.288 290.565 468.684 291.166 468.684 291.908V292.038C468.684 292.78 469.288 293.382 470.033 293.382H493.194V290.565H470.033Z" fill="#8B91FF"/>
<path d="M478.048 290.565C477.303 290.565 476.699 291.166 476.699 291.908V292.038C476.699 292.78 477.303 293.382 478.048 293.382H493.196V290.565H478.048Z" fill="#3066F0"/>
<path d="M442.224 286.341C441.479 286.341 440.875 286.942 440.875 287.685V287.814C440.875 288.556 441.479 289.157 442.224 289.157H493.195V286.341H442.224Z" fill="#30D7F4"/>
<path d="M448.822 286.341C448.076 286.341 447.472 286.942 447.472 287.685V287.814C447.472 288.556 448.076 289.157 448.822 289.157H493.193V286.341H448.822Z" fill="#8B91FF"/>
<path d="M465.322 286.341C464.577 286.341 463.973 286.942 463.973 287.685V287.814C463.973 288.556 464.577 289.157 465.322 289.157H493.197V286.341H465.322Z" fill="#3066F0"/>
<path d="M447.881 282.115C447.136 282.115 446.532 282.716 446.532 283.458V283.588C446.532 284.33 447.136 284.932 447.881 284.932H493.195V282.115H447.881Z" fill="#30D7F4"/>
<path d="M461.551 282.115C460.806 282.115 460.202 282.716 460.202 283.458V283.588C460.202 284.33 460.806 284.932 461.551 284.932H493.196V282.115H461.551Z" fill="#8B91FF"/>
<path d="M469.562 282.115C468.817 282.115 468.213 282.716 468.213 283.458V283.588C468.213 284.33 468.817 284.932 469.562 284.932H493.195V282.115H469.562Z" fill="#3066F0"/>
<path d="M437.509 277.889C436.765 277.889 436.161 278.491 436.161 279.232V279.362C436.161 280.104 436.765 280.706 437.509 280.706H493.193V277.889H437.509Z" fill="#30D7F4"/>
<path d="M458.719 277.889C457.974 277.889 457.371 278.491 457.371 279.232V279.362C457.371 280.104 457.974 280.706 458.719 280.706H493.193V277.889H458.719Z" fill="#8B91FF"/>
<path d="M464.377 277.889C463.631 277.889 463.027 278.491 463.027 279.232V279.362C463.027 280.104 463.631 280.706 464.377 280.706H493.194V277.889H464.377Z" fill="#3066F0"/>
<path d="M421.316 233.02C421.316 229.221 421.316 227.321 420.131 226.141C418.946 224.96 417.038 224.96 413.223 224.96H352.468C348.654 224.96 346.746 224.96 345.561 226.141C344.376 227.321 344.376 229.221 344.376 233.02V252.217C344.376 256.016 344.376 257.916 345.561 259.096C346.746 260.277 348.654 260.277 352.468 260.277H413.223C417.038 260.277 418.946 260.277 420.131 259.096C421.316 257.916 421.316 256.016 421.316 252.217V233.02Z" fill="#F1F4FA"/>
<path d="M403.335 229.7H413.921C414.187 229.7 414.402 229.914 414.402 230.179V230.179C414.402 230.444 414.187 230.658 413.921 230.658H403.335C403.069 230.658 402.853 230.444 402.853 230.179C402.853 229.914 403.069 229.7 403.335 229.7Z" fill="#B8C3D9"/>
<path d="M366.846 231.029L363.305 231.029C363.142 231.029 363.01 230.898 363.01 230.736L363.01 230.736C363.01 230.573 363.142 230.442 363.305 230.442L366.846 230.442C367.009 230.442 367.141 230.573 367.141 230.736C367.141 230.898 367.009 231.029 366.846 231.029Z" fill="#547AFF"/>
<path d="M357.993 231.029L354.452 231.029C354.289 231.029 354.157 230.898 354.157 230.736L354.157 230.736C354.157 230.573 354.289 230.442 354.452 230.442L357.993 230.442C358.156 230.442 358.288 230.573 358.288 230.736C358.288 230.898 358.156 231.029 357.993 231.029Z" fill="#FFD600"/>
<path d="M369.501 230.739C369.501 231.064 369.237 231.327 368.911 231.327C368.585 231.327 368.321 231.064 368.321 230.739C368.321 230.415 368.585 230.151 368.911 230.151C369.237 230.151 369.501 230.415 369.501 230.739Z" fill="#547AFF"/>
<path d="M360.649 230.739C360.649 231.064 360.384 231.327 360.058 231.327C359.732 231.327 359.468 231.064 359.468 230.739C359.468 230.415 359.732 230.151 360.058 230.151C360.384 230.151 360.649 230.415 360.649 230.739Z" fill="#FFD600"/>
<path d="M406.422 247.41C406.422 246.761 405.894 246.235 405.242 246.235C404.59 246.235 404.062 246.761 404.062 247.41V253.876H406.422V247.41Z" fill="#30D7F4"/>
<path d="M398.752 250.056C398.752 249.406 398.224 248.88 397.572 248.88C396.92 248.88 396.392 249.406 396.392 250.056V253.876H398.752V250.056Z" fill="#30D7F4"/>
<path d="M391.079 240.652C391.079 240.002 390.551 239.476 389.899 239.476C389.247 239.476 388.718 240.002 388.718 240.652V253.876H391.079V240.652Z" fill="#30D7F4"/>
<path d="M383.408 244.768C383.408 244.118 382.879 243.592 382.227 243.592C381.575 243.592 381.047 244.118 381.047 244.768V253.878H383.408V244.768Z" fill="#30D7F4"/>
<path d="M375.735 247.706C375.735 247.057 375.207 246.531 374.555 246.531C373.903 246.531 373.375 247.057 373.375 247.706V253.878H375.735V247.706Z" fill="#30D7F4"/>
<path d="M368.062 249.761C368.062 249.112 367.534 248.586 366.882 248.586C366.23 248.586 365.702 249.112 365.702 249.761V253.876H368.062V249.761Z" fill="#30D7F4"/>
<path d="M403.471 245.944C403.471 245.295 402.943 244.769 402.291 244.769C401.639 244.769 401.111 245.295 401.111 245.944V253.879H403.471V245.944Z" fill="#3066F0"/>
<path d="M395.801 248.586C395.801 247.937 395.272 247.411 394.62 247.411C393.969 247.411 393.44 247.937 393.44 248.586V253.876H395.801V248.586Z" fill="#3066F0"/>
<path d="M388.128 245.352C388.128 244.703 387.6 244.177 386.948 244.177C386.296 244.177 385.768 244.703 385.768 245.352V253.875H388.128V245.352Z" fill="#3066F0"/>
<path d="M380.459 238.009C380.459 237.359 379.931 236.832 379.279 236.832C378.627 236.832 378.099 237.359 378.099 238.009V253.878H380.459V238.009Z" fill="#3066F0"/>
<path d="M372.788 241.24C372.788 240.59 372.26 240.064 371.608 240.064C370.956 240.064 370.427 240.59 370.427 241.24V253.877H372.788V241.24Z" fill="#3066F0"/>
<path d="M365.114 242.708C365.114 242.059 364.586 241.533 363.934 241.533C363.282 241.533 362.753 242.059 362.753 242.708V253.876H365.114V242.708Z" fill="#3066F0"/>
<path d="M421.316 273.669C421.316 269.869 421.316 267.969 420.131 266.788C418.946 265.608 417.038 265.608 413.223 265.608H392.674C388.859 265.608 386.952 265.608 385.766 266.788C384.581 267.969 384.581 269.869 384.581 273.669V292.757C384.581 296.556 384.581 298.456 385.766 299.636C386.952 300.817 388.859 300.817 392.674 300.817H413.223C417.038 300.817 418.946 300.817 420.131 299.636C421.316 298.456 421.316 296.556 421.316 292.757V273.669Z" fill="#F1F4FA"/>
<path d="M409.202 269.903H415.938C416.204 269.903 416.42 270.117 416.42 270.382V270.382C416.42 270.647 416.204 270.861 415.938 270.861H409.202C408.936 270.861 408.72 270.647 408.72 270.382C408.72 270.117 408.936 269.903 409.202 269.903Z" fill="#B8C3D9"/>
<path d="M407.499 297.158L403.958 297.158C403.795 297.158 403.663 297.026 403.663 296.864L403.663 296.864C403.663 296.701 403.795 296.57 403.958 296.57L407.499 296.57C407.662 296.57 407.794 296.701 407.794 296.864C407.794 297.026 407.662 297.158 407.499 297.158Z" fill="#547AFF"/>
<path d="M410.156 296.863C410.156 297.187 409.892 297.45 409.566 297.45C409.24 297.45 408.976 297.187 408.976 296.863C408.976 296.538 409.24 296.275 409.566 296.275C409.892 296.275 410.156 296.538 410.156 296.863Z" fill="#547AFF"/>
<path d="M401.304 296.863C401.304 297.187 401.039 297.45 400.713 297.45C400.387 297.45 400.123 297.187 400.123 296.863C400.123 296.538 400.387 296.275 400.713 296.275C401.039 296.275 401.304 296.538 401.304 296.863Z" fill="#547AFF"/>
<path d="M403.395 292.081C398.669 292.081 394.837 288.265 394.837 283.558C394.837 278.851 398.669 275.035 403.395 275.035C408.121 275.035 411.952 278.851 411.952 283.558C411.952 288.265 408.121 292.081 403.395 292.081Z" fill="#30D7F4"/>
<path d="M402.111 274.558L403.314 283.424C399.65 283.424 397.595 283.424 393.93 283.424" stroke="#F1F4FA" stroke-width="2.02326" stroke-linecap="round" stroke-linejoin="round"/>
<path d="M394.836 283.558C394.836 285.295 395.369 286.991 396.363 288.418C397.357 289.844 398.765 290.935 400.399 291.542C402.033 292.15 403.814 292.246 405.503 291.818C407.193 291.389 408.712 290.457 409.855 289.145C410.999 287.834 411.712 286.206 411.9 284.479C412.088 282.752 411.743 281.01 410.909 279.484C410.076 277.958 408.794 276.723 407.236 275.943C405.677 275.163 403.917 274.876 402.191 275.12L403.393 283.558H394.836Z" fill="#3066F0"/>
<path d="M379.166 273.668C379.166 269.869 379.166 267.969 377.981 266.788C376.796 265.608 374.889 265.608 371.073 265.608H352.729C348.915 265.608 347.007 265.608 345.822 266.788C344.636 267.969 344.636 269.869 344.636 273.668V292.756C344.636 296.556 344.636 298.456 345.822 299.636C347.007 300.817 348.915 300.817 352.729 300.817H371.073C374.889 300.817 376.796 300.817 377.981 299.636C379.166 298.456 379.166 296.556 379.166 292.756V283.212V273.668Z" fill="#F1F4FA"/>
<path d="M367.16 269.236H373.896C374.162 269.236 374.378 269.45 374.378 269.715V269.715C374.378 269.979 374.162 270.194 373.896 270.194H367.16C366.894 270.194 366.678 269.979 366.678 269.715C366.678 269.45 366.894 269.236 367.16 269.236Z" fill="#B8C3D9"/>
<path d="M362.106 290.928C358.226 290.928 355.081 287.646 355.081 283.598C355.081 279.55 358.226 276.268 362.106 276.268C365.985 276.268 369.131 279.55 369.131 283.598C369.131 287.646 365.985 290.928 362.106 290.928Z" stroke="#30D7F4" stroke-width="2.69769"/>
<path d="M362.104 276.273C360.672 276.273 359.275 276.729 358.098 277.581C356.923 278.432 356.024 279.639 355.522 281.038C355.022 282.437 354.943 283.963 355.296 285.411C355.649 286.858 356.418 288.159 357.499 289.138C358.579 290.117 359.922 290.729 361.344 290.89C362.768 291.051 364.204 290.755 365.462 290.041C366.719 289.326 367.738 288.229 368.381 286.894C369.023 285.56 369.26 284.052 369.059 282.573" stroke="#3066F0" stroke-width="4.04654"/>
<path d="M366.017 297.158L362.476 297.158C362.313 297.158 362.181 297.026 362.181 296.864L362.181 296.864C362.181 296.701 362.313 296.57 362.476 296.57L366.017 296.57C366.18 296.57 366.312 296.701 366.312 296.864C366.312 297.026 366.18 297.158 366.017 297.158Z" fill="#547AFF"/>
<path d="M357.165 297.158L353.624 297.158C353.461 297.158 353.329 297.026 353.329 296.864L353.329 296.864C353.329 296.701 353.461 296.57 353.624 296.57L357.165 296.57C357.328 296.57 357.46 296.701 357.46 296.864C357.46 297.026 357.328 297.158 357.165 297.158Z" fill="#547AFF"/>
<path d="M368.675 296.863C368.675 297.187 368.411 297.45 368.085 297.45C367.759 297.45 367.495 297.187 367.495 296.863C367.495 296.538 367.759 296.275 368.085 296.275C368.411 296.275 368.675 296.538 368.675 296.863Z" fill="#547AFF"/>
<path d="M359.822 296.863C359.822 297.187 359.558 297.45 359.232 297.45C358.906 297.45 358.642 297.187 358.642 296.863C358.642 296.538 358.906 296.275 359.232 296.275C359.558 296.275 359.822 296.538 359.822 296.863Z" fill="#547AFF"/>
<path d="M525.812 197.627H324.781" stroke="#E7ECFF" stroke-width="0.674423"/>
<path d="M509.847 197.627V309.515" stroke="#E7ECFF" stroke-width="0.674423"/>
<path d="M254.631 207.482C254.631 208.331 255.319 209.018 256.166 209.018C257.013 209.018 257.701 208.331 257.701 207.482C257.701 206.634 257.013 205.947 256.166 205.947C255.319 205.947 254.631 206.634 254.631 207.482Z" stroke="#424242" stroke-width="0.506801"/>
<path d="M416.518 159.667L418.278 161.419L416.518 163.172L414.758 161.419L416.518 159.667Z" fill="#F53867"/>
<path d="M412.496 161.419H409.731" stroke="#F53867" stroke-width="0.506801"/>
<path d="M423.055 161.419H420.29" stroke="#F53867" stroke-width="0.506801"/>
<path d="M416.518 165.672V168.426" stroke="#F53867" stroke-width="0.506801"/>
<path d="M416.518 154.656V157.41" stroke="#F53867" stroke-width="0.506801"/>
<path d="M339.033 177.145C337.93 177.024 337.134 176.035 337.256 174.937C337.377 173.838 338.37 173.046 339.472 173.167C340.575 173.288 341.371 174.276 341.25 175.375C341.128 176.473 340.136 177.266 339.033 177.145Z" stroke="#006DFB" stroke-width="0.506801"/>
<path d="M260.231 312.784C259.128 312.663 258.333 311.675 258.454 310.576C258.575 309.478 259.568 308.685 260.671 308.806C261.774 308.927 262.569 309.916 262.448 311.014C262.327 312.113 261.334 312.905 260.231 312.784Z" stroke="#006DFB" stroke-width="0.506801"/>
<path d="M538.618 240.377C537.515 240.256 536.719 239.267 536.84 238.169C536.962 237.07 537.954 236.278 539.057 236.399C540.16 236.52 540.956 237.508 540.834 238.607C540.713 239.705 539.72 240.498 538.618 240.377Z" stroke="#006DFB" stroke-width="0.506801"/>
<path d="M296.391 244.128L298.151 245.881L296.391 247.633L294.632 245.881L296.391 244.128Z" fill="#F53867"/>
<path d="M292.368 245.881H289.603" stroke="#F53867" stroke-width="0.506801"/>
<path d="M302.926 245.881H300.16" stroke="#F53867" stroke-width="0.506801"/>
<path d="M296.391 250.136V252.89" stroke="#F53867" stroke-width="0.506801"/>
<path d="M296.391 239.118V241.872" stroke="#F53867" stroke-width="0.506801"/>
<path d="M532.303 361.533L534.063 363.286L532.303 365.038L530.544 363.286L532.303 361.533Z" fill="#F53867"/>
<path d="M528.28 363.286H525.514" stroke="#F53867" stroke-width="0.506801"/>
<path d="M538.838 363.286H536.073" stroke="#F53867" stroke-width="0.506801"/>
<path d="M532.301 367.543V370.297" stroke="#F53867" stroke-width="0.506801"/>
<path d="M532.301 356.524V359.278" stroke="#F53867" stroke-width="0.506801"/>
<path opacity="0.5" d="M508.802 427.579C485.288 425.877 405.299 428.76 380.971 429.883C356.644 431.006 328.405 428.401 313.736 424.569C299.068 420.737 214.279 424.895 218.127 435.198C221.974 445.501 255.904 439.808 294.381 443.949C332.859 448.09 419.394 443.431 438.913 443.949C458.433 444.465 476.332 442.913 501.487 440.844C526.642 438.774 522.433 428.564 508.802 427.579Z" fill="#D1F2FA"/>
<path d="M401.292 347.934H273.39C272.622 347.934 271.999 347.314 271.999 346.547V344.468C271.999 343.702 272.622 343.081 273.39 343.081H401.292C402.061 343.081 402.683 343.702 402.683 344.468V346.547C402.683 347.314 402.061 347.934 401.292 347.934Z" fill="#2370ED"/>
<path d="M422.115 434.526C421.976 434.585 421.666 434.667 421.202 434.76C420.747 434.851 420.172 434.946 419.524 435.039C418.228 435.223 416.649 435.392 415.172 435.479C413.686 435.566 412.332 435.57 411.47 435.435C411.257 435.402 411.083 435.361 410.95 435.315C410.82 435.27 410.752 435.228 410.721 435.201C410.731 435.179 410.754 435.137 410.81 435.076C411.417 434.404 411.903 434.112 412.377 433.827C412.591 433.7 412.801 433.573 413.019 433.415C413.728 432.898 414.268 432.16 414.737 430.305C415.198 428.486 415.753 425.853 415.978 423.491C416.09 422.312 416.121 421.184 416.01 420.254C415.903 419.345 415.651 418.531 415.11 418.088C414.708 417.759 413.752 416.729 412.519 415.333C411.297 413.951 409.826 412.237 408.409 410.566C406.991 408.896 405.627 407.269 404.617 406.059C404.113 405.455 403.696 404.955 403.406 404.606C403.287 404.463 403.189 404.345 403.115 404.256L408.082 396.672C408.147 396.773 408.223 396.889 408.308 397.02C408.638 397.527 409.111 398.254 409.684 399.127C410.831 400.875 412.376 403.214 413.971 405.579C415.567 407.942 417.214 410.334 418.565 412.187C419.24 413.113 419.844 413.908 420.331 414.499C420.575 414.794 420.793 415.042 420.979 415.232C421.155 415.411 421.332 415.57 421.491 415.649C421.888 415.847 422.416 416.009 422.936 416.169C422.985 416.184 423.034 416.199 423.083 416.214C423.668 416.394 424.248 416.581 424.727 416.828C425.208 417.078 425.535 417.362 425.68 417.707C425.819 418.039 425.822 418.507 425.471 419.206C425.068 420.01 424.74 421.363 424.45 422.904C424.189 424.285 423.953 425.856 423.722 427.385C423.693 427.577 423.664 427.767 423.635 427.956C423.376 429.668 423.123 431.289 422.847 432.519C422.709 433.135 422.569 433.639 422.424 434.001C422.352 434.183 422.283 434.317 422.22 434.409C422.154 434.506 422.115 434.526 422.115 434.526Z" fill="white" stroke="#424242" stroke-width="0.696239"/>
<path d="M330.943 430.257C331.318 429.958 331.863 429.316 332.514 428.462C333.174 427.598 333.965 426.484 334.837 425.212C336.581 422.669 338.651 419.481 340.635 416.363C342.62 413.244 344.521 410.194 345.925 407.922C346.628 406.786 347.206 405.845 347.608 405.188C347.809 404.86 347.967 404.602 348.074 404.427L348.111 404.366C348.161 404.376 348.218 404.388 348.282 404.402C348.538 404.459 348.9 404.546 349.321 404.665C350.165 404.903 351.229 405.267 352.144 405.772C353.072 406.285 353.775 406.904 354.008 407.619C354.229 408.296 354.066 409.184 352.954 410.34H352.953C350.581 412.81 349.17 415.984 348.626 418.982C348.083 421.969 348.39 424.84 349.528 426.683C350.025 427.488 350.03 428.061 349.803 428.506C349.559 428.986 349.002 429.412 348.162 429.806C347.333 430.195 346.289 430.524 345.152 430.842C344.696 430.97 344.221 431.096 343.742 431.224C343.042 431.411 342.332 431.6 341.655 431.799C340.492 432.14 339.4 432.583 338.315 433.04C338.145 433.111 337.976 433.183 337.806 433.254C336.887 433.644 335.963 434.036 334.979 434.386C332.661 435.211 330.021 435.804 326.447 435.54C325.549 435.474 324.926 435.367 324.517 435.236C324.087 435.098 323.994 434.964 323.979 434.922C323.971 434.901 323.954 434.802 324.148 434.572C324.331 434.355 324.634 434.104 325.039 433.824C325.771 433.318 326.758 432.768 327.761 432.21C327.863 432.154 327.964 432.097 328.066 432.041C329.156 431.432 330.243 430.815 330.943 430.257Z" fill="white" stroke="#424242" stroke-width="0.696239"/>
<path d="M422.068 348.642C422.068 348.642 386.11 347.705 371.854 359.366C367.034 363.308 343.341 409.149 341.773 413.246C342.849 414.319 348.902 416.255 351.591 415.986C359.526 406.554 370.016 398.401 374.186 391.003C379.326 381.886 380.911 377.328 389.25 376.524C397.59 375.718 416.42 373.039 422.068 373.039C427.717 373.039 422.068 348.642 422.068 348.642Z" fill="#383838"/>
<path d="M453.426 435.949H451.54L438.025 379.739H442.17L453.426 435.949Z" fill="#2370ED"/>
<path d="M396.962 435.95H398.847L414.357 377.753H410.211L396.962 435.95Z" fill="#2370ED"/>
<path d="M442.555 346.188L421.647 349.786C421.647 349.786 393.865 350.04 381.167 352.397C369.614 354.542 367.912 367.627 381.167 385.643C388.697 395.878 395.064 404.042 408.085 413.248C411.397 410.824 412.664 409.907 413.579 404.076C412.637 402.788 410.197 394.729 409.439 393.151C402.238 378.146 392.625 372.688 392.493 371.213C394.107 368.6 435.243 384.839 443.423 375.286C451.233 366.165 442.555 346.188 442.555 346.188Z" fill="#424242"/>
<path d="M418.076 328.058C417.762 315.57 422.857 308.01 427.367 303.418C432.417 299.785 437.799 298.745 443.104 299.431C443.438 300.189 443.823 300.916 444.208 301.625C444.302 301.796 444.395 301.966 444.488 302.134C444.821 302.743 445.147 303.337 445.446 303.94C450.124 313.424 449.57 321.344 448.283 329.102C448.079 330.33 447.857 331.556 447.634 332.785C446.449 339.307 445.248 345.912 446.817 353.293C447.448 356.266 447.657 358.485 447.534 360.091C447.41 361.704 446.958 362.623 446.35 363.103C445.746 363.581 444.876 363.717 443.7 363.497C442.526 363.279 441.126 362.719 439.556 361.918C436.808 360.514 433.635 358.417 430.384 356.267C429.92 355.961 429.455 355.653 428.989 355.346C425.326 352.934 421.624 350.571 418.449 349.241C417.77 348.228 417.437 347.423 417.296 346.567C417.148 345.665 417.206 344.674 417.354 343.263C417.389 342.934 417.428 342.585 417.469 342.212C417.786 339.387 418.254 335.194 418.076 328.058Z" fill="#FF4800"/>
<path d="M446.817 353.293C445.248 345.912 446.449 339.307 447.634 332.785C447.857 331.556 448.079 330.33 448.283 329.102C449.57 321.344 450.124 313.424 445.446 303.94C445.147 303.337 444.821 302.743 444.488 302.134C444.395 301.966 444.302 301.796 444.208 301.625C443.823 300.916 443.438 300.189 443.104 299.431C437.799 298.745 432.417 299.785 427.367 303.418C422.857 308.01 417.762 315.57 418.076 328.058C418.254 335.194 417.786 339.387 417.469 342.212C417.428 342.585 417.389 342.934 417.354 343.263C417.206 344.674 417.148 345.665 417.296 346.567C417.437 347.423 417.77 348.228 418.449 349.241C421.624 350.571 425.326 352.934 428.989 355.346C429.455 355.653 429.92 355.961 430.384 356.267C433.635 358.417 436.808 360.514 439.556 361.918C441.126 362.719 442.526 363.279 443.7 363.497C444.876 363.717 445.746 363.581 446.35 363.103C446.958 362.623 447.41 361.704 447.534 360.091C447.657 358.485 447.448 356.266 446.817 353.293ZM446.817 353.293L447.268 353.198" stroke="#424242" stroke-width="0.921971"/>
<path fill-rule="evenodd" clip-rule="evenodd" d="M434.316 283.461C434.729 281.727 434.751 279.869 434.227 278.027C432.493 271.939 427.309 268.07 422.647 269.388C417.983 270.707 415.61 276.712 417.342 282.802C419.075 288.892 422.402 293.03 427.064 291.712C428.757 291.233 430.392 290.102 431.706 288.563C432.737 292.211 433.508 297.44 430.524 299.919C429.494 300.774 428.301 301.811 427.062 303.07C432.309 299.285 437.916 298.241 443.422 299.013C440.031 291.012 439.199 282.024 439.199 282.024L434.316 283.461Z" fill="white"/>
<mask id="mask0_1325_975" style="mask-type:luminance" maskUnits="userSpaceOnUse" x="416" y="269" width="28" height="35">
<path fill-rule="evenodd" clip-rule="evenodd" d="M434.314 283.461C434.728 281.727 434.749 279.868 434.225 278.026C432.491 271.938 427.307 268.069 422.645 269.388C417.981 270.706 415.608 276.711 417.341 282.801C419.073 288.892 422.4 293.029 427.062 291.711C428.755 291.232 430.39 290.101 431.704 288.563C432.735 292.211 433.506 297.439 430.522 299.919C429.492 300.773 428.299 301.811 427.06 303.069C432.307 299.285 437.914 298.24 443.42 299.012C440.029 291.011 439.197 282.023 439.197 282.023L434.314 283.461Z" fill="#424242"/>
</mask>
<g mask="url(#mask0_1325_975)">
<path d="M434.315 283.462L433.418 283.249L433.049 284.792L434.576 284.342L434.315 283.462ZM431.706 288.564L432.593 288.315L432.124 286.657L431.003 287.969L431.706 288.564ZM427.061 303.07L426.403 302.427L427.602 303.814L427.061 303.07ZM443.421 299.013L443.293 299.922L444.903 300.147L444.27 298.656L443.421 299.013ZM439.198 282.024L440.116 281.939L440.013 280.827L438.937 281.144L439.198 282.024ZM433.34 278.277C433.817 279.955 433.799 281.653 433.418 283.249L435.212 283.674C435.659 281.803 435.685 279.784 435.114 277.777L433.34 278.277ZM422.898 270.273C424.894 269.708 427.063 270.234 428.982 271.666C430.902 273.098 432.523 275.41 433.34 278.278L435.114 277.777C434.197 274.557 432.359 271.89 430.088 270.196C427.816 268.5 425.062 267.752 422.394 268.506L422.898 270.273ZM418.229 282.552C417.413 279.683 417.574 276.866 418.453 274.643C419.332 272.42 420.902 270.837 422.898 270.273L422.394 268.506C419.727 269.259 417.778 271.339 416.737 273.97C415.698 276.601 415.539 279.831 416.455 283.053L418.229 282.552ZM426.813 290.828C424.852 291.383 423.19 290.819 421.757 289.387C420.282 287.913 419.074 285.524 418.229 282.552L416.455 283.053C417.342 286.171 418.663 288.896 420.451 290.683C422.281 292.513 424.613 293.359 427.316 292.595L426.813 290.828ZM431.003 287.969C429.782 289.398 428.295 290.409 426.813 290.828L427.316 292.595C429.218 292.057 431.001 290.806 432.408 289.159L431.003 287.969ZM430.818 288.813C431.322 290.598 431.746 292.716 431.699 294.657C431.65 296.61 431.131 298.219 429.932 299.215L431.113 300.625C432.9 299.142 433.488 296.896 433.542 294.703C433.596 292.498 433.12 290.178 432.593 288.315L430.818 288.813ZM429.932 299.215C428.891 300.08 427.672 301.139 426.403 302.427L427.72 303.713C428.929 302.485 430.097 301.469 431.113 300.625L429.932 299.215ZM427.602 303.814C432.642 300.18 438.004 299.181 443.293 299.922L443.549 298.103C437.827 297.302 431.977 298.391 426.521 302.327L427.602 303.814ZM444.27 298.656C442.609 294.736 441.569 290.557 440.943 287.343C440.631 285.74 440.424 284.384 440.295 283.431C440.23 282.955 440.186 282.579 440.156 282.324C440.143 282.196 440.132 282.099 440.125 282.035C440.122 282.002 440.119 281.977 440.118 281.962C440.118 281.954 440.117 281.948 440.117 281.945C440.116 281.943 440.116 281.94 440.116 281.939C440.116 281.939 440.116 281.939 439.198 282.024C438.28 282.108 438.28 282.109 438.28 282.109C438.28 282.11 438.28 282.111 438.281 282.112C438.281 282.113 438.281 282.115 438.281 282.117C438.281 282.122 438.282 282.13 438.283 282.139C438.285 282.158 438.287 282.184 438.291 282.22C438.298 282.291 438.309 282.394 438.324 282.528C438.354 282.796 438.401 283.185 438.467 283.677C438.6 284.658 438.813 286.05 439.133 287.693C439.771 290.974 440.842 295.289 442.572 299.37L444.27 298.656ZM438.937 281.144L434.054 282.581L434.576 284.342L439.46 282.905L438.937 281.144Z" fill="#424242"/>
</g>
<path d="M432.475 382.081C431.906 382.081 431.326 382.074 430.728 382.059C423.277 381.876 418.206 380.848 414.13 380.024C409.372 379.06 406.751 378.529 403.699 379.982C402.528 380.538 401.126 380.045 400.565 378.877C400.005 377.709 400.501 376.313 401.673 375.753C406.144 373.624 409.887 374.382 415.065 375.432C418.959 376.222 423.807 377.203 430.844 377.377C438.719 377.572 443.522 376.408 445.956 373.717C448.124 371.32 448.759 367.292 447.953 361.044C447.678 358.906 447.401 357.125 447.158 355.555C446.471 351.127 446.016 348.203 446.579 343.68C447.101 339.48 448.496 333.886 451.726 323.039C452.096 321.799 453.404 321.093 454.649 321.459C455.893 321.828 456.603 323.131 456.234 324.373C450.213 344.585 450.518 346.555 451.802 354.84C452.051 356.438 452.331 358.248 452.615 360.446C453.608 368.154 452.603 373.367 449.447 376.856C446.196 380.445 440.922 382.081 432.475 382.081Z" fill="#2370ED"/>
<path d="M348.928 424.088C339.29 428.787 334.103 431.479 331.013 431.222C330.283 431.163 329.678 431.087 329.171 431.008C325.734 433.033 320.248 435.426 326.42 435.883C333.684 436.418 337.18 433.469 341.752 432.128C346.325 430.786 351.975 429.983 349.823 426.498C349.411 425.831 349.113 425.011 348.928 424.088Z" fill="#FF4800"/>
<path d="M422.698 415.729C422.463 423.334 421.414 430.872 416.746 432.296C415.51 432.674 414.381 432.728 413.384 432.596C412.651 433.5 411.754 433.51 410.553 434.841C408.736 436.851 420.84 435.445 422.254 434.841C423.667 434.237 424.271 422.374 425.783 419.358C427.026 416.88 424.525 416.301 422.698 415.729Z" fill="#FF4800"/>
<path d="M385.573 343.746H354.954C354.039 343.746 353.208 343.217 352.822 342.391L340.447 315.847C339.9 314.675 340.412 313.281 341.589 312.735C342.767 312.189 344.164 312.7 344.711 313.873L356.453 339.061H385.573C386.871 339.061 387.923 340.111 387.923 341.404C387.923 342.697 386.872 343.746 385.573 343.746Z" fill="#424242"/>
<path fill-rule="evenodd" clip-rule="evenodd" d="M427.181 314.518C429.732 307.994 431.484 303.513 437.183 301.527C441.788 299.922 444.53 306.144 443.421 314.455C442.62 320.465 427.094 343.551 418.015 344.557C410.234 345.419 400.85 342.485 391.495 339.194C384.928 337.401 383.802 338.154 382.931 338.735C382.402 339.089 381.966 339.38 380.465 339.002C377.27 338.199 375.517 336.346 374.74 335.525C374.491 335.262 374.343 335.105 374.277 335.119C374.219 335.133 373.796 335.338 373.159 335.647C370.879 336.754 365.844 339.199 364.863 338.99C363.607 338.721 373.561 331.84 376.609 331.303C378.048 331.05 380.172 331.735 382.666 332.537C384.438 333.109 386.396 333.739 388.426 334.136C388.82 334.169 389.236 334.212 389.676 334.266C402.028 335.771 412.241 335.69 412.241 335.69C412.241 335.69 416.286 335.799 420.641 328.472C423.809 323.142 425.641 318.457 427.181 314.518Z" fill="white"/>
<mask id="mask1_1325_975" style="mask-type:luminance" maskUnits="userSpaceOnUse" x="364" y="301" width="80" height="44">
<path fill-rule="evenodd" clip-rule="evenodd" d="M427.181 314.513C429.731 307.989 431.483 303.508 437.183 301.522C441.787 299.917 444.53 306.139 443.421 314.449C442.62 320.46 427.093 343.546 418.015 344.552C410.234 345.414 400.85 342.48 391.495 339.188C384.928 337.396 383.802 338.149 382.931 338.73C382.402 339.084 381.966 339.375 380.465 338.997C377.269 338.194 375.517 336.341 374.74 335.519C374.491 335.256 374.342 335.1 374.277 335.114C374.219 335.128 373.796 335.333 373.159 335.642C370.879 336.749 365.844 339.194 364.862 338.985C363.607 338.716 373.561 331.835 376.609 331.298C378.048 331.045 380.172 331.73 382.666 332.532C384.438 333.104 386.396 333.734 388.426 334.131C388.82 334.164 389.236 334.207 389.676 334.261C402.028 335.766 412.241 335.685 412.241 335.685C412.241 335.685 416.286 335.794 420.641 328.467C423.809 323.137 425.641 318.452 427.181 314.513Z" fill="#424242"/>
</mask>
<g mask="url(#mask1_1325_975)">
<path d="M391.495 339.19L391.802 338.324L391.771 338.314L391.738 338.304L391.495 339.19ZM380.465 338.999L380.239 339.889L380.24 339.89L380.465 338.999ZM376.609 331.3L376.449 330.395L376.448 330.396L376.609 331.3ZM388.426 334.132L388.249 335.034L388.298 335.043L388.348 335.047L388.426 334.132ZM412.242 335.686L412.267 334.768H412.25H412.234L412.242 335.686ZM436.879 300.657C430.718 302.804 428.843 307.733 426.322 314.181L428.04 314.848C430.621 308.248 432.249 304.216 437.488 302.39L436.879 300.657ZM444.335 314.572C444.903 310.316 444.503 306.489 443.28 303.88C442.667 302.572 441.814 301.505 440.702 300.894C439.563 300.268 438.252 300.178 436.879 300.657L437.488 302.39C438.417 302.066 439.177 302.153 439.811 302.502C440.474 302.866 441.101 303.573 441.61 304.658C442.632 306.837 443.049 310.276 442.507 314.33L444.335 314.572ZM418.118 345.467C420.687 345.181 423.542 343.382 426.311 340.961C429.116 338.509 431.973 335.291 434.554 331.938C437.137 328.581 439.461 325.065 441.194 321.999C442.061 320.466 442.784 319.038 443.32 317.79C443.849 316.558 444.219 315.448 444.335 314.572L442.507 314.33C442.423 314.957 442.133 315.883 441.624 317.068C441.122 318.237 440.431 319.605 439.587 321.098C437.899 324.083 435.624 327.528 433.09 330.821C430.555 334.115 427.778 337.234 425.094 339.581C422.373 341.96 419.884 343.423 417.914 343.641L418.118 345.467ZM391.188 340.056C400.506 343.334 410.091 346.355 418.118 345.467L417.914 343.641C410.378 344.476 401.195 341.628 391.802 338.324L391.188 340.056ZM383.444 339.495C383.66 339.35 383.817 339.248 384.039 339.165C384.259 339.083 384.583 339.004 385.105 338.989C386.176 338.956 387.993 339.187 391.252 340.076L391.738 338.304C388.43 337.402 386.401 337.112 385.049 337.153C384.36 337.174 383.829 337.281 383.388 337.447C382.948 337.612 382.637 337.823 382.417 337.969L383.444 339.495ZM380.24 339.89C381.053 340.094 381.687 340.147 382.237 340.042C382.804 339.933 383.184 339.669 383.444 339.495L382.417 337.969C382.149 338.148 382.047 338.207 381.888 338.238C381.712 338.272 381.378 338.281 380.69 338.109L380.24 339.89ZM374.068 336.151C374.876 337.004 376.78 339.019 380.239 339.889L380.69 338.109C377.76 337.371 376.159 335.682 375.411 334.891L374.068 336.151ZM374.486 336.01C374.282 336.057 374.117 336.021 374.029 335.994C373.94 335.967 373.879 335.931 373.854 335.915C373.807 335.886 373.789 335.865 373.815 335.889C373.861 335.932 373.935 336.008 374.068 336.151L375.411 334.891C375.297 334.771 375.171 334.637 375.065 334.54C375.015 334.493 374.932 334.419 374.831 334.357C374.781 334.326 374.474 334.128 374.07 334.222L374.486 336.01ZM373.564 336.469C373.884 336.313 374.144 336.187 374.333 336.098C374.428 336.052 374.499 336.02 374.547 335.997C374.572 335.986 374.585 335.981 374.588 335.979C374.614 335.969 374.561 335.993 374.486 336.01L374.07 334.222C373.98 334.242 373.901 334.275 373.89 334.28C373.857 334.293 373.822 334.309 373.789 334.323C373.722 334.353 373.636 334.394 373.539 334.44C373.342 334.534 373.072 334.664 372.756 334.819L373.564 336.469ZM364.669 339.884C364.994 339.953 365.344 339.898 365.596 339.846C365.882 339.787 366.207 339.692 366.547 339.577C367.23 339.349 368.05 339.015 368.892 338.65C370.58 337.918 372.426 337.021 373.564 336.469L372.756 334.819C371.613 335.373 369.801 336.253 368.155 336.966C367.331 337.324 366.567 337.633 365.958 337.837C365.651 337.94 365.405 338.01 365.219 338.049C364.999 338.094 364.976 338.071 365.055 338.088L364.669 339.884ZM376.448 330.396C375.522 330.559 374.209 331.16 372.872 331.882C371.498 332.624 369.981 333.559 368.607 334.482C367.236 335.403 365.98 336.327 365.137 337.052C364.729 337.403 364.362 337.753 364.138 338.058C364.05 338.178 363.859 338.45 363.834 338.796C363.819 339.012 363.867 339.294 364.076 339.538C364.27 339.764 364.512 339.851 364.669 339.884L365.055 338.088C365.135 338.105 365.32 338.161 365.479 338.345C365.651 338.548 365.684 338.776 365.674 338.927C365.658 339.142 365.556 339.238 365.626 339.143C365.717 339.019 365.946 338.783 366.342 338.442C367.107 337.785 368.295 336.905 369.637 336.005C370.975 335.107 372.44 334.204 373.751 333.497C375.098 332.769 376.172 332.309 376.77 332.204L376.448 330.396ZM382.95 331.661C381.714 331.263 380.52 330.877 379.454 330.627C378.401 330.38 377.359 330.236 376.449 330.395L376.77 332.204C377.298 332.111 378.038 332.182 379.031 332.415C380.009 332.644 381.126 333.003 382.382 333.408L382.95 331.661ZM388.604 333.231C386.636 332.847 384.729 332.234 382.95 331.661L382.382 333.408C384.147 333.977 386.156 334.625 388.249 335.034L388.604 333.231ZM389.789 333.351C389.338 333.296 388.91 333.252 388.504 333.218L388.348 335.047C388.73 335.08 389.135 335.122 389.564 335.174L389.789 333.351ZM412.242 335.686C412.234 334.768 412.234 334.768 412.234 334.768H412.233C412.232 334.768 412.23 334.768 412.228 334.768C412.224 334.768 412.216 334.768 412.206 334.768C412.187 334.768 412.159 334.768 412.121 334.769C412.045 334.769 411.931 334.769 411.781 334.769C411.48 334.768 411.037 334.765 410.465 334.757C409.322 334.742 407.668 334.705 405.629 334.622C401.55 334.455 395.934 334.1 389.789 333.351L389.564 335.174C395.771 335.931 401.439 336.288 405.553 336.457C407.611 336.54 409.282 336.577 410.44 336.594C411.019 336.601 411.47 336.605 411.776 336.605C411.929 336.606 412.047 336.606 412.126 336.605C412.166 336.605 412.197 336.605 412.217 336.605C412.227 336.605 412.235 336.605 412.241 336.605C412.243 336.605 412.245 336.605 412.247 336.605C412.248 336.605 412.248 336.605 412.248 336.605C412.248 336.605 412.249 336.605 412.242 335.686ZM419.847 328.001C417.736 331.554 415.743 333.232 414.35 334.028C413.651 334.427 413.094 334.61 412.732 334.694C412.55 334.737 412.416 334.755 412.336 334.762C412.297 334.766 412.27 334.767 412.258 334.768C412.252 334.768 412.249 334.768 412.25 334.768C412.251 334.768 412.254 334.768 412.256 334.768C412.257 334.768 412.259 334.768 412.261 334.768C412.261 334.768 412.262 334.768 412.263 334.768C412.264 334.768 412.265 334.768 412.265 334.768C412.266 334.768 412.267 334.768 412.242 335.686C412.217 336.604 412.218 336.604 412.218 336.604C412.218 336.604 412.219 336.604 412.22 336.604C412.222 336.604 412.223 336.604 412.224 336.605C412.227 336.605 412.23 336.605 412.233 336.605C412.239 336.605 412.247 336.605 412.255 336.605C412.273 336.605 412.293 336.604 412.318 336.603C412.367 336.602 412.433 336.598 412.512 336.591C412.67 336.576 412.886 336.545 413.152 336.483C413.684 336.359 414.41 336.111 415.267 335.621C416.985 334.64 419.192 332.71 421.434 328.936L419.847 328.001ZM426.322 314.181C424.783 318.118 422.974 322.741 419.847 328.001L421.434 328.936C424.644 323.536 426.5 318.789 428.04 314.848L426.322 314.181Z" fill="#424242"/>
</g>
<path d="M423.88 307.361L426.772 302.399L426.819 302.319L426.831 302.227L427.485 297.238L442.125 292.326L442.906 298.589C442.688 298.607 442.403 298.631 442.065 298.665C441.245 298.744 440.11 298.875 438.849 299.076C436.345 299.474 433.275 300.161 431.207 301.321C429.158 302.47 426.655 304.68 424.687 306.573C424.407 306.843 424.138 307.107 423.88 307.361Z" fill="#FFEDE6" stroke="#424242" stroke-width="0.921971"/>
<path d="M393.119 335.06C393.136 334.869 393.151 334.701 393.164 334.561C393.29 334.569 393.441 334.578 393.615 334.588C394.185 334.623 395.002 334.671 395.986 334.724C397.953 334.83 400.592 334.957 403.272 335.042C405.95 335.127 408.678 335.17 410.821 335.106C411.892 335.073 412.828 335.015 413.544 334.919C413.901 334.871 414.217 334.813 414.471 334.739C414.704 334.671 414.967 334.571 415.139 334.392C415.502 334.016 416.182 333.065 417.038 331.761C417.904 330.44 418.974 328.72 420.122 326.772C422.419 322.877 425.037 318.061 426.975 313.704C428.909 309.356 430.535 305.925 432.398 303.712C433.323 302.613 434.288 301.837 435.355 301.396C436.415 300.957 437.61 300.837 439.02 301.101C441.706 301.603 445.092 305.44 444.207 313.288C443.992 315.197 442.952 318.014 441.461 321.221C439.979 324.414 438.074 327.943 436.173 331.255C434.271 334.566 432.374 337.655 430.909 339.966C430.176 341.121 429.552 342.081 429.089 342.776C428.857 343.124 428.667 343.404 428.525 343.609C428.453 343.712 428.395 343.794 428.349 343.856C428.327 343.886 428.308 343.91 428.294 343.929C428.286 343.939 428.281 343.945 428.277 343.951L428.272 343.957C428.27 343.958 428.27 343.959 428.27 343.959C428.248 343.983 428.17 344.046 427.979 344.126C427.798 344.203 427.555 344.281 427.249 344.358C426.637 344.51 425.821 344.647 424.848 344.769C422.904 345.013 420.384 345.19 417.742 345.324C415.142 345.456 411.008 345.103 407.338 344.6C405.506 344.349 403.803 344.062 402.477 343.783C401.814 343.643 401.251 343.507 400.817 343.379C400.364 343.246 400.103 343.137 400.001 343.068C399.339 342.622 398.651 342.117 398.128 341.721C397.866 341.523 397.647 341.353 397.492 341.233C397.415 341.173 397.354 341.125 397.313 341.093L397.267 341.056L397.255 341.047L397.251 341.044H397.25L397.12 340.94L396.952 340.944H396.95H396.943L396.914 340.945C396.889 340.945 396.851 340.946 396.803 340.946C396.706 340.946 396.567 340.947 396.396 340.946C396.056 340.943 395.598 340.932 395.123 340.899C394.644 340.867 394.163 340.813 393.769 340.727C393.573 340.684 393.411 340.636 393.288 340.585C393.172 340.537 393.118 340.498 393.1 340.48C393.097 340.474 393.089 340.458 393.079 340.429C393.06 340.377 393.04 340.301 393.021 340.2C392.984 339.998 392.958 339.729 392.944 339.408C392.915 338.767 392.934 337.969 392.973 337.181C393.012 336.394 393.07 335.629 393.119 335.06Z" fill="#FF4800" stroke="#424242" stroke-width="0.921971"/>
<path d="M421.57 264.184C410.323 264.721 412.088 281.585 412.088 281.585C412.088 281.585 415.008 282.483 421.128 281.478C420.658 279.667 420.86 275.043 420.86 275.043C420.86 275.043 421.572 278.798 422.475 281.076C423.769 281.667 425.232 281.143 427.72 280.544C428.998 285.904 432.609 288.167 435.081 288.941C437.812 289.798 440.704 290.819 443.932 289.209C447.16 287.6 445.386 271.156 443.671 267.849C441.097 262.885 436.822 258.442 429.424 260.788C425.712 261.966 421.57 264.184 421.57 264.184Z" fill="#424242"/>
<path d="M285.708 435.948H288.73L300.485 346.385H293.838L285.708 435.948Z" fill="#2370ED"/>
<path d="M388.244 435.948H385.223L373.468 346.385H380.117L388.244 435.948Z" fill="#2370ED"/>
<path d="M435.811 306.16C435.76 306.258 435.732 306.592 436.03 307.152C436.401 307.851 435.811 308.714 435.811 308.755" stroke="white" stroke-width="0.460984"/>
<path d="M439.552 294.68C439.501 294.776 439.473 295.111 439.771 295.67C440.142 296.369 439.552 297.232 439.552 297.274" stroke="#FF4800" stroke-width="0.460984"/>
<path d="M405.759 338.535C405.708 338.632 405.681 338.967 405.979 339.526C406.35 340.225 405.759 341.088 405.759 341.129" stroke="white" stroke-width="0.460984"/>
<path d="M422.183 339.832C422.131 339.929 422.104 340.264 422.401 340.822C422.773 341.522 422.183 342.385 422.183 342.426" stroke="white" stroke-width="0.460984"/>
<path d="M425.936 347.935C425.885 348.032 425.858 348.366 426.155 348.926C426.527 349.625 425.936 350.487 425.936 350.528" stroke="white" stroke-width="0.460984"/>
<path d="M437.484 349.231C437.432 349.329 437.405 349.663 437.702 350.223C438.074 350.922 437.484 351.784 437.484 351.825" stroke="white" stroke-width="0.460984"/>
<path d="M423.933 329.399C423.882 329.497 423.854 329.831 424.151 330.39C424.523 331.089 423.933 331.952 423.933 331.993" stroke="white" stroke-width="0.460984"/>
<path d="M435.811 321.695C435.76 321.792 435.732 322.127 436.03 322.686C436.401 323.384 435.811 324.248 435.811 324.289" stroke="white" stroke-width="0.460984"/>
<path d="M440.539 333.683C440.488 333.781 440.461 334.115 440.758 334.674C441.13 335.373 440.539 336.237 440.539 336.278" stroke="white" stroke-width="0.460984"/>
<path d="M423.559 312.665C423.508 312.762 423.481 313.097 423.778 313.655C424.149 314.354 423.559 315.218 423.559 315.259" stroke="white" stroke-width="0.460984"/>
<path d="M446.312 317.857C446.261 317.954 446.233 318.289 446.531 318.848C446.903 319.547 446.312 320.41 446.312 320.451" stroke="white" stroke-width="0.460984"/>
<path d="M429.317 317.855C429.572 317.855 429.778 317.649 429.778 317.396C429.778 317.142 429.572 316.936 429.317 316.936C429.063 316.936 428.857 317.142 428.857 317.396C428.857 317.649 429.063 317.855 429.317 317.855Z" fill="white"/>
<path d="M432.413 331.072C432.668 331.072 432.874 330.867 432.874 330.613C432.874 330.36 432.668 330.154 432.413 330.154C432.159 330.154 431.952 330.36 431.952 330.613C431.952 330.867 432.159 331.072 432.413 331.072Z" fill="white"/>
<path d="M439.433 314.423C439.687 314.423 439.894 314.217 439.894 313.964C439.894 313.71 439.687 313.505 439.433 313.505C439.178 313.505 438.972 313.71 438.972 313.964C438.972 314.217 439.178 314.423 439.433 314.423Z" fill="white"/>
<path d="M429.777 299.692C430.032 299.692 430.238 299.487 430.238 299.233C430.238 298.979 430.032 298.774 429.777 298.774C429.523 298.774 429.316 298.979 429.316 299.233C429.316 299.487 429.523 299.692 429.777 299.692Z" fill="#FF4800"/>
<path d="M420.943 320.069C421.197 320.069 421.404 319.864 421.404 319.61C421.404 319.357 421.197 319.151 420.943 319.151C420.688 319.151 420.482 319.357 420.482 319.61C420.482 319.864 420.688 320.069 420.943 320.069Z" fill="white"/>
<path d="M414.274 339.667C414.529 339.667 414.735 339.461 414.735 339.207C414.735 338.954 414.529 338.748 414.274 338.748C414.02 338.748 413.813 338.954 413.813 339.207C413.813 339.461 414.02 339.667 414.274 339.667Z" fill="white"/>
<path d="M398.319 338.374C398.573 338.374 398.78 338.169 398.78 337.915C398.78 337.662 398.573 337.456 398.319 337.456C398.064 337.456 397.858 337.662 397.858 337.915C397.858 338.169 398.064 338.374 398.319 338.374Z" fill="white"/>
<path d="M436.615 342.885C436.869 342.885 437.076 342.68 437.076 342.426C437.076 342.173 436.869 341.967 436.615 341.967C436.36 341.967 436.154 342.173 436.154 342.426C436.154 342.68 436.36 342.885 436.615 342.885Z" fill="white"/>
<path d="M441.915 357.402C442.17 357.402 442.376 357.196 442.376 356.942C442.376 356.689 442.17 356.483 441.915 356.483C441.66 356.483 441.454 356.689 441.454 356.942C441.454 357.196 441.66 357.402 441.915 357.402Z" fill="white"/>
<path d="M445.27 327.4C445.525 327.4 445.731 327.194 445.731 326.94C445.731 326.687 445.525 326.481 445.27 326.481C445.015 326.481 444.809 326.687 444.809 326.94C444.809 327.194 445.015 327.4 445.27 327.4Z" fill="white"/>
<path d="M483.617 416.813C483.617 416.638 483.758 416.497 483.934 416.497H501.413C501.588 416.497 501.73 416.638 501.73 416.813V418.91C501.73 419.084 501.588 419.226 501.413 419.226H483.934C483.758 419.226 483.617 419.084 483.617 418.91V416.813Z" fill="white" stroke="#424242" stroke-width="0.634472"/>
<path d="M486.491 434.422L485.119 419.228H500.476L498.657 434.422H486.491Z" fill="white" stroke="#424242" stroke-width="0.634472" stroke-linejoin="round"/>
<path d="M492.673 416.183C492.341 403.867 494.828 374.626 507.433 356.192" stroke="#424242" stroke-width="0.634472" stroke-linejoin="round"/>
<path d="M499.854 411.415C494.269 413.64 492.341 409.428 492.075 407.045C491.944 405.937 492.303 403.042 494.753 400.222C494.828 400.135 494.912 400.057 495.002 399.985C495.54 399.556 495.823 398.886 495.755 398.203L495.67 397.357C495.543 396.097 496.093 394.864 497.117 394.113L497.691 393.691C498.695 392.954 499.376 391.862 499.593 390.639L499.764 389.672C499.823 389.34 499.96 389.026 500.163 388.757C500.354 388.503 500.596 388.292 500.878 388.147C501.263 387.947 501.738 387.723 502.247 387.59C503.244 387.33 504.042 387.59 505.099 388.571C505.239 388.766 505.373 388.991 505.499 389.252C505.596 389.455 505.638 389.68 505.638 389.906C505.638 390.203 505.561 390.495 505.414 390.753L504.934 391.603C504.234 392.843 504.049 394.306 504.417 395.681L504.474 395.898C504.584 396.309 504.64 396.732 504.64 397.157V397.642C504.64 398.697 504.197 399.705 503.419 400.421C502.554 401.216 502.108 402.365 502.211 403.533L502.405 405.716C502.561 407.482 502.228 409.333 500.981 410.598C500.595 410.988 500.201 411.3 499.854 411.415Z" fill="#FFD600" stroke="#424242" stroke-width="0.634472" stroke-linejoin="round"/>
<path d="M494.07 416.184C495.599 410.29 499.096 397.908 500.851 395.524" stroke="#424242" stroke-width="0.634472" stroke-linejoin="round"/>
<path d="M483.738 402.783C490.417 404.471 491.96 399.383 491.897 396.628C491.876 395.346 491.025 392.104 487.813 389.263C487.715 389.176 487.607 389.098 487.493 389.03C486.817 388.623 486.393 387.904 486.367 387.118L486.334 386.139C486.284 384.684 485.47 383.362 484.19 382.66L483.478 382.27C482.226 381.582 481.286 380.442 480.854 379.084L480.51 378.004C480.392 377.636 480.19 377.3 479.919 377.024C479.663 376.764 479.354 376.561 479.011 376.437C478.542 376.267 477.97 376.084 477.373 376.011C476.202 375.866 475.337 376.282 474.287 377.559C474.158 377.802 474.041 378.08 473.938 378.395C473.858 378.642 473.845 378.904 473.88 379.161C473.925 379.499 474.057 379.819 474.262 380.093L474.938 380.988C475.922 382.294 476.358 383.931 476.15 385.551L476.117 385.809C476.055 386.294 476.057 386.784 476.122 387.268L476.197 387.824C476.358 389.024 477.015 390.103 478.008 390.801C479.112 391.576 479.793 392.815 479.855 394.158L479.969 396.68C480.062 398.714 480.724 400.771 482.335 402.024C482.833 402.41 483.326 402.705 483.738 402.783Z" fill="#4BE477" stroke="#424242" stroke-width="0.634472" stroke-linejoin="round"/>
<path d="M479.51 382.811C482.834 388.572 489.442 403.35 489.283 416.382" stroke="#424242" stroke-width="0.634472" stroke-linejoin="round"/>
<path d="M499.762 383.213C490.255 384.904 488.598 377.66 488.957 373.825C489.112 372.04 490.621 367.606 495.392 363.964C495.539 363.853 495.697 363.755 495.861 363.671C496.847 363.172 497.511 362.209 497.626 361.113L497.768 359.757C497.98 357.735 499.247 355.974 501.102 355.123L502.143 354.646C503.961 353.813 505.388 352.315 506.128 350.462L506.712 348.997C506.913 348.494 507.229 348.045 507.637 347.686C508.019 347.351 508.47 347.098 508.961 346.959C509.633 346.77 510.452 346.571 511.294 346.527C512.947 346.442 514.117 347.108 515.458 348.991C515.615 349.343 515.752 349.742 515.865 350.191C515.953 350.543 515.944 350.91 515.871 351.265C515.774 351.732 515.558 352.166 515.244 352.525L514.212 353.706C512.707 355.429 511.937 357.67 512.068 359.949L512.088 360.31C512.127 360.991 512.076 361.675 511.938 362.344L511.78 363.105C511.435 364.765 510.411 366.206 508.952 367.08C507.334 368.051 506.258 369.713 506.04 371.582L505.632 375.078C505.302 377.905 504.174 380.707 501.801 382.292C501.067 382.782 500.347 383.145 499.762 383.213Z" stroke="#424242" stroke-width="0.634472" stroke-linejoin="round"/>
<path d="M545.811 308.634C547.541 308.634 548.944 307.237 548.944 305.514C548.944 303.791 547.541 302.394 545.811 302.394C544.08 302.394 542.678 303.791 542.678 305.514C542.678 307.237 544.08 308.634 545.811 308.634Z" stroke="#FF4800" stroke-width="0.696239"/>
</g>
<path d="M79.7568 70.5203L79.7568 59.2653L84.0154 59.2653C86.0521 59.2653 87.3482 60.4948 87.3482 62.2918C87.3482 63.3795 86.7927 64.2307 86.0058 64.5617C87.1167 64.8455 87.9036 65.8386 87.9036 67.21C87.9036 69.1016 86.515 70.5203 84.5246 70.5203L79.7568 70.5203ZM83.8302 61.3933L82.3027 61.3933L82.3027 63.7105L83.8302 63.7105C84.4783 63.7105 84.9411 63.2849 84.9411 62.5283C84.9411 61.7716 84.432 61.3933 83.8302 61.3933ZM84.1542 65.7913L82.3027 65.7913L82.3027 68.3922L84.1542 68.3922C84.8486 68.3922 85.3115 67.872 85.3115 67.1154C85.3115 66.3115 84.8023 65.7913 84.1542 65.7913Z" fill="#283A5E"/>
<path d="M93.4937 61.9942C96.0859 61.9942 98.0763 63.8858 98.0763 66.3449C98.0763 68.804 96.1321 70.6956 93.4937 70.6956C90.9015 70.6956 88.9111 68.804 88.9111 66.3449C88.9574 63.8858 90.9015 61.9942 93.4937 61.9942ZM93.4937 68.4256C94.6509 68.4256 95.5304 67.5271 95.5304 66.3449C95.5304 65.1626 94.6509 64.2641 93.4937 64.2641C92.3365 64.2641 91.457 65.1626 91.457 66.3449C91.457 67.5271 92.3365 68.4256 93.4937 68.4256Z" fill="#283A5E"/>
<path d="M102.103 59.2653L99.5566 59.2653L99.5566 70.5203L102.103 70.5203L102.103 59.2653Z" fill="#283A5E"/>
<path d="M107.381 62.0081C108.446 62.0081 109.325 62.4337 109.973 63.0957L109.973 59.2653L112.473 59.2653L112.473 70.5203L109.973 70.5203L109.973 69.6218C109.325 70.3311 108.446 70.7094 107.381 70.7094C105.159 70.7094 103.539 68.8178 103.539 66.3588C103.539 63.8997 105.159 62.0081 107.381 62.0081ZM108.029 68.4395C109.14 68.4395 109.973 67.541 109.973 66.3588C109.973 65.1765 109.094 64.278 108.029 64.278C106.918 64.278 106.085 65.1765 106.085 66.3588C106.085 67.541 106.918 68.4395 108.029 68.4395Z" fill="#283A5E"/>
<path d="M119.972 59.2653C123.305 59.2653 125.481 61.4879 125.481 64.8928C125.481 68.2976 123.259 70.5203 119.972 70.5203L115.853 70.5203L115.853 59.2653L119.972 59.2653ZM118.491 61.5825L118.491 68.2031L119.278 68.2031C119.556 68.2031 119.833 68.2031 120.065 68.1558C121.777 68.0612 122.888 66.9735 122.888 64.8455C122.888 62.6701 121.639 61.5352 119.833 61.5352L118.491 61.5352L118.491 61.5825Z" fill="#283A5E"/>
<path d="M131.307 68.7761C132.372 68.7761 133.205 68.4451 133.946 67.783L135.01 69.0125C134.131 70.0056 132.927 70.7623 131.261 70.7623C128.437 70.7623 126.586 68.8707 126.586 66.4116C126.586 63.9525 128.53 62.0609 131.076 62.0609C133.576 62.0609 135.381 63.9525 135.381 66.2697C135.381 66.5535 135.334 66.8845 135.242 67.1209L129.132 67.1209C129.271 68.114 130.104 68.7761 131.307 68.7761ZM129.132 65.4185L132.789 65.4185C132.603 64.52 131.955 63.9052 131.03 63.9052C130.104 63.9525 129.363 64.52 129.132 65.4185Z" fill="#283A5E"/>
<path d="M137.33 67.8303C137.978 68.4451 138.673 68.7761 139.46 68.7761C140.108 68.7761 140.432 68.5396 140.432 68.114C140.432 67.6884 140.108 67.452 139.182 67.2628C137.469 66.8845 136.544 65.9387 136.544 64.5673C136.544 63.1013 137.793 62.0609 139.552 62.0609C141.496 62.0609 142.561 63.1959 142.793 64.7564L140.617 64.7564C140.524 64.2835 140.2 63.9998 139.691 63.9998C139.228 63.9998 138.904 64.2363 138.904 64.5673C138.904 64.9456 139.228 65.2293 140.108 65.4185C141.959 65.7968 142.839 66.7426 142.839 68.114C142.839 69.6273 141.543 70.715 139.552 70.715C138.349 70.715 137.238 70.1002 136.358 68.9653L137.33 67.8303Z" fill="#283A5E"/>
<path d="M151.444 62.1972C151.444 64.3253 150.889 65.744 149.917 66.4533L152 70.5203L149.269 70.5203L147.603 67.0681L146.908 67.0681L146.908 70.5203L144.362 70.5203L144.362 59.2653L146.908 59.2653L146.908 64.8928L147.417 64.8928C148.251 64.8928 148.991 64.3726 148.991 62.1972L151.444 62.1972Z" fill="#283A5E"/>
<path d="M81.9129 80.3543C81.3574 80.3543 80.8945 80.1179 80.5705 79.7395L80.5705 80.2597L79.7373 80.2597L79.7373 74.6795L80.5705 74.6795L80.5705 76.8548C80.8945 76.4765 81.3574 76.2401 81.9129 76.2401C83.0238 76.2401 83.8107 77.1386 83.8107 78.3208C83.8107 79.4085 83.0238 80.3543 81.9129 80.3543ZM81.774 76.9967C81.0797 76.9967 80.5705 77.5642 80.5705 78.2735C80.5705 78.9829 81.0797 79.5504 81.774 79.5504C82.4683 79.5504 82.9775 78.9829 82.9775 78.2735C82.9312 77.5642 82.4683 76.9967 81.774 76.9967Z" fill="#283A5E"/>
<path d="M84.8728 82.0004L85.5672 80.2034L84.0859 76.2783L84.9654 76.2783L85.9838 79.1157L87.0021 76.2783L87.8816 76.2783L85.7523 82.0004L84.8728 82.0004Z" fill="#283A5E"/>
<path d="M91.0689 78.8887C91.4392 79.3143 91.9021 79.5981 92.4113 79.5981C93.0131 79.5981 93.4297 79.3143 93.4297 78.8414C93.4297 78.4158 93.1519 78.0848 92.2724 77.8956C91.2078 77.6592 90.6523 77.139 90.6523 76.3351C90.6523 75.4365 91.3467 74.8218 92.365 74.8218C93.2908 74.8218 94.124 75.342 94.2166 76.3823L93.3371 76.3823C93.2908 75.8622 92.9205 75.5784 92.4113 75.5784C91.9021 75.5784 91.5781 75.8622 91.5781 76.2405C91.5781 76.6661 91.9021 76.9498 92.689 77.139C93.8463 77.4227 94.3554 77.9429 94.3554 78.7941C94.3554 79.6926 93.6611 80.3547 92.4576 80.3547C91.7633 80.3547 91.1152 79.9764 90.6523 79.3616L91.0689 78.8887Z" fill="#283A5E"/>
<path d="M95.4285 82.0004L96.1228 80.2034L94.6416 76.2783L95.5211 76.2783L96.5394 79.1157L97.5578 76.2783L98.4373 76.2783L96.308 82.0004L95.4285 82.0004Z" fill="#283A5E"/>
<path d="M102.598 77.7926L102.598 80.2044L101.765 80.2044L101.765 77.8399C101.765 77.3197 101.395 76.9414 100.886 76.9414C100.377 76.9414 99.8674 77.4143 99.8674 78.0291L99.8674 80.2044L99.0342 80.2044L99.0342 76.2793L99.8674 76.2793L99.8674 76.7995C100.145 76.4212 100.562 76.1848 101.025 76.1848C101.997 76.1848 102.598 76.8468 102.598 77.7926Z" fill="#283A5E"/>
<path d="M107.132 79.2586C106.761 79.968 106.16 80.3463 105.419 80.3463C104.262 80.3463 103.336 79.4478 103.336 78.2655C103.336 77.0833 104.215 76.1848 105.326 76.1848C106.298 76.1848 106.993 76.7049 107.224 77.6035L106.298 77.6035C106.16 77.2251 105.836 76.9414 105.373 76.9414C104.771 76.9414 104.215 77.4616 104.215 78.2182C104.215 79.0222 104.817 79.4951 105.465 79.4951C105.928 79.4951 106.345 79.2586 106.669 78.833L107.132 79.2586Z" fill="#283A5E"/>
<path d="M110.091 75.4361C109.998 75.4361 109.859 75.4361 109.767 75.4361C109.258 75.4361 109.072 75.6726 109.072 76.0982L109.072 76.3347L110.091 76.3347L110.091 77.044L109.072 77.044L109.072 80.2124L108.239 80.2124L108.239 77.044L107.545 77.044L107.545 76.2874L108.239 76.2874L108.239 76.0509C108.239 75.1051 108.702 74.6795 109.674 74.6795C109.813 74.6795 109.998 74.6795 110.091 74.7268L110.091 75.4361Z" fill="#283A5E"/>
<path d="M110.71 78.7577L110.71 76.3459L111.543 76.3459L111.543 78.7104C111.543 79.2306 111.913 79.609 112.423 79.609C112.978 79.609 113.441 79.1361 113.441 78.474L113.441 76.3459L114.274 76.3459L114.274 80.271L113.441 80.271L113.441 79.7508C113.163 80.1291 112.747 80.3656 112.284 80.3656C111.312 80.3183 110.71 79.7035 110.71 78.7577Z" fill="#283A5E"/>
<path d="M115.477 79.1371C115.754 79.4209 116.079 79.6573 116.495 79.6573C116.912 79.6573 117.189 79.4682 117.189 79.1844C117.189 78.9007 116.958 78.7115 116.449 78.6169C115.616 78.4278 115.199 78.0022 115.199 77.3874C115.199 76.7253 115.708 76.2524 116.541 76.2524C117.328 76.2524 117.884 76.6781 117.976 77.4347L117.143 77.4347C117.097 77.151 116.912 76.9618 116.588 76.9618C116.264 76.9618 116.032 77.151 116.032 77.3874C116.032 77.6239 116.264 77.8603 116.727 77.9549C117.606 78.144 118.023 78.5224 118.023 79.1844C118.023 79.8465 117.467 80.3667 116.541 80.3667C115.94 80.3667 115.477 80.0829 115.106 79.61L115.477 79.1371Z" fill="#283A5E"/>
<path d="M119.273 74.6795C119.551 74.6795 119.782 74.916 119.782 75.1997C119.782 75.4834 119.551 75.7199 119.273 75.7199C118.995 75.7199 118.764 75.4834 118.764 75.1997C118.764 74.916 118.995 74.6795 119.273 74.6795ZM118.856 76.2874L119.689 76.2874L119.689 80.2124L118.856 80.2124L118.856 76.2874Z" fill="#283A5E"/>
<path d="M122.645 76.1848C123.848 76.1848 124.774 77.0833 124.774 78.2655C124.774 79.4478 123.895 80.3463 122.645 80.3463C121.441 80.3463 120.516 79.4478 120.516 78.2655C120.516 77.0833 121.441 76.1848 122.645 76.1848ZM122.645 79.5423C123.339 79.5423 123.895 78.9749 123.895 78.2655C123.895 77.5562 123.339 76.9887 122.645 76.9887C121.951 76.9887 121.395 77.5562 121.395 78.2655C121.395 78.9749 121.951 79.5423 122.645 79.5423Z" fill="#283A5E"/>
<path d="M129.118 77.7926L129.118 80.2044L128.285 80.2044L128.285 77.8399C128.285 77.3197 127.914 76.9414 127.405 76.9414C126.896 76.9414 126.387 77.4143 126.387 78.0291L126.387 80.2044L125.554 80.2044L125.554 76.2793L126.387 76.2793L126.387 76.7995C126.665 76.4212 127.081 76.1848 127.544 76.1848C128.516 76.1848 129.118 76.8468 129.118 77.7926Z" fill="#283A5E"/>
<path d="M61.8777 73.9702L68.4506 73.9702C71.6908 73.9702 74.3293 71.2747 74.3293 67.9644L74.3293 62.0058C74.3293 58.6955 71.6908 56 68.4506 56L61.8777 56C58.6375 56 55.999 58.6955 55.999 62.0058L55.999 68.0117C55.999 71.2747 58.6375 73.9702 61.8777 73.9702ZM59.2855 56.6148L62.572 59.7359L68.8209 59.7359C70.0244 59.7359 70.9965 60.729 70.9965 61.9585L70.9965 68.3427C70.9965 69.5722 70.0244 70.5653 68.8209 70.5653L61.5074 70.5653C60.3039 70.5653 59.3318 69.5722 59.3318 68.3427L59.3318 56.6148L59.2855 56.6148Z" fill="#FF4800"/>
<path d="M67.7142 68.347L66.233 66.8337L62.9465 66.8337C62.7613 66.8337 62.5762 66.6446 62.5762 66.4554L62.5762 63.0978C62.5762 62.9086 62.7613 62.7195 62.9465 62.7195L67.3439 62.7195C67.529 62.7195 67.7142 62.9086 67.7142 63.0978L67.7142 68.347Z" fill="#FF4800"/>
</g>
</svg>
