<svg width="24" height="24" viewBox="0 0 24 24" fill="none" xmlns="http://www.w3.org/2000/svg">
<path d="M8.03886 5.5985H9.87617V13.6962H8.03886V5.5985ZM13.9398 5.53801C12.8225 5.53801 12.0302 5.61036 11.4644 5.70762V13.6962H13.2792V10.8008C13.4488 10.8246 13.6635 10.8376 13.9042 10.8376C14.9848 10.8376 15.91 10.5719 16.5351 9.98241C17.0154 9.52456 17.2799 8.85322 17.2799 8.0597C17.2799 7.26737 16.93 6.59603 16.4153 6.18681C15.8744 5.75388 15.0678 5.53801 13.9398 5.53801ZM13.89 9.42967C13.6267 9.42967 13.4333 9.41781 13.278 9.38104V6.99219C13.4096 6.95661 13.6623 6.91984 14.0359 6.91984C14.948 6.91984 15.4652 7.36463 15.4652 8.10833C15.4652 8.93743 14.8638 9.42967 13.89 9.42967ZM12.0017 0C6.55265 0 2.13672 4.41593 2.13672 9.86379C2.13672 15.3117 12.0017 24 12.0017 24C12.0017 24 21.8667 15.3128 21.8667 9.86498C21.8667 4.41712 17.4507 0 12.0017 0ZM12.0266 15.862C8.40893 15.862 5.47684 12.9287 5.47684 9.30987C5.47684 5.6922 8.41012 2.76011 12.0266 2.76011C15.6455 2.76011 18.5764 5.69339 18.5764 9.30987C18.5764 12.9275 15.6443 15.862 12.0266 15.862Z" fill="#475467"/>
</svg>
