<svg width="512" height="768" viewBox="0 0 512 768" fill="none" xmlns="http://www.w3.org/2000/svg">
<defs>
<filter id="filter0_f_1325_1701" x="-311.941" y="-347.241" width="1003.07" height="1010.01" filterUnits="userSpaceOnUse" color-interpolation-filters="sRGB">
<feFlood flood-opacity="0" result="BackgroundImageFix"/>
<feBlend mode="normal" in="SourceGraphic" in2="BackgroundImageFix" result="shape"/>
<feGaussianBlur stdDeviation="55.6853" result="effect1_foregroundBlur_1325_1701"/>
</filter>
<filter id="filter1_f_1325_1701" x="-403.255" y="116.842" width="1226.14" height="1146.94" filterUnits="userSpaceOnUse" color-interpolation-filters="sRGB">
<feFlood flood-opacity="0" result="BackgroundImageFix"/>
<feBlend mode="normal" in="SourceGraphic" in2="BackgroundImageFix" result="shape"/>
<feGaussianBlur stdDeviation="50" result="effect1_foregroundBlur_1325_1701"/>
</filter>
<filter id="filter2_bii_1325_1701" x="-27.0667" y="-27.0667" width="1420.13" height="856.133" filterUnits="userSpaceOnUse" color-interpolation-filters="sRGB">
<feFlood flood-opacity="0" result="BackgroundImageFix"/>
<feGaussianBlur in="BackgroundImageFix" stdDeviation="4.06"/>
<feComposite in2="SourceAlpha" operator="in" result="effect1_backgroundBlur_1325_1701"/>
<feBlend mode="normal" in="SourceGraphic" in2="effect1_backgroundBlur_1325_1701" result="shape"/>
<feColorMatrix in="SourceAlpha" type="matrix" values="0 0 0 0 0 0 0 0 0 0 0 0 0 0 0 0 0 0 127 0" result="hardAlpha"/>
<feOffset dx="-27.0667" dy="27.0667"/>
<feGaussianBlur stdDeviation="13.5333"/>
<feComposite in2="hardAlpha" operator="arithmetic" k2="-1" k3="1"/>
<feColorMatrix type="matrix" values="0 0 0 0 1 0 0 0 0 1 0 0 0 0 1 0 0 0 0.085 0"/>
<feBlend mode="normal" in2="shape" result="effect2_innerShadow_1325_1701"/>
<feColorMatrix in="SourceAlpha" type="matrix" values="0 0 0 0 0 0 0 0 0 0 0 0 0 0 0 0 0 0 127 0" result="hardAlpha"/>
<feOffset dx="27.0667" dy="-27.0667"/>
<feGaussianBlur stdDeviation="13.5333"/>
<feComposite in2="hardAlpha" operator="arithmetic" k2="-1" k3="1"/>
<feColorMatrix type="matrix" values="0 0 0 0 0.76 0 0 0 0 0.76 0 0 0 0 0.76 0 0 0 0.085 0"/>
<feBlend mode="normal" in2="effect2_innerShadow_1325_1701" result="effect3_innerShadow_1325_1701"/>
</filter>
<linearGradient id="paint0_linear_1325_1701" x1="165" y1="273.168" x2="159.007" y2="363.29" gradientUnits="userSpaceOnUse">
<stop stop-color="#CEB7FB"/>
<stop offset="1" stop-color="#DECDFF" stop-opacity="0.2"/>
</linearGradient>
<linearGradient id="paint1_linear_1325_1701" x1="97.2983" y1="708.651" x2="100.543" y2="659.851" gradientUnits="userSpaceOnUse">
<stop stop-color="#CEB7FB"/>
<stop offset="1" stop-color="#DECDFF" stop-opacity="0.2"/>
</linearGradient>
<linearGradient id="paint2_linear_1325_1701" x1="453.43" y1="685" x2="477.93" y2="657.5" gradientUnits="userSpaceOnUse">
<stop stop-color="#FFD2C0"/>
<stop offset="1" stop-color="#FFD2C0" stop-opacity="0.34"/>
</linearGradient>
<clipPath id="clip0_1325_1701">
<rect width="512" height="768" fill="white"/>
</clipPath>
<clipPath id="clip1_1325_1701">
<rect width="332" height="306.678" fill="white" transform="translate(90 230.703)"/>
</clipPath>
</defs>
<g clip-path="url(#clip0_1325_1701)">
<g opacity="0.1" filter="url(#filter0_f_1325_1701)">
<path fill-rule="evenodd" clip-rule="evenodd" d="M483.871 -222.546C586.177 -165.829 591.745 -12.7358 568.371 123.201C545.698 255.063 477.62 390.989 363.676 476.487C256.118 557.194 126.58 567.241 22.9509 532.458C-64.5305 503.095 -85.1359 402.326 -118.869 314.519C-156.211 217.321 -241.917 120.652 -176.96 12.0997C-112.172 -96.1713 27.0656 -75.7358 138.288 -115.228C259.06 -158.112 389.06 -275.106 483.871 -222.546Z" fill="#D3BCFF"/>
</g>
<path opacity="0.7" d="M171.559 279.276C148.357 275.81 126.742 291.805 123.276 315.007C119.81 338.208 135.806 359.823 159.007 363.29C182.208 366.756 203.823 350.76 207.29 327.559C210.756 304.357 194.76 282.742 171.559 279.276ZM161.471 346.795C147.381 344.69 137.665 331.562 139.771 317.471C141.876 303.38 155.004 293.665 169.094 295.77C183.185 297.876 192.9 311.003 190.795 325.094C188.69 339.185 175.562 348.9 161.471 346.795Z" fill="url(#paint0_linear_1325_1701)"/>
<path opacity="0.7" d="M93.7468 705.344C106.31 707.221 118.014 698.559 119.891 685.996C121.768 673.432 113.107 661.728 100.543 659.851C87.98 657.974 76.2757 666.636 74.3987 679.199C72.5218 691.763 81.1834 703.467 93.7468 705.344ZM99.209 668.783C106.839 669.923 112.1 677.031 110.96 684.661C109.82 692.291 102.711 697.552 95.0812 696.412C87.4511 695.272 82.1905 688.164 83.3304 680.534C84.4703 672.904 91.5789 667.643 99.209 668.783Z" fill="url(#paint1_linear_1325_1701)"/>
<path opacity="0.5" d="M472.134 645.03C458.044 642.925 444.917 652.639 442.812 666.73C440.707 680.82 450.421 693.947 464.511 696.052C478.602 698.157 491.729 688.443 493.834 674.353C495.939 660.262 486.225 647.135 472.134 645.03ZM466.008 686.035C457.451 684.756 451.551 676.784 452.829 668.226C454.107 659.669 462.08 653.769 470.638 655.047C479.195 656.326 485.095 664.298 483.817 672.856C482.538 681.413 474.565 687.313 466.008 686.035Z" fill="url(#paint2_linear_1325_1701)"/>
<g opacity="0.1" filter="url(#filter1_f_1325_1701)">
<path fill-rule="evenodd" clip-rule="evenodd" d="M545.269 245.822C691.435 336.767 727.694 531.197 722.393 698.496C717.252 860.779 652.755 1019.63 518.012 1106.13C390.82 1187.78 221.193 1176.03 77.4139 1112.54C-43.9619 1058.94 -90.2592 927.767 -151.494 810.489C-219.278 680.667 -351.003 542.389 -285.474 417.527C-220.116 292.989 -31.8935 345.074 107.926 316.175C259.751 284.794 409.812 161.541 545.269 245.822Z" fill="#92BCFF"/>
</g>
<g filter="url(#filter2_bii_1325_1701)">
<rect width="1366" height="802" fill="white" fill-opacity="0.085"/>
</g>
<g clip-path="url(#clip1_1325_1701)">
<path opacity="0.5" d="M158.069 360.188C164.905 380.833 179.638 403.456 201.324 410.825C234.083 421.956 237.008 448.744 296.466 448.531C305.147 448.546 313.803 447.62 322.283 445.77C326.428 444.852 330.511 443.672 334.506 442.237C369.729 429.582 389.013 399.488 391.775 367.33C395.403 325.037 366.501 303.695 347.683 291.111C328.866 278.528 307.377 231.827 248.923 231.55C240 231.474 231.097 232.423 222.392 234.376C202.546 238.919 182.121 249.857 169.852 266.53C168.936 267.781 168.053 269.063 167.201 270.376C150.634 296.033 148.743 332.042 158.069 360.188Z" fill="#D1F2FA"/>
<path d="M394.356 276.527C396.831 276.527 398.838 278.526 398.838 280.992V397.775C398.838 400.241 396.831 402.24 394.356 402.24H200.235C197.76 402.24 195.753 400.241 195.753 397.775V280.992C195.753 278.526 197.76 276.527 200.235 276.527H394.356Z" fill="white" stroke="#7DACC5" stroke-width="0.871827"/>
<path d="M388.191 328.743C388.191 327.954 388.833 327.315 389.624 327.315C390.416 327.315 391.057 327.954 391.057 328.743C391.057 329.531 390.416 330.17 389.624 330.17C388.833 330.17 388.191 329.531 388.191 328.743Z" fill="white" stroke="#6631FE" stroke-width="0.674423"/>
<path d="M388.191 338.145C388.191 337.357 388.833 336.718 389.624 336.718C390.416 336.718 391.057 337.357 391.057 338.145C391.057 338.933 390.416 339.573 389.624 339.573C388.833 339.573 388.191 338.933 388.191 338.145Z" fill="white" stroke="#6631FE" stroke-width="0.674423"/>
<path d="M310.684 389.305L310.684 370.496L355.831 370.496L355.831 389.305L310.684 389.305Z" fill="white"/>
<path d="M277.932 388.13L277.932 371.085L296.522 371.085L296.522 388.13L277.932 388.13Z" fill="white"/>
<path d="M247.244 349.337L247.244 330.528L292.39 330.528L292.39 349.337L247.244 349.337Z" fill="white"/>
<path d="M335.766 385.78C335.115 385.78 334.586 386.306 334.586 386.956C334.586 387.605 335.115 388.131 335.766 388.131H355.832V385.78H335.766Z" fill="#2E5CFF"/>
<path d="M342.846 385.78C342.194 385.78 341.666 386.306 341.666 386.956C341.666 387.605 342.194 388.131 342.846 388.131H355.829V385.78H342.846Z" fill="#FFD600"/>
<path d="M349.929 385.78C349.277 385.78 348.749 386.306 348.749 386.956C348.749 387.605 349.277 388.131 349.929 388.131H355.831V385.78H349.929Z" fill="#FF4800"/>
<path d="M327.503 382.251C326.852 382.251 326.323 382.777 326.323 383.426C326.323 384.075 326.852 384.601 327.503 384.601H355.83V382.251H327.503Z" fill="#2E5CFF"/>
<path d="M339.895 382.251C339.243 382.251 338.714 382.777 338.714 383.426C338.714 384.075 339.243 384.601 339.895 384.601H355.829V382.251H339.895Z" fill="#FFD600"/>
<path d="M345.208 382.251C344.557 382.251 344.028 382.777 344.028 383.426C344.028 384.075 344.557 384.601 345.208 384.601H355.831V382.251H345.208Z" fill="#FF4800"/>
<path d="M319.833 378.725C319.181 378.725 318.653 379.252 318.653 379.901C318.653 380.55 319.181 381.077 319.833 381.077H355.832V378.725H319.833Z" fill="#2E5CFF"/>
<path d="M324.849 378.725C324.197 378.725 323.669 379.252 323.669 379.901C323.669 380.55 324.197 381.077 324.849 381.077H355.831V378.725H324.849Z" fill="#FFD600"/>
<path d="M336.355 378.725C335.704 378.725 335.175 379.252 335.175 379.901C335.175 380.55 335.704 381.077 336.355 381.077H355.831V378.725H336.355Z" fill="#FF4800"/>
<path d="M323.961 375.199C323.309 375.199 322.781 375.725 322.781 376.375C322.781 377.024 323.309 377.55 323.961 377.55H355.829V375.199H323.961Z" fill="#2E5CFF"/>
<path d="M333.406 375.199C332.754 375.199 332.226 375.725 332.226 376.375C332.226 377.024 332.754 377.55 333.406 377.55H355.831V375.199H333.406Z" fill="#FFD600"/>
<path d="M339.012 375.199C338.36 375.199 337.832 375.725 337.832 376.375C337.832 377.024 338.36 377.55 339.012 377.55H355.832V375.199H339.012Z" fill="#FF4800"/>
<path d="M316.288 371.672C315.636 371.672 315.108 372.198 315.108 372.847C315.108 373.497 315.636 374.024 316.288 374.024H355.828V371.672H316.288Z" fill="#2E5CFF"/>
<path d="M331.634 371.672C330.982 371.672 330.454 372.198 330.454 372.847C330.454 373.497 330.982 374.024 331.634 374.024H355.83V371.672H331.634Z" fill="#FFD600"/>
<path d="M335.472 371.672C334.82 371.672 334.291 372.198 334.291 372.847C334.291 373.497 334.82 374.024 335.472 374.024H355.831V371.672H335.472Z" fill="#FF4800"/>
<path d="M389.83 282.263H393.969C394.132 282.263 394.264 282.395 394.264 282.557C394.264 282.72 394.132 282.852 393.969 282.852H389.83C389.667 282.852 389.534 282.72 389.534 282.557C389.534 282.395 389.667 282.263 389.83 282.263Z" fill="#6631FE"/>
<path d="M394.186 284.03C394.186 283.867 394.054 283.735 393.891 283.735H390.934C390.771 283.735 390.638 283.867 390.638 284.03C390.638 284.192 390.771 284.324 390.934 284.324H393.891C394.054 284.324 394.186 284.192 394.186 284.03Z" fill="#6631FE"/>
<path d="M390.421 285.208H393.969C394.132 285.208 394.264 285.339 394.264 285.502C394.264 285.665 394.132 285.796 393.969 285.796H390.421C390.258 285.796 390.126 285.665 390.126 285.502C390.126 285.339 390.258 285.208 390.421 285.208Z" fill="#6631FE"/>
<path d="M362.334 282.853H383.62C384.273 282.853 384.803 283.381 384.803 284.031V284.031C384.803 284.682 384.273 285.209 383.62 285.209H362.334C361.681 285.209 361.152 284.682 361.152 284.031C361.152 283.381 361.681 282.853 362.334 282.853Z" fill="#6631FE"/>
<path d="M245.856 284.03C245.856 283.054 246.65 282.263 247.63 282.263C248.609 282.263 249.404 283.054 249.404 284.03C249.404 285.005 248.609 285.796 247.63 285.796C246.65 285.796 245.856 285.005 245.856 284.03Z" fill="#6631FE"/>
<path d="M389.535 299.088H389.535C390.328 299.088 390.971 299.728 390.971 300.519V300.519C390.971 301.309 390.328 301.95 389.535 301.95H389.535C388.741 301.95 388.098 301.309 388.098 300.519V300.519C388.098 299.728 388.741 299.088 389.535 299.088Z" fill="white" stroke="#6631FE" stroke-width="0.674423"/>
<path d="M389.535 308.511H389.535C390.328 308.511 390.971 309.151 390.971 309.941V309.941C390.971 310.732 390.328 311.372 389.535 311.372H389.535C388.741 311.372 388.098 310.732 388.098 309.941V309.941C388.098 309.151 388.741 308.511 389.535 308.511Z" fill="white" stroke="#6631FE" stroke-width="0.674423"/>
<path d="M389.535 317.932H389.535C390.328 317.932 390.971 318.572 390.971 319.363V319.363C390.971 320.153 390.328 320.793 389.535 320.793H389.535C388.741 320.793 388.098 320.153 388.098 319.363V319.363C388.098 318.572 388.741 317.932 389.535 317.932Z" fill="white" stroke="#6631FE" stroke-width="0.674423"/>
<path d="M236.396 284.03C236.396 283.054 237.191 282.263 238.17 282.263C239.15 282.263 239.944 283.054 239.944 284.03C239.944 285.005 239.15 285.796 238.17 285.796C237.191 285.796 236.396 285.005 236.396 284.03Z" fill="#6631FE"/>
<path d="M226.935 284.03C226.935 283.054 227.73 282.263 228.709 282.263C229.689 282.263 230.483 283.054 230.483 284.03C230.483 285.005 229.689 285.796 228.709 285.796C227.73 285.796 226.935 285.005 226.935 284.03Z" fill="#6631FE"/>
<path d="M208.015 282.853H219.84C220.493 282.853 221.023 283.381 221.023 284.031V284.031C221.023 284.682 220.493 285.209 219.84 285.209H208.015C207.362 285.209 206.832 284.682 206.832 284.031V284.031C206.832 283.381 207.362 282.853 208.015 282.853Z" fill="#6631FE"/>
<path d="M304.392 386.498L304.392 367.653L349.329 367.653L349.329 386.498L304.392 386.498Z" fill="white"/>
<path d="M371.596 324.723C371.596 320.924 371.596 319.024 370.41 317.843C369.225 316.663 367.318 316.663 363.503 316.663H306.763C302.947 316.663 301.04 316.663 299.855 317.843C298.67 319.024 298.67 320.924 298.67 324.723V343.92C298.67 347.719 298.67 349.619 299.855 350.799C301.04 351.98 302.947 351.98 306.763 351.98H363.503C367.318 351.98 369.225 351.98 370.41 350.799C371.596 349.619 371.596 347.719 371.596 343.92V324.723Z" fill="#F1F4FA"/>
<path d="M354.782 321.359H365.369C365.634 321.359 365.85 321.573 365.85 321.838V321.838C365.85 322.103 365.634 322.317 365.369 322.317H354.782C354.517 322.317 354.301 322.103 354.301 321.838C354.301 321.573 354.517 321.359 354.782 321.359Z" fill="#B8C3D9"/>
<path d="M363.843 335.621V346.043H307.281V334.629L311.418 332.546C316.257 330.11 321.969 330.099 326.819 332.516L328.679 333.443C331.88 335.039 335.616 335.192 338.938 333.864C342.204 332.56 345.87 332.685 349.039 334.209L350.684 335C354.395 336.785 358.638 337.135 362.594 335.985L363.843 335.621Z" fill="#30D7F4"/>
<path d="M363.843 337.561V346.042H307.281V337.561L312.096 335.28C316.46 333.214 321.585 333.532 325.657 336.122C329.019 338.259 333.136 338.869 336.977 337.799L341.829 336.447C345.175 335.514 348.747 335.836 351.871 337.348L352.068 337.443C355.777 339.24 360.099 339.283 363.843 337.561Z" fill="#8B91FF"/>
<path d="M363.843 340.797V346.043H307.281V338.666L312.305 337.432C316.83 336.321 321.6 336.777 325.83 338.726L326.971 339.251C331.17 341.186 335.968 341.383 340.314 339.799L340.954 339.566C344.843 338.149 349.136 338.308 352.909 340.009C356.158 341.475 359.811 341.803 363.272 340.94L363.843 340.797Z" fill="#3066F0"/>
<path d="M327.323 322.537L323.782 322.537C323.619 322.537 323.487 322.405 323.487 322.243L323.487 322.243C323.487 322.08 323.619 321.949 323.782 321.949L327.323 321.949C327.486 321.949 327.618 322.08 327.618 322.243C327.618 322.405 327.486 322.537 327.323 322.537Z" fill="#547AFF"/>
<path d="M318.47 322.537L314.929 322.537C314.766 322.537 314.634 322.405 314.634 322.243L314.634 322.243C314.634 322.08 314.766 321.949 314.929 321.949L318.47 321.949C318.633 321.949 318.765 322.08 318.765 322.243C318.765 322.405 318.633 322.537 318.47 322.537Z" fill="#7392FF"/>
<path d="M309.618 322.537L306.078 322.537C305.915 322.537 305.782 322.405 305.782 322.243L305.782 322.243C305.782 322.08 305.915 321.949 306.078 321.949L309.618 321.949C309.781 321.949 309.914 322.08 309.914 322.243C309.914 322.405 309.781 322.537 309.618 322.537Z" fill="#F1F4FA"/>
<path d="M329.98 322.243C329.98 322.568 329.716 322.831 329.39 322.831C329.064 322.831 328.8 322.568 328.8 322.243C328.8 321.919 329.064 321.655 329.39 321.655C329.716 321.655 329.98 321.919 329.98 322.243Z" fill="#547AFF"/>
<path d="M321.126 322.243C321.126 322.568 320.862 322.831 320.536 322.831C320.21 322.831 319.945 322.568 319.945 322.243C319.945 321.919 320.21 321.655 320.536 321.655C320.862 321.655 321.126 321.919 321.126 322.243Z" fill="#7392FF"/>
<path d="M312.272 322.243C312.272 322.568 312.008 322.831 311.682 322.831C311.356 322.831 311.092 322.568 311.092 322.243C311.092 321.919 311.356 321.655 311.682 321.655C312.008 321.655 312.272 321.919 312.272 322.243Z" fill="#F1F4FA"/>
<path d="M372.266 304.038C372.266 301.207 372.266 299.792 371.584 298.775C371.289 298.335 370.909 297.958 370.467 297.664C369.446 296.984 368.026 296.984 365.184 296.984H348.606C345.764 296.984 344.343 296.984 343.323 297.664C342.88 297.958 342.501 298.335 342.206 298.775C341.524 299.792 341.524 301.207 341.524 304.038C341.524 306.868 341.524 308.283 342.206 309.3C342.501 309.74 342.88 310.118 343.323 310.412C344.343 311.091 345.764 311.091 348.606 311.091H365.184C368.026 311.091 369.446 311.091 370.467 310.412C370.909 310.118 371.289 309.74 371.584 309.3C372.266 308.283 372.266 306.868 372.266 304.038Z" fill="#F1F4FA"/>
<path d="M361.698 303.959C361.698 305.415 362.883 306.595 364.345 306.595C365.807 306.595 366.992 305.415 366.992 303.959C366.992 302.503 365.807 301.323 364.345 301.323C362.883 301.323 361.698 302.503 361.698 303.959Z" fill="#6631FE" fill-opacity="0.36"/>
<path d="M350.629 302.281H358.81C359.076 302.281 359.291 302.496 359.291 302.761V302.761C359.291 303.025 359.076 303.24 358.81 303.24H350.629C350.364 303.24 350.148 303.025 350.148 302.761C350.148 302.496 350.364 302.281 350.629 302.281Z" fill="#B8C3D9"/>
<path d="M347.502 305.159H359.05C359.183 305.159 359.291 305.265 359.291 305.397C359.291 305.529 359.183 305.636 359.05 305.636H347.502C347.369 305.636 347.261 305.529 347.261 305.397C347.261 305.265 347.369 305.159 347.502 305.159Z" fill="#B8C3D9"/>
<path d="M330.113 304.038C330.113 301.207 330.113 299.792 329.431 298.775C329.136 298.335 328.757 297.958 328.316 297.664C327.295 296.984 325.874 296.984 323.032 296.984H305.983C303.14 296.984 301.72 296.984 300.699 297.664C300.257 297.958 299.878 298.335 299.583 298.775C298.901 299.792 298.901 301.207 298.901 304.038C298.901 306.868 298.901 308.283 299.583 309.3C299.878 309.74 300.257 310.118 300.699 310.412C301.72 311.091 303.14 311.091 305.983 311.091H323.032C325.874 311.091 327.295 311.091 328.316 310.412C328.757 310.118 329.136 309.74 329.431 309.3C330.113 308.283 330.113 306.868 330.113 304.038Z" fill="#F1F4FA"/>
<path d="M319.547 303.959C319.547 305.415 320.732 306.595 322.193 306.595C323.655 306.595 324.84 305.415 324.84 303.959C324.84 302.503 323.655 301.323 322.193 301.323C320.732 301.323 319.547 302.503 319.547 303.959Z" fill="#00C69A" fill-opacity="0.58"/>
<path d="M308.479 302.281H316.66C316.926 302.281 317.141 302.496 317.141 302.761V302.761C317.141 303.025 316.926 303.24 316.66 303.24H308.479C308.214 303.24 307.998 303.025 307.998 302.761C307.998 302.496 308.214 302.281 308.479 302.281Z" fill="#B8C3D9"/>
<path d="M305.352 305.159H316.9C317.033 305.159 317.141 305.265 317.141 305.397C317.141 305.529 317.033 305.636 316.9 305.636H305.352C305.219 305.636 305.111 305.529 305.111 305.397C305.111 305.265 305.219 305.159 305.352 305.159Z" fill="#B8C3D9"/>
<path d="M288.633 304.038C288.633 301.207 288.633 299.792 287.951 298.775C287.656 298.335 287.277 297.958 286.835 297.664C285.814 296.984 284.394 296.984 281.552 296.984H264.974C262.132 296.984 260.711 296.984 259.69 297.664C259.248 297.958 258.869 298.335 258.574 298.775C257.892 299.792 257.892 301.207 257.892 304.038C257.892 306.868 257.892 308.283 258.574 309.3C258.869 309.74 259.248 310.118 259.69 310.412C260.711 311.091 262.132 311.091 264.974 311.091H281.552C284.394 311.091 285.814 311.091 286.835 310.412C287.277 310.118 287.656 309.74 287.951 309.3C288.633 308.283 288.633 306.868 288.633 304.038Z" fill="#F1F4FA"/>
<path d="M279.01 303.959C279.01 305.415 280.195 306.595 281.657 306.595C283.118 306.595 284.303 305.415 284.303 303.959C284.303 302.503 283.118 301.323 281.657 301.323C280.195 301.323 279.01 302.503 279.01 303.959Z" fill="#F53867" fill-opacity="0.36"/>
<path d="M267.941 302.281H276.122C276.387 302.281 276.603 302.496 276.603 302.761V302.761C276.603 303.025 276.387 303.24 276.122 303.24H267.941C267.675 303.24 267.46 303.025 267.46 302.761C267.46 302.496 267.675 302.281 267.941 302.281Z" fill="#B8C3D9"/>
<path d="M264.813 305.159H276.362C276.495 305.159 276.603 305.265 276.603 305.397C276.603 305.529 276.495 305.636 276.362 305.636H264.813C264.68 305.636 264.573 305.529 264.573 305.397C264.573 305.265 264.68 305.159 264.813 305.159Z" fill="#B8C3D9"/>
<path d="M245.817 304.038C245.817 301.207 245.817 299.792 245.135 298.775C244.84 298.335 244.461 297.958 244.019 297.664C242.998 296.984 241.577 296.984 238.736 296.984H223.571C220.729 296.984 219.308 296.984 218.288 297.664C217.846 297.958 217.467 298.335 217.172 298.775C216.49 299.792 216.49 301.207 216.49 304.038C216.49 306.868 216.49 308.283 217.172 309.3C217.467 309.74 217.846 310.118 218.288 310.412C219.308 311.091 220.729 311.091 223.571 311.091H238.736C241.577 311.091 242.998 311.091 244.019 310.412C244.461 310.118 244.84 309.74 245.135 309.3C245.817 308.283 245.817 306.868 245.817 304.038Z" fill="#F1F4FA"/>
<path d="M236.192 303.959C236.192 305.415 237.377 306.595 238.839 306.595C240.3 306.595 241.485 305.415 241.485 303.959C241.485 302.503 240.3 301.323 238.839 301.323C237.377 301.323 236.192 302.503 236.192 303.959Z" fill="#F5C545" fill-opacity="0.61"/>
<path d="M225.127 302.281H233.307C233.573 302.281 233.789 302.496 233.789 302.761V302.761C233.789 303.025 233.573 303.24 233.307 303.24H225.127C224.861 303.24 224.646 303.025 224.646 302.761C224.646 302.496 224.861 302.281 225.127 302.281Z" fill="#B8C3D9"/>
<path d="M221.999 305.159H233.548C233.681 305.159 233.789 305.265 233.789 305.397C233.789 305.529 233.681 305.636 233.548 305.636H221.999C221.866 305.636 221.759 305.529 221.759 305.397C221.759 305.265 221.866 305.159 221.999 305.159Z" fill="#B8C3D9"/>
<path d="M302.716 357.311H368.218C370.453 357.311 372.265 359.115 372.265 361.341V389.264C372.265 391.49 370.453 393.294 368.218 393.294H302.716C300.481 393.294 298.669 391.49 298.669 389.264V361.341C298.669 359.115 300.481 357.311 302.716 357.311Z" fill="#F1F4FA"/>
<path d="M351.711 362.939H365.185C365.45 362.939 365.666 363.153 365.666 363.418V363.418C365.666 363.683 365.45 363.897 365.185 363.897H351.711C351.445 363.897 351.23 363.683 351.23 363.418C351.23 363.153 351.445 362.939 351.711 362.939Z" fill="#B8C3D9"/>
<path d="M328.401 363.13L324.86 363.13C324.697 363.13 324.565 362.998 324.565 362.836L324.565 362.836C324.565 362.673 324.697 362.542 324.86 362.542L328.401 362.542C328.564 362.542 328.696 362.673 328.696 362.836C328.696 362.998 328.564 363.13 328.401 363.13Z" fill="#3066F0"/>
<path d="M319.549 363.13L316.008 363.13C315.845 363.13 315.713 362.998 315.713 362.836L315.713 362.836C315.713 362.673 315.845 362.542 316.008 362.542L319.549 362.542C319.712 362.542 319.844 362.673 319.844 362.836C319.844 362.998 319.712 363.13 319.549 363.13Z" fill="#8B91FF"/>
<path d="M310.694 363.13L307.153 363.13C306.99 363.13 306.858 362.998 306.858 362.836L306.858 362.836C306.858 362.673 306.99 362.542 307.153 362.542L310.694 362.542C310.857 362.542 310.989 362.673 310.989 362.836C310.989 362.998 310.857 363.13 310.694 363.13Z" fill="#30D7F4"/>
<path d="M331.058 362.835C331.058 363.159 330.793 363.423 330.467 363.423C330.141 363.423 329.877 363.159 329.877 362.835C329.877 362.51 330.141 362.247 330.467 362.247C330.793 362.247 331.058 362.51 331.058 362.835Z" fill="#3066F0"/>
<path d="M322.206 362.835C322.206 363.159 321.942 363.423 321.616 363.423C321.29 363.423 321.025 363.159 321.025 362.835C321.025 362.51 321.29 362.247 321.616 362.247C321.942 362.247 322.206 362.51 322.206 362.835Z" fill="#8B91FF"/>
<path d="M313.352 362.835C313.352 363.159 313.087 363.423 312.761 363.423C312.436 363.423 312.171 363.159 312.171 362.835C312.171 362.51 312.436 362.247 312.761 362.247C313.087 362.247 313.352 362.51 313.352 362.835Z" fill="#30D7F4"/>
<path d="M336.377 386.492C335.632 386.492 335.028 387.094 335.028 387.835V387.966C335.028 388.708 335.632 389.309 336.377 389.309H365.194V386.492H336.377Z" fill="#30D7F4"/>
<path d="M346.745 386.492C346 386.492 345.397 387.094 345.397 387.835V387.966C345.397 388.708 346 389.309 346.745 389.309H365.193V386.492H346.745Z" fill="#8B91FF"/>
<path d="M356.646 386.492C355.902 386.492 355.298 387.094 355.298 387.835V387.966C355.298 388.708 355.902 389.309 356.646 389.309H365.196V386.492H356.646Z" fill="#3066F0"/>
<path d="M325.063 382.268C324.319 382.268 323.715 382.869 323.715 383.611V383.741C323.715 384.483 324.319 385.085 325.063 385.085H365.193V382.268H325.063Z" fill="#30D7F4"/>
<path d="M342.033 382.268C341.288 382.268 340.684 382.869 340.684 383.611V383.741C340.684 384.483 341.288 385.085 342.033 385.085H365.194V382.268H342.033Z" fill="#8B91FF"/>
<path d="M350.048 382.268C349.303 382.268 348.699 382.869 348.699 383.611V383.741C348.699 384.483 349.303 385.085 350.048 385.085H365.196V382.268H350.048Z" fill="#3066F0"/>
<path d="M314.224 378.044C313.479 378.044 312.875 378.645 312.875 379.388V379.517C312.875 380.259 313.479 380.86 314.224 380.86H365.195V378.044H314.224Z" fill="#30D7F4"/>
<path d="M320.822 378.044C320.076 378.044 319.472 378.645 319.472 379.388V379.517C319.472 380.259 320.076 380.86 320.822 380.86H365.193V378.044H320.822Z" fill="#8B91FF"/>
<path d="M337.322 378.044C336.577 378.044 335.973 378.645 335.973 379.388V379.517C335.973 380.259 336.577 380.86 337.322 380.86H365.197V378.044H337.322Z" fill="#3066F0"/>
<path d="M319.881 373.818C319.136 373.818 318.532 374.419 318.532 375.161V375.291C318.532 376.033 319.136 376.635 319.881 376.635H365.195V373.818H319.881Z" fill="#30D7F4"/>
<path d="M333.551 373.818C332.806 373.818 332.202 374.419 332.202 375.161V375.291C332.202 376.033 332.806 376.635 333.551 376.635H365.196V373.818H333.551Z" fill="#8B91FF"/>
<path d="M341.562 373.818C340.817 373.818 340.213 374.419 340.213 375.161V375.291C340.213 376.033 340.817 376.635 341.562 376.635H365.195V373.818H341.562Z" fill="#3066F0"/>
<path d="M309.509 369.592C308.765 369.592 308.161 370.193 308.161 370.935V371.065C308.161 371.807 308.765 372.409 309.509 372.409H365.193V369.592H309.509Z" fill="#30D7F4"/>
<path d="M330.719 369.592C329.974 369.592 329.371 370.193 329.371 370.935V371.065C329.371 371.807 329.974 372.409 330.719 372.409H365.193V369.592H330.719Z" fill="#8B91FF"/>
<path d="M336.377 369.592C335.631 369.592 335.027 370.193 335.027 370.935V371.065C335.027 371.807 335.631 372.409 336.377 372.409H365.194V369.592H336.377Z" fill="#3066F0"/>
<path d="M293.316 324.723C293.316 320.924 293.316 319.024 292.131 317.843C290.946 316.663 289.038 316.663 285.223 316.663H224.468C220.654 316.663 218.746 316.663 217.561 317.843C216.376 319.024 216.376 320.924 216.376 324.723V343.92C216.376 347.719 216.376 349.619 217.561 350.799C218.746 351.98 220.654 351.98 224.468 351.98H285.223C289.038 351.98 290.946 351.98 292.131 350.799C293.316 349.619 293.316 347.719 293.316 343.92V324.723Z" fill="#F1F4FA"/>
<path d="M275.335 321.403H285.921C286.187 321.403 286.402 321.617 286.402 321.882V321.882C286.402 322.147 286.187 322.361 285.921 322.361H275.335C275.069 322.361 274.853 322.147 274.853 321.882C274.853 321.617 275.069 321.403 275.335 321.403Z" fill="#B8C3D9"/>
<path d="M238.846 322.732L235.305 322.732C235.142 322.732 235.01 322.601 235.01 322.438L235.01 322.438C235.01 322.276 235.142 322.145 235.305 322.145L238.846 322.145C239.009 322.145 239.141 322.276 239.141 322.438C239.141 322.601 239.009 322.732 238.846 322.732Z" fill="#547AFF"/>
<path d="M229.993 322.732L226.452 322.732C226.289 322.732 226.157 322.601 226.157 322.438L226.157 322.438C226.157 322.276 226.289 322.145 226.452 322.145L229.993 322.145C230.156 322.145 230.288 322.276 230.288 322.438C230.288 322.601 230.156 322.732 229.993 322.732Z" fill="#FFD600"/>
<path d="M241.501 322.442C241.501 322.767 241.237 323.03 240.911 323.03C240.585 323.03 240.321 322.767 240.321 322.442C240.321 322.118 240.585 321.854 240.911 321.854C241.237 321.854 241.501 322.118 241.501 322.442Z" fill="#547AFF"/>
<path d="M232.649 322.442C232.649 322.767 232.384 323.03 232.058 323.03C231.732 323.03 231.468 322.767 231.468 322.442C231.468 322.118 231.732 321.854 232.058 321.854C232.384 321.854 232.649 322.118 232.649 322.442Z" fill="#FFD600"/>
<path d="M278.422 339.113C278.422 338.464 277.894 337.938 277.242 337.938C276.59 337.938 276.062 338.464 276.062 339.113V345.579H278.422V339.113Z" fill="#30D7F4"/>
<path d="M270.752 341.759C270.752 341.109 270.224 340.583 269.572 340.583C268.92 340.583 268.392 341.109 268.392 341.759V345.579H270.752V341.759Z" fill="#30D7F4"/>
<path d="M263.079 332.355C263.079 331.705 262.551 331.179 261.899 331.179C261.247 331.179 260.718 331.705 260.718 332.355V345.579H263.079V332.355Z" fill="#30D7F4"/>
<path d="M255.408 336.471C255.408 335.821 254.879 335.295 254.227 335.295C253.575 335.295 253.047 335.821 253.047 336.471V345.581H255.408V336.471Z" fill="#30D7F4"/>
<path d="M247.735 339.409C247.735 338.76 247.207 338.234 246.555 338.234C245.903 338.234 245.375 338.76 245.375 339.409V345.581H247.735V339.409Z" fill="#30D7F4"/>
<path d="M240.062 341.464C240.062 340.815 239.534 340.289 238.882 340.289C238.23 340.289 237.702 340.815 237.702 341.464V345.578H240.062V341.464Z" fill="#30D7F4"/>
<path d="M275.471 337.647C275.471 336.998 274.943 336.472 274.291 336.472C273.639 336.472 273.111 336.998 273.111 337.647V345.582H275.471V337.647Z" fill="#3066F0"/>
<path d="M267.801 340.289C267.801 339.64 267.272 339.114 266.62 339.114C265.969 339.114 265.44 339.64 265.44 340.289V345.579H267.801V340.289Z" fill="#3066F0"/>
<path d="M260.128 337.055C260.128 336.406 259.6 335.88 258.948 335.88C258.296 335.88 257.768 336.406 257.768 337.055V345.578H260.128V337.055Z" fill="#3066F0"/>
<path d="M252.459 329.712C252.459 329.062 251.931 328.535 251.279 328.535C250.627 328.535 250.099 329.062 250.099 329.712V345.581H252.459V329.712Z" fill="#3066F0"/>
<path d="M244.788 332.943C244.788 332.293 244.26 331.767 243.608 331.767C242.956 331.767 242.427 332.293 242.427 332.943V345.58H244.788V332.943Z" fill="#3066F0"/>
<path d="M237.114 334.411C237.114 333.762 236.586 333.236 235.934 333.236C235.282 333.236 234.753 333.762 234.753 334.411V345.579H237.114V334.411Z" fill="#3066F0"/>
<path d="M293.316 365.372C293.316 361.572 293.316 359.672 292.131 358.491C290.946 357.311 289.038 357.311 285.223 357.311H264.674C260.859 357.311 258.952 357.311 257.766 358.491C256.581 359.672 256.581 361.572 256.581 365.372V384.46C256.581 388.259 256.581 390.159 257.766 391.339C258.952 392.52 260.859 392.52 264.674 392.52H285.223C289.038 392.52 290.946 392.52 292.131 391.339C293.316 390.159 293.316 388.259 293.316 384.46V365.372Z" fill="#F1F4FA"/>
<path d="M281.202 361.606H287.938C288.204 361.606 288.42 361.82 288.42 362.085V362.085C288.42 362.35 288.204 362.564 287.938 362.564H281.202C280.936 362.564 280.72 362.35 280.72 362.085C280.72 361.82 280.936 361.606 281.202 361.606Z" fill="#B8C3D9"/>
<path d="M279.499 388.86L275.958 388.86C275.795 388.86 275.663 388.729 275.663 388.567L275.663 388.567C275.663 388.404 275.795 388.273 275.958 388.273L279.499 388.273C279.662 388.273 279.794 388.404 279.794 388.567C279.794 388.729 279.662 388.86 279.499 388.86Z" fill="#547AFF"/>
<path d="M282.156 388.566C282.156 388.89 281.892 389.153 281.566 389.153C281.24 389.153 280.976 388.89 280.976 388.566C280.976 388.241 281.24 387.978 281.566 387.978C281.892 387.978 282.156 388.241 282.156 388.566Z" fill="#547AFF"/>
<path d="M273.304 388.566C273.304 388.89 273.039 389.153 272.713 389.153C272.387 389.153 272.123 388.89 272.123 388.566C272.123 388.241 272.387 387.978 272.713 387.978C273.039 387.978 273.304 388.241 273.304 388.566Z" fill="#547AFF"/>
<path d="M275.395 383.784C270.669 383.784 266.837 379.968 266.837 375.261C266.837 370.554 270.669 366.738 275.395 366.738C280.121 366.738 283.952 370.554 283.952 375.261C283.952 379.968 280.121 383.784 275.395 383.784Z" fill="#30D7F4"/>
<path d="M274.111 366.261L275.314 375.127C271.65 375.127 269.595 375.127 265.93 375.127" stroke="#F1F4FA" stroke-width="2.02326" stroke-linecap="round" stroke-linejoin="round"/>
<path d="M266.836 375.261C266.836 376.998 267.369 378.694 268.363 380.121C269.357 381.547 270.765 382.637 272.399 383.245C274.033 383.853 275.814 383.949 277.503 383.521C279.193 383.092 280.712 382.159 281.855 380.848C282.999 379.536 283.712 377.909 283.9 376.182C284.088 374.455 283.743 372.712 282.909 371.187C282.076 369.661 280.794 368.426 279.236 367.646C277.677 366.866 275.917 366.579 274.191 366.823L275.393 375.261H266.836Z" fill="#3066F0"/>
<path d="M251.166 365.371C251.166 361.572 251.166 359.672 249.981 358.491C248.796 357.311 246.889 357.311 243.073 357.311H224.729C220.915 357.311 219.007 357.311 217.822 358.491C216.636 359.672 216.636 361.572 216.636 365.371V384.459C216.636 388.259 216.636 390.159 217.822 391.339C219.007 392.52 220.915 392.52 224.729 392.52H243.073C246.889 392.52 248.796 392.52 249.981 391.339C251.166 390.159 251.166 388.259 251.166 384.459V374.915V365.371Z" fill="#F1F4FA"/>
<path d="M239.16 360.938H245.896C246.162 360.938 246.378 361.153 246.378 361.418V361.418C246.378 361.682 246.162 361.897 245.896 361.897H239.16C238.894 361.897 238.678 361.682 238.678 361.418C238.678 361.153 238.894 360.938 239.16 360.938Z" fill="#B8C3D9"/>
<path d="M234.106 382.631C230.226 382.631 227.081 379.349 227.081 375.301C227.081 371.253 230.226 367.971 234.106 367.971C237.985 367.971 241.131 371.253 241.131 375.301C241.131 379.349 237.985 382.631 234.106 382.631Z" stroke="#30D7F4" stroke-width="2.69769"/>
<path d="M234.104 367.976C232.672 367.976 231.275 368.432 230.098 369.284C228.923 370.135 228.024 371.341 227.522 372.741C227.022 374.14 226.943 375.666 227.296 377.114C227.649 378.561 228.418 379.862 229.499 380.841C230.579 381.82 231.922 382.432 233.344 382.593C234.768 382.754 236.204 382.458 237.462 381.744C238.719 381.029 239.738 379.932 240.381 378.597C241.023 377.263 241.26 375.755 241.059 374.275" stroke="#3066F0" stroke-width="4.04654"/>
<path d="M238.017 388.86L234.476 388.86C234.313 388.86 234.181 388.729 234.181 388.567L234.181 388.567C234.181 388.404 234.313 388.273 234.476 388.273L238.017 388.273C238.18 388.273 238.312 388.404 238.312 388.567C238.312 388.729 238.18 388.86 238.017 388.86Z" fill="#547AFF"/>
<path d="M229.165 388.86L225.624 388.86C225.461 388.86 225.329 388.729 225.329 388.567L225.329 388.567C225.329 388.404 225.461 388.273 225.624 388.273L229.165 388.273C229.328 388.273 229.46 388.404 229.46 388.567C229.46 388.729 229.328 388.86 229.165 388.86Z" fill="#547AFF"/>
<path d="M240.675 388.566C240.675 388.89 240.411 389.153 240.085 389.153C239.759 389.153 239.495 388.89 239.495 388.566C239.495 388.241 239.759 387.978 240.085 387.978C240.411 387.978 240.675 388.241 240.675 388.566Z" fill="#547AFF"/>
<path d="M231.822 388.566C231.822 388.89 231.558 389.153 231.232 389.153C230.906 389.153 230.642 388.89 230.642 388.566C230.642 388.241 230.906 387.978 231.232 387.978C231.558 387.978 231.822 388.241 231.822 388.566Z" fill="#547AFF"/>
<path d="M397.812 289.33H196.781" stroke="#E7ECFF" stroke-width="0.674423"/>
<path d="M381.847 289.33V401.218" stroke="#E7ECFF" stroke-width="0.674423"/>
<path d="M126.631 299.185C126.631 300.034 127.319 300.721 128.166 300.721C129.013 300.721 129.701 300.034 129.701 299.185C129.701 298.336 129.013 297.65 128.166 297.65C127.319 297.65 126.631 298.336 126.631 299.185Z" stroke="#424242" stroke-width="0.506801"/>
<path d="M288.518 251.37L290.278 253.122L288.518 254.875L286.758 253.122L288.518 251.37Z" fill="#F53867"/>
<path d="M284.496 253.122H281.731" stroke="#F53867" stroke-width="0.506801"/>
<path d="M295.055 253.122H292.29" stroke="#F53867" stroke-width="0.506801"/>
<path d="M288.518 257.375V260.129" stroke="#F53867" stroke-width="0.506801"/>
<path d="M288.518 246.359V249.113" stroke="#F53867" stroke-width="0.506801"/>
<path d="M211.033 268.848C209.93 268.727 209.134 267.738 209.256 266.64C209.377 265.541 210.37 264.749 211.472 264.87C212.575 264.991 213.371 265.979 213.25 267.078C213.128 268.176 212.136 268.969 211.033 268.848Z" stroke="#006DFB" stroke-width="0.506801"/>
<path d="M132.231 404.487C131.128 404.366 130.333 403.378 130.454 402.279C130.575 401.181 131.568 400.388 132.671 400.509C133.774 400.63 134.569 401.619 134.448 402.717C134.327 403.815 133.334 404.608 132.231 404.487Z" stroke="#006DFB" stroke-width="0.506801"/>
<path d="M410.618 332.08C409.515 331.959 408.719 330.97 408.84 329.872C408.962 328.773 409.954 327.981 411.057 328.102C412.16 328.223 412.956 329.211 412.834 330.31C412.713 331.408 411.72 332.201 410.618 332.08Z" stroke="#006DFB" stroke-width="0.506801"/>
<path d="M168.391 335.831L170.151 337.584L168.391 339.336L166.632 337.584L168.391 335.831Z" fill="#F53867"/>
<path d="M164.368 337.584H161.603" stroke="#F53867" stroke-width="0.506801"/>
<path d="M174.926 337.584H172.16" stroke="#F53867" stroke-width="0.506801"/>
<path d="M168.391 341.839V344.593" stroke="#F53867" stroke-width="0.506801"/>
<path d="M168.391 330.821V333.575" stroke="#F53867" stroke-width="0.506801"/>
<path d="M404.303 453.236L406.063 454.989L404.303 456.741L402.544 454.989L404.303 453.236Z" fill="#F53867"/>
<path d="M400.28 454.989H397.514" stroke="#F53867" stroke-width="0.506801"/>
<path d="M410.838 454.989H408.073" stroke="#F53867" stroke-width="0.506801"/>
<path d="M404.301 459.246V462" stroke="#F53867" stroke-width="0.506801"/>
<path d="M404.301 448.227V450.981" stroke="#F53867" stroke-width="0.506801"/>
<path opacity="0.5" d="M380.802 519.282C357.288 517.58 277.299 520.463 252.971 521.586C228.644 522.709 200.405 520.104 185.736 516.272C171.068 512.44 86.2794 516.598 90.1269 526.901C93.9744 537.204 127.904 531.511 166.381 535.652C204.859 539.793 291.394 535.134 310.913 535.652C330.433 536.168 348.332 534.616 373.487 532.546C398.642 530.477 394.433 520.267 380.802 519.282Z" fill="#D1F2FA"/>
<path d="M273.292 439.637H145.39C144.622 439.637 143.999 439.017 143.999 438.25V436.171C143.999 435.405 144.622 434.784 145.39 434.784H273.292C274.061 434.784 274.683 435.405 274.683 436.171V438.25C274.683 439.017 274.061 439.637 273.292 439.637Z" fill="#2370ED"/>
<path d="M294.115 526.229C293.976 526.288 293.666 526.37 293.202 526.463C292.747 526.554 292.172 526.649 291.524 526.742C290.228 526.926 288.649 527.095 287.172 527.182C285.686 527.269 284.332 527.273 283.47 527.138C283.257 527.105 283.083 527.064 282.95 527.018C282.82 526.973 282.752 526.931 282.721 526.904C282.731 526.882 282.754 526.84 282.81 526.779C283.417 526.107 283.903 525.815 284.377 525.53C284.591 525.403 284.801 525.276 285.019 525.117C285.728 524.601 286.268 523.862 286.737 522.008C287.198 520.189 287.753 517.556 287.978 515.194C288.09 514.015 288.121 512.887 288.01 511.957C287.903 511.048 287.651 510.234 287.11 509.791C286.708 509.461 285.752 508.432 284.519 507.036C283.297 505.654 281.826 503.94 280.409 502.269C278.991 500.599 277.627 498.972 276.617 497.762C276.113 497.158 275.696 496.658 275.406 496.309C275.287 496.166 275.189 496.048 275.115 495.959L280.082 488.375C280.147 488.475 280.223 488.592 280.308 488.723C280.638 489.23 281.111 489.957 281.684 490.83C282.831 492.578 284.376 494.917 285.971 497.282C287.567 499.645 289.214 502.037 290.565 503.89C291.24 504.816 291.844 505.611 292.331 506.202C292.575 506.497 292.793 506.745 292.979 506.935C293.155 507.114 293.332 507.273 293.491 507.352C293.888 507.55 294.416 507.712 294.936 507.872C294.985 507.887 295.034 507.902 295.083 507.917C295.668 508.097 296.248 508.284 296.727 508.531C297.208 508.78 297.535 509.065 297.68 509.41C297.819 509.742 297.822 510.21 297.471 510.909C297.068 511.713 296.74 513.066 296.45 514.607C296.189 515.988 295.953 517.558 295.722 519.088C295.693 519.279 295.664 519.47 295.635 519.659C295.376 521.371 295.123 522.992 294.847 524.222C294.709 524.838 294.569 525.342 294.424 525.704C294.352 525.886 294.283 526.02 294.22 526.112C294.154 526.209 294.115 526.229 294.115 526.229Z" fill="white" stroke="#424242" stroke-width="0.696239"/>
<path d="M202.943 521.96C203.318 521.661 203.863 521.018 204.514 520.165C205.174 519.301 205.965 518.187 206.837 516.915C208.581 514.372 210.651 511.184 212.635 508.066C214.62 504.947 216.521 501.897 217.925 499.625C218.628 498.489 219.206 497.548 219.608 496.891C219.809 496.563 219.967 496.305 220.074 496.13L220.111 496.069C220.161 496.079 220.218 496.091 220.282 496.105C220.538 496.162 220.9 496.249 221.321 496.368C222.165 496.606 223.229 496.97 224.144 497.475C225.072 497.988 225.775 498.607 226.008 499.322C226.229 499.999 226.066 500.887 224.954 502.043H224.953C222.581 504.513 221.17 507.687 220.626 510.685C220.083 513.672 220.39 516.543 221.528 518.386C222.025 519.191 222.03 519.764 221.803 520.209C221.559 520.689 221.002 521.115 220.162 521.509C219.333 521.898 218.289 522.227 217.152 522.545C216.696 522.673 216.221 522.799 215.742 522.927C215.042 523.114 214.332 523.303 213.655 523.502C212.492 523.843 211.4 524.286 210.315 524.743C210.145 524.814 209.976 524.886 209.806 524.957C208.887 525.347 207.963 525.739 206.979 526.089C204.661 526.914 202.021 527.507 198.447 527.243C197.549 527.177 196.926 527.07 196.517 526.939C196.087 526.801 195.994 526.667 195.979 526.625C195.971 526.604 195.954 526.505 196.148 526.275C196.331 526.058 196.634 525.807 197.039 525.527C197.771 525.021 198.758 524.471 199.761 523.913C199.863 523.857 199.964 523.8 200.066 523.743C201.156 523.135 202.243 522.518 202.943 521.96Z" fill="white" stroke="#424242" stroke-width="0.696239"/>
<path d="M294.068 440.345C294.068 440.345 258.11 439.407 243.854 451.069C239.034 455.011 215.341 500.852 213.773 504.949C214.849 506.022 220.902 507.958 223.591 507.689C231.526 498.257 242.016 490.104 246.186 482.706C251.326 473.589 252.911 469.031 261.25 468.227C269.59 467.421 288.42 464.742 294.068 464.742C299.717 464.742 294.068 440.345 294.068 440.345Z" fill="#383838"/>
<path d="M325.426 527.652H323.54L310.025 471.442H314.17L325.426 527.652Z" fill="#2370ED"/>
<path d="M268.962 527.653H270.847L286.357 469.456H282.211L268.962 527.653Z" fill="#2370ED"/>
<path d="M314.555 437.891L293.647 441.489C293.647 441.489 265.865 441.743 253.167 444.1C241.614 446.245 239.912 459.33 253.167 477.346C260.697 487.581 267.064 495.745 280.085 504.951C283.397 502.526 284.664 501.61 285.579 495.779C284.637 494.491 282.197 486.432 281.439 484.854C274.238 469.849 264.625 464.391 264.493 462.916C266.107 460.303 307.243 476.542 315.423 466.989C323.233 457.868 314.555 437.891 314.555 437.891Z" fill="#424242"/>
<path d="M290.076 419.761C289.762 407.273 294.857 399.713 299.367 395.12C304.417 391.487 309.799 390.448 315.104 391.134C315.438 391.892 315.823 392.619 316.208 393.328C316.302 393.499 316.395 393.668 316.488 393.837C316.821 394.445 317.147 395.04 317.446 395.643C322.124 405.127 321.57 413.047 320.283 420.805C320.079 422.033 319.857 423.259 319.634 424.488C318.449 431.01 317.248 437.615 318.817 444.996C319.448 447.968 319.657 450.188 319.534 451.794C319.41 453.407 318.958 454.326 318.35 454.806C317.746 455.284 316.876 455.42 315.7 455.2C314.526 454.982 313.126 454.422 311.556 453.621C308.808 452.217 305.635 450.119 302.384 447.97C301.92 447.663 301.455 447.356 300.989 447.049C297.326 444.637 293.624 442.273 290.449 440.944C289.77 439.931 289.437 439.126 289.296 438.27C289.148 437.368 289.206 436.377 289.354 434.965C289.389 434.637 289.428 434.288 289.469 433.915C289.786 431.09 290.254 426.897 290.076 419.761Z" fill="#FF4800"/>
<path d="M318.817 444.996C317.248 437.615 318.449 431.01 319.634 424.488C319.857 423.259 320.079 422.033 320.283 420.805C321.57 413.047 322.124 405.127 317.446 395.643C317.147 395.04 316.821 394.445 316.488 393.837C316.395 393.668 316.302 393.499 316.208 393.328C315.823 392.619 315.438 391.892 315.104 391.134C309.799 390.448 304.417 391.487 299.367 395.12C294.857 399.713 289.762 407.273 290.076 419.761C290.254 426.897 289.786 431.09 289.469 433.915C289.428 434.288 289.389 434.637 289.354 434.965C289.206 436.377 289.148 437.368 289.296 438.27C289.437 439.126 289.77 439.931 290.449 440.944C293.624 442.273 297.326 444.637 300.989 447.049C301.455 447.356 301.92 447.663 302.384 447.97C305.635 450.119 308.808 452.217 311.556 453.621C313.126 454.422 314.526 454.982 315.7 455.2C316.876 455.42 317.746 455.284 318.35 454.806C318.958 454.326 319.41 453.407 319.534 451.794C319.657 450.188 319.448 447.968 318.817 444.996ZM318.817 444.996L319.268 444.901" stroke="#424242" stroke-width="0.921971"/>
<path fill-rule="evenodd" clip-rule="evenodd" d="M306.316 375.164C306.729 373.43 306.751 371.571 306.227 369.73C304.493 363.642 299.309 359.773 294.647 361.091C289.983 362.41 287.61 368.415 289.342 374.505C291.075 380.595 294.402 384.733 299.064 383.415C300.757 382.936 302.392 381.805 303.706 380.266C304.737 383.914 305.508 389.143 302.523 391.622C301.494 392.477 300.301 393.514 299.062 394.773C304.309 390.988 309.916 389.944 315.422 390.716C312.031 382.715 311.198 373.727 311.198 373.727L306.316 375.164Z" fill="white"/>
<mask id="mask0_1325_1701" style="mask-type:luminance" maskUnits="userSpaceOnUse" x="288" y="360" width="28" height="35">
<path fill-rule="evenodd" clip-rule="evenodd" d="M306.314 375.164C306.728 373.43 306.749 371.571 306.225 369.729C304.491 363.641 299.307 359.772 294.645 361.091C289.981 362.409 287.608 368.414 289.341 374.504C291.073 380.595 294.4 384.732 299.062 383.414C300.755 382.935 302.39 381.804 303.704 380.266C304.735 383.913 305.506 389.142 302.522 391.621C301.492 392.476 300.299 393.514 299.06 394.772C304.307 390.988 309.914 389.943 315.42 390.715C312.029 382.714 311.197 373.726 311.197 373.726L306.314 375.164Z" fill="#424242"/>
</mask>
<g mask="url(#mask0_1325_1701)">
<path d="M306.315 375.165L305.418 374.952L305.049 376.495L306.576 376.045L306.315 375.165ZM303.706 380.267L304.593 380.018L304.124 378.36L303.003 379.672L303.706 380.267ZM299.061 394.773L298.403 394.13L299.602 395.517L299.061 394.773ZM315.421 390.716L315.293 391.625L316.903 391.85L316.27 390.359L315.421 390.716ZM311.198 373.727L312.116 373.642L312.013 372.53L310.937 372.847L311.198 373.727ZM305.34 369.98C305.817 371.658 305.799 373.356 305.418 374.952L307.212 375.377C307.659 373.506 307.685 371.487 307.114 369.48L305.34 369.98ZM294.898 361.976C296.894 361.411 299.063 361.937 300.982 363.369C302.902 364.801 304.523 367.113 305.34 369.981L307.114 369.48C306.197 366.26 304.359 363.593 302.088 361.899C299.816 360.203 297.062 359.455 294.394 360.209L294.898 361.976ZM290.229 374.255C289.413 371.386 289.574 368.569 290.453 366.346C291.332 364.123 292.902 362.539 294.898 361.976L294.394 360.209C291.727 360.962 289.778 363.041 288.737 365.673C287.698 368.304 287.539 371.534 288.455 374.756L290.229 374.255ZM298.813 382.531C296.852 383.086 295.19 382.522 293.757 381.09C292.282 379.616 291.074 377.227 290.229 374.255L288.455 374.756C289.342 377.874 290.663 380.599 292.451 382.386C294.281 384.216 296.613 385.062 299.316 384.298L298.813 382.531ZM303.003 379.672C301.782 381.101 300.295 382.112 298.813 382.531L299.316 384.298C301.218 383.76 303.001 382.509 304.408 380.862L303.003 379.672ZM302.818 380.516C303.322 382.3 303.746 384.419 303.699 386.36C303.65 388.313 303.131 389.922 301.932 390.917L303.113 392.327C304.9 390.845 305.488 388.599 305.542 386.406C305.596 384.201 305.12 381.881 304.593 380.018L302.818 380.516ZM301.932 390.917C300.891 391.783 299.672 392.842 298.403 394.13L299.72 395.416C300.929 394.188 302.097 393.172 303.113 392.327L301.932 390.917ZM299.602 395.517C304.642 391.883 310.004 390.884 315.293 391.625L315.549 389.806C309.827 389.005 303.977 390.094 298.521 394.03L299.602 395.517ZM316.27 390.359C314.609 386.439 313.569 382.26 312.943 379.046C312.631 377.443 312.424 376.087 312.295 375.134C312.23 374.658 312.186 374.281 312.156 374.027C312.143 373.899 312.132 373.802 312.125 373.737C312.122 373.705 312.119 373.68 312.118 373.665C312.118 373.657 312.117 373.651 312.117 373.648C312.116 373.646 312.116 373.643 312.116 373.642C312.116 373.642 312.116 373.642 311.198 373.727C310.28 373.811 310.28 373.812 310.28 373.812C310.28 373.813 310.28 373.814 310.281 373.815C310.281 373.815 310.281 373.818 310.281 373.82C310.281 373.825 310.282 373.833 310.283 373.842C310.285 373.861 310.287 373.887 310.291 373.923C310.298 373.994 310.309 374.097 310.324 374.231C310.354 374.499 310.401 374.888 310.467 375.38C310.6 376.361 310.813 377.753 311.133 379.396C311.771 382.677 312.842 386.991 314.572 391.072L316.27 390.359ZM310.937 372.847L306.054 374.284L306.576 376.045L311.46 374.608L310.937 372.847Z" fill="#424242"/>
</g>
<path d="M304.475 473.784C303.906 473.784 303.326 473.777 302.728 473.762C295.277 473.579 290.206 472.551 286.13 471.726C281.372 470.763 278.751 470.232 275.699 471.685C274.528 472.241 273.126 471.748 272.565 470.58C272.005 469.412 272.501 468.016 273.673 467.456C278.144 465.327 281.887 466.085 287.065 467.135C290.959 467.925 295.807 468.906 302.844 469.079C310.719 469.275 315.522 468.111 317.956 465.42C320.124 463.023 320.759 458.995 319.953 452.747C319.678 450.609 319.401 448.828 319.158 447.258C318.471 442.83 318.016 439.906 318.579 435.383C319.101 431.183 320.496 425.589 323.726 414.742C324.096 413.502 325.404 412.796 326.649 413.162C327.893 413.531 328.603 414.834 328.234 416.076C322.213 436.288 322.518 438.257 323.802 446.543C324.051 448.141 324.331 449.951 324.615 452.149C325.608 459.857 324.603 465.07 321.447 468.559C318.196 472.148 312.922 473.784 304.475 473.784Z" fill="#2370ED"/>
<path d="M220.928 515.791C211.29 520.49 206.103 523.182 203.013 522.925C202.283 522.865 201.678 522.79 201.171 522.711C197.734 524.736 192.248 527.129 198.42 527.586C205.684 528.121 209.18 525.172 213.752 523.831C218.325 522.489 223.975 521.686 221.823 518.201C221.411 517.534 221.113 516.714 220.928 515.791Z" fill="#FF4800"/>
<path d="M294.698 507.432C294.463 515.037 293.414 522.575 288.746 523.999C287.51 524.377 286.381 524.43 285.384 524.299C284.651 525.203 283.754 525.213 282.553 526.544C280.736 528.554 292.84 527.148 294.254 526.544C295.667 525.94 296.271 514.077 297.783 511.061C299.026 508.583 296.525 508.004 294.698 507.432Z" fill="#FF4800"/>
<path d="M257.573 435.449H226.954C226.039 435.449 225.208 434.92 224.822 434.094L212.447 407.55C211.9 406.378 212.412 404.984 213.589 404.438C214.767 403.892 216.164 404.403 216.711 405.576L228.453 430.764H257.573C258.871 430.764 259.923 431.814 259.923 433.106C259.923 434.4 258.872 435.449 257.573 435.449Z" fill="#424242"/>
<path fill-rule="evenodd" clip-rule="evenodd" d="M299.181 406.221C301.732 399.697 303.484 395.216 309.183 393.23C313.788 391.625 316.53 397.847 315.421 406.157C314.62 412.168 299.094 435.254 290.015 436.26C282.234 437.122 272.85 434.188 263.495 430.896C256.928 429.104 255.802 429.856 254.931 430.438C254.402 430.792 253.966 431.083 252.465 430.705C249.27 429.902 247.517 428.049 246.74 427.227C246.491 426.964 246.343 426.808 246.277 426.822C246.219 426.836 245.796 427.041 245.159 427.35C242.879 428.457 237.844 430.902 236.863 430.693C235.607 430.424 245.561 423.543 248.609 423.006C250.048 422.753 252.172 423.438 254.666 424.24C256.438 424.812 258.396 425.442 260.426 425.839C260.82 425.872 261.236 425.915 261.676 425.969C274.028 427.474 284.241 427.393 284.241 427.393C284.241 427.393 288.286 427.502 292.641 420.175C295.809 414.845 297.641 410.16 299.181 406.221Z" fill="white"/>
<mask id="mask1_1325_1701" style="mask-type:luminance" maskUnits="userSpaceOnUse" x="236" y="392" width="80" height="45">
<path fill-rule="evenodd" clip-rule="evenodd" d="M299.181 406.216C301.731 399.692 303.483 395.211 309.183 393.225C313.787 391.62 316.53 397.842 315.421 406.152C314.62 412.163 299.093 435.249 290.015 436.255C282.234 437.117 272.85 434.183 263.495 430.891C256.928 429.099 255.802 429.851 254.931 430.433C254.402 430.787 253.966 431.078 252.465 430.7C249.269 429.897 247.517 428.044 246.74 427.222C246.491 426.959 246.342 426.803 246.277 426.817C246.219 426.831 245.796 427.036 245.159 427.345C242.879 428.452 237.844 430.897 236.862 430.688C235.607 430.419 245.561 423.538 248.609 423.001C250.048 422.748 252.172 423.433 254.666 424.235C256.438 424.807 258.396 425.437 260.426 425.834C260.82 425.867 261.236 425.91 261.676 425.964C274.028 427.469 284.241 427.388 284.241 427.388C284.241 427.388 288.286 427.497 292.641 420.17C295.809 414.84 297.641 410.155 299.181 406.216Z" fill="#424242"/>
</mask>
<g mask="url(#mask1_1325_1701)">
<path d="M263.495 430.893L263.802 430.027L263.771 430.017L263.738 430.007L263.495 430.893ZM252.465 430.702L252.239 431.592L252.24 431.593L252.465 430.702ZM248.609 423.002L248.449 422.098L248.448 422.099L248.609 423.002ZM260.426 425.835L260.249 426.737L260.298 426.746L260.348 426.75L260.426 425.835ZM284.242 427.389L284.267 426.471H284.25H284.234L284.242 427.389ZM308.879 392.36C302.718 394.507 300.843 399.436 298.322 405.884L300.04 406.551C302.621 399.951 304.249 395.919 309.488 394.093L308.879 392.36ZM316.335 406.275C316.903 402.019 316.503 398.192 315.28 395.583C314.667 394.275 313.814 393.208 312.702 392.597C311.563 391.971 310.252 391.881 308.879 392.36L309.488 394.093C310.417 393.769 311.177 393.856 311.811 394.205C312.474 394.569 313.101 395.276 313.61 396.361C314.632 398.54 315.049 401.979 314.507 406.033L316.335 406.275ZM290.118 437.17C292.687 436.884 295.542 435.085 298.311 432.664C301.116 430.212 303.973 426.994 306.554 423.641C309.137 420.284 311.461 416.768 313.194 413.702C314.061 412.169 314.784 410.741 315.32 409.493C315.849 408.261 316.219 407.151 316.335 406.275L314.507 406.033C314.423 406.659 314.133 407.586 313.624 408.771C313.122 409.94 312.431 411.308 311.587 412.801C309.899 415.786 307.624 419.231 305.09 422.524C302.555 425.818 299.778 428.937 297.094 431.284C294.373 433.663 291.884 435.126 289.914 435.344L290.118 437.17ZM263.188 431.759C272.506 435.037 282.091 438.058 290.118 437.17L289.914 435.344C282.378 436.178 273.195 433.331 263.802 430.027L263.188 431.759ZM255.444 431.198C255.66 431.053 255.817 430.951 256.039 430.868C256.259 430.786 256.583 430.707 257.105 430.692C258.176 430.659 259.993 430.89 263.252 431.779L263.738 430.007C260.43 429.105 258.401 428.815 257.049 428.856C256.36 428.876 255.829 428.984 255.388 429.15C254.948 429.315 254.637 429.526 254.417 429.672L255.444 431.198ZM252.24 431.593C253.053 431.797 253.687 431.85 254.237 431.745C254.804 431.636 255.184 431.372 255.444 431.198L254.417 429.672C254.149 429.851 254.047 429.91 253.888 429.941C253.712 429.975 253.378 429.984 252.69 429.812L252.24 431.593ZM246.068 427.854C246.876 428.707 248.78 430.722 252.239 431.592L252.69 429.812C249.76 429.074 248.159 427.385 247.411 426.594L246.068 427.854ZM246.486 427.713C246.282 427.76 246.117 427.724 246.029 427.697C245.94 427.669 245.879 427.633 245.854 427.618C245.807 427.589 245.789 427.568 245.815 427.592C245.861 427.635 245.935 427.711 246.068 427.854L247.411 426.594C247.297 426.474 247.171 426.34 247.065 426.243C247.015 426.196 246.932 426.122 246.831 426.06C246.781 426.029 246.474 425.831 246.07 425.924L246.486 427.713ZM245.564 428.172C245.884 428.016 246.144 427.89 246.333 427.801C246.428 427.755 246.499 427.723 246.547 427.7C246.572 427.689 246.585 427.684 246.588 427.682C246.614 427.672 246.561 427.696 246.486 427.713L246.07 425.924C245.98 425.945 245.901 425.978 245.89 425.983C245.857 425.996 245.822 426.012 245.789 426.026C245.722 426.056 245.636 426.097 245.539 426.143C245.342 426.237 245.072 426.367 244.756 426.522L245.564 428.172ZM236.669 431.587C236.994 431.656 237.344 431.601 237.596 431.549C237.882 431.49 238.207 431.395 238.547 431.28C239.23 431.051 240.05 430.718 240.892 430.353C242.58 429.621 244.426 428.724 245.564 428.172L244.756 426.522C243.613 427.076 241.801 427.956 240.155 428.669C239.331 429.027 238.567 429.336 237.958 429.54C237.651 429.643 237.405 429.713 237.219 429.752C236.999 429.797 236.976 429.774 237.055 429.791L236.669 431.587ZM248.448 422.099C247.522 422.261 246.209 422.863 244.872 423.585C243.498 424.327 241.981 425.262 240.607 426.185C239.236 427.106 237.98 428.03 237.137 428.755C236.729 429.106 236.362 429.456 236.138 429.761C236.05 429.881 235.859 430.153 235.834 430.499C235.819 430.715 235.867 430.997 236.076 431.241C236.27 431.467 236.512 431.553 236.669 431.587L237.055 429.791C237.135 429.808 237.32 429.864 237.479 430.048C237.651 430.251 237.684 430.479 237.674 430.63C237.658 430.845 237.556 430.941 237.626 430.846C237.717 430.722 237.946 430.486 238.342 430.145C239.107 429.488 240.295 428.608 241.637 427.708C242.975 426.81 244.44 425.907 245.751 425.2C247.098 424.472 248.172 424.012 248.77 423.907L248.448 422.099ZM254.95 423.364C253.714 422.966 252.52 422.58 251.454 422.33C250.401 422.083 249.359 421.939 248.449 422.098L248.77 423.907C249.298 423.814 250.038 423.885 251.031 424.118C252.009 424.347 253.126 424.706 254.382 425.111L254.95 423.364ZM260.604 424.934C258.636 424.55 256.729 423.937 254.95 423.364L254.382 425.111C256.147 425.679 258.156 426.328 260.249 426.737L260.604 424.934ZM261.789 425.054C261.338 424.999 260.91 424.955 260.504 424.921L260.348 426.75C260.73 426.783 261.135 426.825 261.564 426.877L261.789 425.054ZM284.242 427.389C284.234 426.471 284.234 426.471 284.234 426.471H284.233C284.232 426.471 284.23 426.471 284.228 426.471C284.224 426.471 284.216 426.471 284.206 426.471C284.187 426.471 284.159 426.471 284.121 426.472C284.045 426.472 283.931 426.472 283.781 426.472C283.48 426.471 283.037 426.468 282.465 426.46C281.322 426.444 279.668 426.408 277.629 426.325C273.55 426.157 267.934 425.803 261.789 425.054L261.564 426.877C267.771 427.633 273.439 427.991 277.553 428.159C279.611 428.243 281.282 428.28 282.44 428.297C283.019 428.304 283.47 428.308 283.776 428.308C283.929 428.309 284.047 428.309 284.126 428.308C284.166 428.308 284.197 428.308 284.217 428.308C284.227 428.308 284.235 428.308 284.241 428.308C284.243 428.308 284.245 428.308 284.247 428.308C284.248 428.308 284.248 428.308 284.248 428.308C284.248 428.308 284.249 428.308 284.242 427.389ZM291.847 419.704C289.736 423.257 287.743 424.935 286.35 425.731C285.651 426.13 285.094 426.313 284.732 426.397C284.55 426.44 284.416 426.458 284.336 426.465C284.297 426.469 284.27 426.47 284.258 426.471C284.252 426.471 284.249 426.471 284.25 426.471C284.251 426.471 284.254 426.471 284.256 426.471C284.257 426.471 284.259 426.471 284.261 426.471C284.261 426.471 284.262 426.471 284.263 426.471C284.264 426.471 284.265 426.471 284.265 426.471C284.266 426.471 284.267 426.471 284.242 427.389C284.217 428.307 284.218 428.307 284.218 428.307C284.218 428.307 284.219 428.307 284.22 428.307C284.222 428.307 284.223 428.307 284.224 428.308C284.227 428.308 284.23 428.308 284.233 428.308C284.239 428.308 284.247 428.308 284.255 428.308C284.273 428.308 284.293 428.307 284.318 428.306C284.367 428.305 284.433 428.301 284.512 428.294C284.67 428.279 284.886 428.248 285.152 428.186C285.684 428.062 286.41 427.814 287.267 427.324C288.985 426.343 291.192 424.413 293.434 420.639L291.847 419.704ZM298.322 405.884C296.783 409.821 294.974 414.444 291.847 419.704L293.434 420.639C296.644 415.239 298.5 410.492 300.04 406.551L298.322 405.884Z" fill="#424242"/>
</g>
<path d="M295.88 399.064L298.772 394.102L298.819 394.022L298.831 393.93L299.485 388.94L314.125 384.028L314.906 390.292C314.688 390.31 314.403 390.334 314.065 390.368C313.245 390.447 312.11 390.578 310.849 390.779C308.345 391.177 305.275 391.864 303.207 393.024C301.158 394.173 298.655 396.383 296.687 398.276C296.407 398.546 296.138 398.81 295.88 399.064Z" fill="#FFEDE6" stroke="#424242" stroke-width="0.921971"/>
<path d="M265.119 426.763C265.136 426.572 265.151 426.404 265.164 426.264C265.29 426.272 265.441 426.281 265.615 426.291C266.185 426.326 267.002 426.374 267.986 426.427C269.953 426.533 272.592 426.66 275.272 426.745C277.95 426.83 280.678 426.873 282.821 426.809C283.892 426.776 284.828 426.718 285.544 426.622C285.901 426.574 286.217 426.516 286.471 426.442C286.704 426.374 286.967 426.274 287.139 426.095C287.502 425.719 288.182 424.768 289.038 423.464C289.904 422.143 290.974 420.422 292.122 418.474C294.419 414.58 297.037 409.764 298.975 405.407C300.909 401.059 302.535 397.628 304.398 395.415C305.323 394.315 306.288 393.54 307.355 393.099C308.415 392.66 309.61 392.54 311.02 392.803C313.706 393.305 317.092 397.143 316.207 404.991C315.992 406.9 314.952 409.717 313.461 412.924C311.979 416.117 310.074 419.646 308.173 422.958C306.271 426.269 304.374 429.358 302.909 431.668C302.176 432.824 301.552 433.784 301.089 434.479C300.857 434.827 300.667 435.107 300.525 435.312C300.453 435.415 300.395 435.497 300.349 435.559C300.327 435.589 300.308 435.613 300.294 435.632C300.286 435.642 300.281 435.648 300.277 435.654L300.272 435.66C300.27 435.661 300.27 435.662 300.27 435.662C300.248 435.686 300.17 435.749 299.979 435.829C299.798 435.906 299.555 435.984 299.249 436.06C298.637 436.213 297.821 436.35 296.848 436.472C294.904 436.716 292.384 436.893 289.742 437.027C287.142 437.159 283.008 436.806 279.338 436.303C277.506 436.052 275.803 435.765 274.477 435.486C273.814 435.346 273.251 435.21 272.817 435.082C272.364 434.949 272.103 434.84 272.001 434.771C271.339 434.325 270.651 433.82 270.128 433.424C269.866 433.226 269.647 433.056 269.492 432.936C269.415 432.876 269.354 432.828 269.313 432.796L269.267 432.759L269.255 432.75L269.251 432.747H269.25L269.12 432.642L268.952 432.647H268.95H268.943L268.914 432.648C268.889 432.648 268.851 432.648 268.803 432.648C268.706 432.649 268.567 432.65 268.396 432.649C268.056 432.646 267.598 432.635 267.123 432.602C266.644 432.57 266.163 432.516 265.769 432.43C265.573 432.387 265.411 432.339 265.288 432.288C265.172 432.24 265.118 432.2 265.1 432.182C265.097 432.176 265.089 432.161 265.079 432.132C265.06 432.08 265.04 432.004 265.021 431.903C264.984 431.701 264.958 431.432 264.944 431.111C264.915 430.47 264.934 429.672 264.973 428.884C265.012 428.097 265.07 427.332 265.119 426.763Z" fill="#FF4800" stroke="#424242" stroke-width="0.921971"/>
<path d="M293.57 355.887C282.323 356.424 284.088 373.288 284.088 373.288C284.088 373.288 287.008 374.186 293.128 373.181C292.658 371.37 292.86 366.746 292.86 366.746C292.86 366.746 293.572 370.501 294.475 372.779C295.769 373.37 297.232 372.846 299.72 372.247C300.998 377.606 304.609 379.87 307.081 380.644C309.812 381.501 312.704 382.522 315.932 380.912C319.16 379.303 317.386 362.859 315.671 359.552C313.097 354.588 308.822 350.145 301.424 352.491C297.712 353.669 293.57 355.887 293.57 355.887Z" fill="#424242"/>
<path d="M157.708 527.651H160.73L172.485 438.088H165.838L157.708 527.651Z" fill="#2370ED"/>
<path d="M260.244 527.651H257.223L245.468 438.088H252.117L260.244 527.651Z" fill="#2370ED"/>
<path d="M307.811 397.863C307.76 397.961 307.732 398.295 308.03 398.855C308.401 399.554 307.811 400.417 307.811 400.458" stroke="white" stroke-width="0.460984"/>
<path d="M311.552 386.383C311.501 386.479 311.473 386.814 311.771 387.373C312.142 388.072 311.552 388.935 311.552 388.977" stroke="#FF4800" stroke-width="0.460984"/>
<path d="M277.759 430.238C277.708 430.335 277.681 430.67 277.979 431.229C278.35 431.928 277.759 432.791 277.759 432.832" stroke="white" stroke-width="0.460984"/>
<path d="M294.183 431.535C294.131 431.632 294.104 431.967 294.401 432.525C294.773 433.224 294.183 434.088 294.183 434.129" stroke="white" stroke-width="0.460984"/>
<path d="M297.936 439.637C297.885 439.735 297.858 440.069 298.155 440.629C298.527 441.328 297.936 442.19 297.936 442.231" stroke="white" stroke-width="0.460984"/>
<path d="M309.484 440.934C309.432 441.032 309.405 441.366 309.702 441.925C310.074 442.625 309.484 443.487 309.484 443.528" stroke="white" stroke-width="0.460984"/>
<path d="M295.933 421.102C295.882 421.2 295.854 421.534 296.151 422.093C296.523 422.792 295.933 423.655 295.933 423.696" stroke="white" stroke-width="0.460984"/>
<path d="M307.811 413.398C307.76 413.494 307.732 413.829 308.03 414.389C308.401 415.087 307.811 415.95 307.811 415.992" stroke="white" stroke-width="0.460984"/>
<path d="M312.539 425.386C312.488 425.484 312.461 425.818 312.758 426.377C313.13 427.076 312.539 427.94 312.539 427.981" stroke="white" stroke-width="0.460984"/>
<path d="M295.559 404.368C295.508 404.465 295.481 404.8 295.778 405.358C296.149 406.057 295.559 406.921 295.559 406.962" stroke="white" stroke-width="0.460984"/>
<path d="M318.312 409.56C318.261 409.657 318.233 409.992 318.531 410.551C318.902 411.25 318.312 412.113 318.312 412.154" stroke="white" stroke-width="0.460984"/>
<path d="M301.317 409.558C301.572 409.558 301.778 409.352 301.778 409.098C301.778 408.845 301.572 408.639 301.317 408.639C301.063 408.639 300.857 408.845 300.857 409.098C300.857 409.352 301.063 409.558 301.317 409.558Z" fill="white"/>
<path d="M304.413 422.775C304.668 422.775 304.874 422.57 304.874 422.316C304.874 422.063 304.668 421.857 304.413 421.857C304.159 421.857 303.952 422.063 303.952 422.316C303.952 422.57 304.159 422.775 304.413 422.775Z" fill="white"/>
<path d="M311.432 406.126C311.687 406.126 311.893 405.92 311.893 405.667C311.893 405.413 311.687 405.208 311.432 405.208C311.178 405.208 310.972 405.413 310.972 405.667C310.972 405.92 311.178 406.126 311.432 406.126Z" fill="white"/>
<path d="M301.777 391.395C302.032 391.395 302.238 391.19 302.238 390.936C302.238 390.682 302.032 390.477 301.777 390.477C301.523 390.477 301.316 390.682 301.316 390.936C301.316 391.19 301.523 391.395 301.777 391.395Z" fill="#FF4800"/>
<path d="M292.943 411.772C293.197 411.772 293.404 411.567 293.404 411.313C293.404 411.06 293.197 410.854 292.943 410.854C292.688 410.854 292.482 411.06 292.482 411.313C292.482 411.567 292.688 411.772 292.943 411.772Z" fill="white"/>
<path d="M286.274 431.37C286.529 431.37 286.735 431.164 286.735 430.91C286.735 430.657 286.529 430.451 286.274 430.451C286.02 430.451 285.813 430.657 285.813 430.91C285.813 431.164 286.02 431.37 286.274 431.37Z" fill="white"/>
<path d="M270.319 430.077C270.573 430.077 270.78 429.872 270.78 429.618C270.78 429.365 270.573 429.159 270.319 429.159C270.064 429.159 269.858 429.365 269.858 429.618C269.858 429.872 270.064 430.077 270.319 430.077Z" fill="white"/>
<path d="M308.615 434.588C308.869 434.588 309.076 434.383 309.076 434.129C309.076 433.876 308.869 433.67 308.615 433.67C308.36 433.67 308.154 433.876 308.154 434.129C308.154 434.383 308.36 434.588 308.615 434.588Z" fill="white"/>
<path d="M313.915 449.104C314.17 449.104 314.376 448.899 314.376 448.645C314.376 448.392 314.17 448.186 313.915 448.186C313.66 448.186 313.454 448.392 313.454 448.645C313.454 448.899 313.66 449.104 313.915 449.104Z" fill="white"/>
<path d="M317.27 419.102C317.525 419.102 317.731 418.897 317.731 418.643C317.731 418.39 317.525 418.184 317.27 418.184C317.015 418.184 316.809 418.39 316.809 418.643C316.809 418.897 317.015 419.102 317.27 419.102Z" fill="white"/>
<path d="M355.617 508.516C355.617 508.341 355.759 508.2 355.934 508.2H373.413C373.588 508.2 373.73 508.341 373.73 508.516V510.613C373.73 510.787 373.588 510.929 373.413 510.929H355.934C355.759 510.929 355.617 510.787 355.617 510.613V508.516Z" fill="white" stroke="#424242" stroke-width="0.634472"/>
<path d="M358.491 526.125L357.119 510.931H372.476L370.657 526.125H358.491Z" fill="white" stroke="#424242" stroke-width="0.634472" stroke-linejoin="round"/>
<path d="M364.673 507.886C364.341 495.57 366.828 466.329 379.433 447.895" stroke="#424242" stroke-width="0.634472" stroke-linejoin="round"/>
<path d="M371.854 503.118C366.269 505.342 364.341 501.131 364.075 498.748C363.944 497.64 364.303 494.745 366.753 491.925C366.828 491.838 366.912 491.76 367.002 491.688C367.54 491.259 367.823 490.589 367.755 489.906L367.67 489.06C367.543 487.8 368.093 486.567 369.117 485.816L369.691 485.394C370.695 484.657 371.376 483.565 371.593 482.342L371.764 481.374C371.823 481.043 371.96 480.729 372.163 480.46C372.354 480.206 372.596 479.995 372.878 479.85C373.263 479.65 373.738 479.426 374.247 479.293C375.244 479.033 376.042 479.293 377.099 480.274C377.239 480.469 377.373 480.694 377.499 480.955C377.596 481.158 377.638 481.383 377.638 481.609C377.638 481.906 377.561 482.198 377.414 482.456L376.934 483.306C376.234 484.546 376.049 486.009 376.417 487.384L376.474 487.601C376.584 488.012 376.64 488.435 376.64 488.86V489.345C376.64 490.4 376.197 491.407 375.419 492.124C374.554 492.919 374.108 494.068 374.211 495.236L374.405 497.419C374.561 499.185 374.228 501.036 372.981 502.301C372.595 502.691 372.201 503.003 371.854 503.118Z" fill="#FFD600" stroke="#424242" stroke-width="0.634472" stroke-linejoin="round"/>
<path d="M366.07 507.887C367.599 501.993 371.096 489.611 372.851 487.227" stroke="#424242" stroke-width="0.634472" stroke-linejoin="round"/>
<path d="M355.738 494.486C362.417 496.174 363.96 491.086 363.897 488.331C363.876 487.049 363.025 483.807 359.813 480.966C359.715 480.879 359.607 480.801 359.493 480.733C358.817 480.326 358.393 479.607 358.367 478.821L358.334 477.842C358.284 476.387 357.47 475.065 356.19 474.363L355.479 473.973C354.226 473.285 353.286 472.145 352.854 470.787L352.51 469.707C352.392 469.339 352.19 469.003 351.919 468.727C351.663 468.467 351.354 468.264 351.011 468.139C350.542 467.97 349.97 467.787 349.374 467.714C348.202 467.569 347.337 467.985 346.287 469.262C346.158 469.505 346.041 469.783 345.938 470.098C345.858 470.344 345.845 470.607 345.88 470.864C345.925 471.202 346.057 471.522 346.263 471.796L346.938 472.691C347.923 473.997 348.358 475.634 348.15 477.254L348.117 477.512C348.055 477.997 348.057 478.487 348.122 478.971L348.197 479.527C348.358 480.727 349.015 481.806 350.008 482.504C351.112 483.279 351.793 484.518 351.855 485.861L351.969 488.383C352.062 490.416 352.724 492.474 354.335 493.727C354.833 494.113 355.326 494.408 355.738 494.486Z" fill="#4BE477" stroke="#424242" stroke-width="0.634472" stroke-linejoin="round"/>
<path d="M351.51 474.514C354.834 480.275 361.442 495.053 361.283 508.085" stroke="#424242" stroke-width="0.634472" stroke-linejoin="round"/>
<path d="M371.762 474.916C362.255 476.607 360.598 469.362 360.957 465.528C361.112 463.743 362.621 459.309 367.392 455.667C367.539 455.556 367.697 455.458 367.861 455.374C368.847 454.875 369.511 453.912 369.626 452.816L369.768 451.459C369.98 449.438 371.247 447.677 373.102 446.826L374.143 446.349C375.961 445.516 377.388 444.018 378.128 442.165L378.712 440.7C378.913 440.197 379.229 439.748 379.637 439.389C380.019 439.054 380.47 438.801 380.961 438.662C381.633 438.473 382.452 438.274 383.294 438.23C384.947 438.145 386.117 438.811 387.458 440.694C387.615 441.046 387.752 441.444 387.865 441.894C387.953 442.246 387.944 442.613 387.871 442.968C387.774 443.434 387.558 443.869 387.244 444.228L386.212 445.409C384.707 447.132 383.937 449.373 384.068 451.652L384.088 452.013C384.127 452.694 384.076 453.378 383.938 454.047L383.78 454.808C383.435 456.468 382.411 457.909 380.952 458.783C379.334 459.754 378.258 461.416 378.04 463.285L377.632 466.781C377.302 469.607 376.174 472.41 373.801 473.995C373.067 474.485 372.347 474.848 371.762 474.916Z" stroke="#424242" stroke-width="0.634472" stroke-linejoin="round"/>
<path d="M417.811 400.337C419.541 400.337 420.944 398.94 420.944 397.217C420.944 395.494 419.541 394.096 417.811 394.096C416.08 394.096 414.678 395.494 414.678 397.217C414.678 398.94 416.08 400.337 417.811 400.337Z" stroke="#FF4800" stroke-width="0.696239"/>
</g>
<path d="M79.7578 70.5203V59.2653H84.0164C86.0531 59.2653 87.3491 60.4948 87.3491 62.2918C87.3491 63.3795 86.7937 64.2307 86.0068 64.5617C87.1177 64.8455 87.9046 65.8386 87.9046 67.21C87.9046 69.1016 86.5159 70.5203 84.5255 70.5203H79.7578ZM83.8312 61.3933H82.3037V63.7105H83.8312C84.4792 63.7105 84.9421 63.2849 84.9421 62.5283C84.9421 61.7716 84.433 61.3933 83.8312 61.3933ZM84.1552 65.7913H82.3037V68.3922H84.1552C84.8495 68.3922 85.3124 67.872 85.3124 67.1154C85.3124 66.3115 84.8033 65.7913 84.1552 65.7913Z" fill="#283A5E"/>
<path d="M93.4947 61.9942C96.0868 61.9942 98.0772 63.8858 98.0772 66.3449C98.0772 68.804 96.1331 70.6956 93.4947 70.6956C90.9025 70.6956 88.9121 68.804 88.9121 66.3449C88.9584 63.8858 90.9025 61.9942 93.4947 61.9942ZM93.4947 68.4256C94.6519 68.4256 95.5314 67.5271 95.5314 66.3449C95.5314 65.1626 94.6519 64.2641 93.4947 64.2641C92.3375 64.2641 91.458 65.1626 91.458 66.3449C91.458 67.5271 92.3375 68.4256 93.4947 68.4256Z" fill="#283A5E"/>
<path d="M102.103 59.2653H99.5576V70.5203H102.103V59.2653Z" fill="#283A5E"/>
<path d="M107.382 62.0081C108.447 62.0081 109.326 62.4337 109.974 63.0957V59.2653H112.474V70.5203H109.974V69.6218C109.326 70.3311 108.447 70.7094 107.382 70.7094C105.16 70.7094 103.54 68.8178 103.54 66.3588C103.54 63.8997 105.16 62.0081 107.382 62.0081ZM108.03 68.4395C109.141 68.4395 109.974 67.541 109.974 66.3588C109.974 65.1765 109.095 64.278 108.03 64.278C106.919 64.278 106.086 65.1765 106.086 66.3588C106.086 67.541 106.919 68.4395 108.03 68.4395Z" fill="#283A5E"/>
<path d="M119.973 59.2653C123.306 59.2653 125.482 61.4879 125.482 64.8928C125.482 68.2976 123.26 70.5203 119.973 70.5203H115.854V59.2653H119.973ZM118.492 61.5825V68.2031H119.279C119.557 68.2031 119.834 68.2031 120.066 68.1558C121.778 68.0612 122.889 66.9735 122.889 64.8455C122.889 62.6701 121.64 61.5352 119.834 61.5352H118.492V61.5825Z" fill="#283A5E"/>
<path d="M131.308 68.7761C132.373 68.7761 133.206 68.4451 133.947 67.783L135.011 69.0125C134.132 70.0056 132.928 70.7623 131.262 70.7623C128.438 70.7623 126.587 68.8707 126.587 66.4116C126.587 63.9525 128.531 62.0609 131.077 62.0609C133.576 62.0609 135.382 63.9525 135.382 66.2697C135.382 66.5535 135.335 66.8845 135.243 67.1209H129.133C129.272 68.114 130.105 68.7761 131.308 68.7761ZM129.133 65.4185H132.79C132.604 64.52 131.956 63.9052 131.031 63.9052C130.105 63.9525 129.364 64.52 129.133 65.4185Z" fill="#283A5E"/>
<path d="M137.331 67.8303C137.979 68.4451 138.674 68.7761 139.461 68.7761C140.109 68.7761 140.433 68.5396 140.433 68.114C140.433 67.6884 140.109 67.452 139.183 67.2628C137.47 66.8845 136.545 65.9387 136.545 64.5673C136.545 63.1013 137.794 62.0609 139.553 62.0609C141.497 62.0609 142.562 63.1959 142.793 64.7564H140.618C140.525 64.2835 140.201 63.9998 139.692 63.9998C139.229 63.9998 138.905 64.2363 138.905 64.5673C138.905 64.9456 139.229 65.2293 140.109 65.4185C141.96 65.7968 142.84 66.7426 142.84 68.114C142.84 69.6273 141.544 70.715 139.553 70.715C138.35 70.715 137.239 70.1002 136.359 68.9653L137.331 67.8303Z" fill="#283A5E"/>
<path d="M151.445 62.1972C151.445 64.3253 150.89 65.744 149.918 66.4533L152.001 70.5203H149.27L147.603 67.0681H146.909V70.5203H144.363V59.2653H146.909V64.8928H147.418C148.252 64.8928 148.992 64.3726 148.992 62.1972H151.445Z" fill="#283A5E"/>
<path d="M81.9138 80.3543C81.3584 80.3543 80.8955 80.1179 80.5715 79.7395V80.2597H79.7383V74.6795H80.5715V76.8548C80.8955 76.4765 81.3584 76.2401 81.9138 76.2401C83.0248 76.2401 83.8117 77.1386 83.8117 78.3208C83.8117 79.4085 83.0248 80.3543 81.9138 80.3543ZM81.775 76.9967C81.0806 76.9967 80.5715 77.5642 80.5715 78.2735C80.5715 78.9829 81.0806 79.5504 81.775 79.5504C82.4693 79.5504 82.9785 78.9829 82.9785 78.2735C82.9322 77.5642 82.4693 76.9967 81.775 76.9967Z" fill="#283A5E"/>
<path d="M84.8738 82.0004L85.5681 80.2034L84.0869 76.2783H84.9664L85.9847 79.1157L87.0031 76.2783H87.8826L85.7533 82.0004H84.8738Z" fill="#283A5E"/>
<path d="M91.0699 78.8887C91.4402 79.3143 91.9031 79.5981 92.4123 79.5981C93.014 79.5981 93.4306 79.3143 93.4306 78.8414C93.4306 78.4158 93.1529 78.0848 92.2734 77.8956C91.2088 77.6592 90.6533 77.139 90.6533 76.3351C90.6533 75.4365 91.3476 74.8218 92.366 74.8218C93.2918 74.8218 94.125 75.342 94.2175 76.3823H93.3381C93.2918 75.8622 92.9215 75.5784 92.4123 75.5784C91.9031 75.5784 91.5791 75.8622 91.5791 76.2405C91.5791 76.6661 91.9031 76.9498 92.69 77.139C93.8472 77.4227 94.3564 77.9429 94.3564 78.7941C94.3564 79.6926 93.6621 80.3547 92.4586 80.3547C91.7642 80.3547 91.1162 79.9764 90.6533 79.3616L91.0699 78.8887Z" fill="#283A5E"/>
<path d="M95.4295 82.0004L96.1238 80.2034L94.6426 76.2783H95.5221L96.5404 79.1157L97.5588 76.2783H98.4382L96.309 82.0004H95.4295Z" fill="#283A5E"/>
<path d="M102.599 77.7926V80.2044H101.766V77.8399C101.766 77.3197 101.396 76.9414 100.887 76.9414C100.378 76.9414 99.8684 77.4143 99.8684 78.0291V80.2044H99.0352V76.2793H99.8684V76.7995C100.146 76.4212 100.563 76.1848 101.026 76.1848C101.998 76.1848 102.599 76.8468 102.599 77.7926Z" fill="#283A5E"/>
<path d="M107.133 79.2586C106.762 79.968 106.161 80.3463 105.42 80.3463C104.263 80.3463 103.337 79.4478 103.337 78.2655C103.337 77.0833 104.216 76.1848 105.327 76.1848C106.299 76.1848 106.994 76.7049 107.225 77.6035H106.299C106.161 77.2251 105.836 76.9414 105.374 76.9414C104.772 76.9414 104.216 77.4616 104.216 78.2182C104.216 79.0222 104.818 79.4951 105.466 79.4951C105.929 79.4951 106.346 79.2586 106.67 78.833L107.133 79.2586Z" fill="#283A5E"/>
<path d="M110.092 75.4361C109.999 75.4361 109.86 75.4361 109.768 75.4361C109.259 75.4361 109.073 75.6726 109.073 76.0982V76.3347H110.092V77.044H109.073V80.2124H108.24V77.044H107.546V76.2874H108.24V76.0509C108.24 75.1051 108.703 74.6795 109.675 74.6795C109.814 74.6795 109.999 74.6795 110.092 74.7268V75.4361Z" fill="#283A5E"/>
<path d="M110.711 78.7577V76.3459H111.544V78.7104C111.544 79.2306 111.914 79.609 112.424 79.609C112.979 79.609 113.442 79.1361 113.442 78.474V76.3459H114.275V80.271H113.442V79.7508C113.164 80.1291 112.748 80.3656 112.285 80.3656C111.313 80.3183 110.711 79.7035 110.711 78.7577Z" fill="#283A5E"/>
<path d="M115.478 79.1371C115.755 79.4209 116.079 79.6573 116.496 79.6573C116.913 79.6573 117.19 79.4682 117.19 79.1844C117.19 78.9007 116.959 78.7115 116.45 78.6169C115.617 78.4278 115.2 78.0022 115.2 77.3874C115.2 76.7253 115.709 76.2524 116.542 76.2524C117.329 76.2524 117.885 76.6781 117.977 77.4347H117.144C117.098 77.151 116.913 76.9618 116.589 76.9618C116.265 76.9618 116.033 77.151 116.033 77.3874C116.033 77.6239 116.265 77.8603 116.728 77.9549C117.607 78.144 118.024 78.5224 118.024 79.1844C118.024 79.8465 117.468 80.3667 116.542 80.3667C115.941 80.3667 115.478 80.0829 115.107 79.61L115.478 79.1371Z" fill="#283A5E"/>
<path d="M119.274 74.6795C119.552 74.6795 119.783 74.916 119.783 75.1997C119.783 75.4834 119.552 75.7199 119.274 75.7199C118.996 75.7199 118.765 75.4834 118.765 75.1997C118.765 74.916 118.996 74.6795 119.274 74.6795ZM118.857 76.2874H119.69V80.2124H118.857V76.2874Z" fill="#283A5E"/>
<path d="M122.646 76.1848C123.849 76.1848 124.775 77.0833 124.775 78.2655C124.775 79.4478 123.896 80.3463 122.646 80.3463C121.442 80.3463 120.517 79.4478 120.517 78.2655C120.517 77.0833 121.442 76.1848 122.646 76.1848ZM122.646 79.5423C123.34 79.5423 123.896 78.9749 123.896 78.2655C123.896 77.5562 123.34 76.9887 122.646 76.9887C121.952 76.9887 121.396 77.5562 121.396 78.2655C121.396 78.9749 121.952 79.5423 122.646 79.5423Z" fill="#283A5E"/>
<path d="M129.119 77.7926V80.2044H128.286V77.8399C128.286 77.3197 127.915 76.9414 127.406 76.9414C126.897 76.9414 126.388 77.4143 126.388 78.0291V80.2044H125.555V76.2793H126.388V76.7995C126.666 76.4212 127.082 76.1848 127.545 76.1848C128.517 76.1848 129.119 76.8468 129.119 77.7926Z" fill="#283A5E"/>
<path d="M61.8786 73.9702H68.4516C71.6918 73.9702 74.3302 71.2747 74.3302 67.9644V62.0058C74.3302 58.6955 71.6918 56 68.4516 56H61.8786C58.6384 56 56 58.6955 56 62.0058V68.0117C56 71.2747 58.6384 73.9702 61.8786 73.9702ZM59.2865 56.6148L62.573 59.7359H68.8219C70.0254 59.7359 70.9975 60.729 70.9975 61.9585V68.3427C70.9975 69.5722 70.0254 70.5653 68.8219 70.5653H61.5083C60.3048 70.5653 59.3328 69.5722 59.3328 68.3427V56.6148H59.2865Z" fill="#FF4800"/>
<path d="M67.7152 68.347L66.2339 66.8337H62.9475C62.7623 66.8337 62.5771 66.6446 62.5771 66.4554V63.0978C62.5771 62.9086 62.7623 62.7195 62.9475 62.7195H67.3449C67.53 62.7195 67.7152 62.9086 67.7152 63.0978V68.347Z" fill="#FF4800"/>
</g>
</svg>
